{
DisplayStrings = (
/dvTTHA/dvTTH_TTHA/dvTTH_VA/dvDD_VA/dvTT_VA/dvD_VA/dvDDHA/dvDDH_VA/dvDDH_DDHA/dvDD_DDHA,
"\U00A9herb\U00AE\U00B93/summation 46/product 54\U00A8/lozenge",
/dvNNA/dvK_NNA/dvG_NNA/dvH_NNA/dvNN_NNA/dvSS_NNA
);
date = "2014-10-22 13:06:48 +0000";
familyName = "Tillana";
fontMaster = (
{
ascender = 800;
capHeight = 700;
descender = "-200";
guideLines = (
{
position = "{402, -20}";
},
{
locked = 1;
position = "{274, 649}";
},
{
locked = 1;
position = "{326, 684}";
},
{
locked = 1;
position = "{-149, 0}";
}
);
id = "5A85B07D-1A67-4978-877A-FA33898BA300";
italicAngle = 10;
weight = Light;
weightValue = 0;
xHeight = 500;
},
{
ascender = 800;
capHeight = 700;
descender = "-200";
guideLines = (
{
position = "{167, -18}";
},
{
locked = 1;
position = "{736, 680}";
},
{
locked = 1;
position = "{-195, 628}";
},
{
locked = 1;
position = "{-179, 8}";
}
);
id = "A99E0968-31B7-4C8F-B576-AD2EC1F95564";
italicAngle = 10;
userData = {
GSOffsetHorizontal = 3;
GSOffsetVertical = 3;
};
weight = Bold;
xHeight = 500;
}
);
glyphs = (
{
glyphname = A;
lastChange = "2014-11-06 13:25:25 +0000";
layers = (
{
anchors = (
{
name = ogonek;
position = "{469, 0}";
},
{
name = top;
position = "{428, 796}";
}
);
layerId = "5A85B07D-1A67-4978-877A-FA33898BA300";
name = "Light Italic";
paths = (
{
closed = 1;
nodes = (
"387 327 LINE",
"39 310 LINE",
"19 288 OFFCURVE",
"16 261 OFFCURVE",
"32 240 CURVE",
"253 273 LINE",
"544 289 LINE",
"566 319 OFFCURVE",
"567 349 OFFCURVE",
"551 360 CURVE"
);
},
{
closed = 1;
nodes = (
"403 6 OFFCURVE",
"429 -5 OFFCURVE",
"474 0 CURVE",
"433 550 LINE",
"448 724 LINE",
"415 734 OFFCURVE",
"368 738 OFFCURVE",
"324 710 CURVE",
"210 438 LINE",
"-11 24 LINE",
"2 2 OFFCURVE",
"27 -4 OFFCURVE",
"72 0 CURVE",
"367 644 LINE",
"376 646 LINE",
"387 315 LINE",
"388 25 LINE"
);
}
);
width = 567;
},
{
anchors = (
{
name = ogonek;
position = "{648, 0}";
},
{
name = top;
position = "{486, 753}";
}
);
layerId = "A99E0968-31B7-4C8F-B576-AD2EC1F95564";
name = "Bold Italic";
paths = (
{
closed = 1;
nodes = (
"475 346 LINE",
"55 347 LINE",
"19 299 OFFCURVE",
"20 273 OFFCURVE",
"52 241 CURVE",
"338 264 LINE",
"782 295 LINE",
"811 343 OFFCURVE",
"812 374 OFFCURVE",
"786 398 CURVE"
);
},
{
closed = 1;
nodes = (
"499 -8 OFFCURVE",
"662 -18 OFFCURVE",
"705 28 CURVE",
"652 562 LINE",
"676 726 LINE",
"621 757 OFFCURVE",
"452 771 OFFCURVE",
"297 707 CURVE",
"250 511 LINE",
"15 51 LINE",
"42 3 OFFCURVE",
"194 -19 OFFCURVE",
"264 28 CURVE",
"451 604 LINE",
"467 607 LINE",
"476 340 LINE",
"419 45 LINE"
);
}
);
width = 801;
}
);
unicode = 0041;
},
{
glyphname = Aogonek;
lastChange = "2014-11-06 13:25:25 +0000";
layers = (
{
components = (
{
name = A;
transform = "{1, 0, 0, 1, 0, 0}";
}
);
layerId = "5A85B07D-1A67-4978-877A-FA33898BA300";
name = "Light Italic";
paths = (
{
closed = 1;
nodes = (
"462 -1 CURVE",
"462 13 OFFCURVE",
"451 20 OFFCURVE",
"429 23 CURVE",
"373 4 OFFCURVE",
"293 -51 OFFCURVE",
"293 -118 CURVE SMOOTH",
"293 -160 OFFCURVE",
"353 -198 OFFCURVE",
"414 -198 CURVE SMOOTH",
"468 -198 OFFCURVE",
"513 -171 OFFCURVE",
"545 -137 CURVE",
"541 -119 OFFCURVE",
"532 -113 OFFCURVE",
"518 -112 CURVE",
"491 -135 OFFCURVE",
"455 -147 OFFCURVE",
"420 -147 CURVE SMOOTH",
"383 -147 OFFCURVE",
"356 -132 OFFCURVE",
"345 -110 CURVE",
"356 -65 OFFCURVE",
"400 -14 OFFCURVE"
);
}
);
width = 567;
},
{
background = {
paths = (
{
closed = 1;
nodes = (
"723 -7 CURVE",
"722 21 OFFCURVE",
"697 41 OFFCURVE",
"657 50 CURVE",
"529 40 OFFCURVE",
"413 -7 OFFCURVE",
"399 -108 CURVE SMOOTH",
"383 -212 OFFCURVE",
"486 -268 OFFCURVE",
"608 -268 CURVE SMOOTH",
"706 -268 OFFCURVE",
"775 -235 OFFCURVE",
"831 -175 CURVE",
"833 -145 OFFCURVE",
"818 -120 OFFCURVE",
"799 -119 CURVE",
"769 -145 OFFCURVE",
"726 -163 OFFCURVE",
"684 -163 CURVE SMOOTH",
"644 -163 OFFCURVE",
"610 -153 OFFCURVE",
"595 -122 CURVE",
"602 -61 OFFCURVE",
"668 -18 OFFCURVE"
);
}
);
};
components = (
{
name = A;
transform = "{1, 0, 0, 1, 0, 0}";
}
);
layerId = "A99E0968-31B7-4C8F-B576-AD2EC1F95564";
name = "Bold Italic";
paths = (
{
closed = 1;
nodes = (
"687 15 CURVE",
"687 59 OFFCURVE",
"679 76 OFFCURVE",
"639 85 CURVE",
"531 62 OFFCURVE",
"359 -34 OFFCURVE",
"359 -148 CURVE SMOOTH",
"359 -212 OFFCURVE",
"456 -268 OFFCURVE",
"549 -268 CURVE SMOOTH",
"666 -268 OFFCURVE",
"735 -235 OFFCURVE",
"791 -175 CURVE",
"793 -135 OFFCURVE",
"775 -111 OFFCURVE",
"746 -113 CURVE",
"710 -138 OFFCURVE",
"664 -155 OFFCURVE",
"623 -155 CURVE SMOOTH",
"592 -155 OFFCURVE",
"564 -145 OFFCURVE",
"547 -122 CURVE",
"572 -47 OFFCURVE",
"635 -6 OFFCURVE"
);
}
);
width = 801;
}
);
unicode = 0104;
},
{
glyphname = AE;
lastChange = "2014-11-06 13:25:25 +0000";
layers = (
{
layerId = "5A85B07D-1A67-4978-877A-FA33898BA300";
name = "Light Italic";
paths = (
{
closed = 1;
nodes = (
"711 730 OFFCURVE",
"666 731 OFFCURVE",
"617 731 CURVE SMOOTH",
"509 731 OFFCURVE",
"408 725 OFFCURVE",
"327 705 CURVE",
"208 428 LINE",
"165 361 LINE",
"51 362 LINE",
"31 340 OFFCURVE",
"27 313 OFFCURVE",
"42 292 CURVE",
"130 298 LINE",
"-24 24 LINE",
"-12 2 OFFCURVE",
"13 -4 OFFCURVE",
"58 0 CURVE",
"206 303 LINE",
"366 309 LINE",
"312 50 LINE",
"340 18 OFFCURVE",
"349 0 OFFCURVE",
"405 0 CURVE SMOOTH",
"488 0 OFFCURVE",
"597 13 OFFCURVE",
"679 29 CURVE",
"691 55 OFFCURVE",
"699 100 OFFCURVE",
"664 113 CURVE",
"602 91 OFFCURVE",
"482 65 OFFCURVE",
"402 63 CURVE",
"402 124 LINE",
"432 305 LINE",
"528 314 OFFCURVE",
"556 314 OFFCURVE",
"649 306 CURVE",
"667 336 OFFCURVE",
"669 370 OFFCURVE",
"658 389 CURVE",
"563 374 OFFCURVE",
"530 373 OFFCURVE",
"442 369 CURVE",
"457 577 LINE",
"487 663 LINE",
"548 670 OFFCURVE",
"600 673 OFFCURVE",
"658 664 CURVE",
"713 615 LINE",
"755 644 OFFCURVE",
"771 708 OFFCURVE",
"744 728 CURVE"
);
},
{
closed = 1;
nodes = (
"370 644 LINE",
"378 646 LINE",
"368 362 LINE",
"232 359 LINE"
);
}
);
width = 757;
},
{
layerId = "A99E0968-31B7-4C8F-B576-AD2EC1F95564";
name = "Bold Italic";
paths = (
{
closed = 1;
nodes = (
"907 750 OFFCURVE",
"819 754 OFFCURVE",
"735 754 CURVE SMOOTH",
"563 754 OFFCURVE",
"397 740 OFFCURVE",
"299 707 CURVE",
"253 530 LINE",
"184 383 LINE",
"63 382 LINE",
"25 334 OFFCURVE",
"25 308 OFFCURVE",
"56 276 CURVE",
"131 283 LINE",
"2 51 LINE",
"27 3 OFFCURVE",
"179 -19 OFFCURVE",
"251 28 CURVE",
"343 295 LINE",
"478 307 LINE",
"417 62 LINE",
"446 24 OFFCURVE",
"500 0 OFFCURVE",
"581 0 CURVE SMOOTH",
"650 0 OFFCURVE",
"821 11 OFFCURVE",
"902 27 CURVE",
"920 61 OFFCURVE",
"947 150 OFFCURVE",
"886 180 CURVE",
"782 157 OFFCURVE",
"683 137 OFFCURVE",
"606 128 CURVE",
"606 208 LINE",
"639 320 LINE",
"728 333 OFFCURVE",
"798 332 OFFCURVE",
"884 327 CURVE",
"923 360 OFFCURVE",
"930 430 OFFCURVE",
"886 444 CURVE",
"802 439 OFFCURVE",
"699 424 OFFCURVE",
"645 413 CURVE",
"637 563 LINE",
"665 624 LINE",
"726 634 OFFCURVE",
"774 638 OFFCURVE",
"815 630 CURVE",
"898 563 LINE",
"980 619 OFFCURVE",
"1017 682 OFFCURVE",
"969 747 CURVE"
);
},
{
closed = 1;
nodes = (
"457 617 LINE",
"474 620 LINE",
"486 388 LINE",
"373 374 LINE"
);
}
);
width = 975;
}
);
unicode = 00C6;
},
{
glyphname = B;
lastChange = "2014-11-06 13:25:25 +0000";
layers = (
{
layerId = "5A85B07D-1A67-4978-877A-FA33898BA300";
name = "Light Italic";
paths = (
{
closed = 1;
nodes = (
"402 685 OFFCURVE",
"473 620 OFFCURVE",
"473 546 CURVE SMOOTH",
"472 464 OFFCURVE",
"456 460 OFFCURVE",
"409 420 CURVE",
"348 393 OFFCURVE",
"288 386 OFFCURVE",
"207 387 CURVE",
"257 673 LINE"
);
},
{
closed = 1;
nodes = (
"336 63 OFFCURVE",
"240 54 OFFCURVE",
"157 55 CURVE",
"203 337 LINE",
"334 350 OFFCURVE",
"394 334 OFFCURVE",
"453 282 CURVE",
"458 266 OFFCURVE",
"460 249 OFFCURVE",
"460 233 CURVE SMOOTH",
"459 178 OFFCURVE",
"446 137 OFFCURVE",
"402 86 CURVE"
);
},
{
closed = 1;
nodes = (
"430 368 LINE",
"518 418 OFFCURVE",
"555 455 OFFCURVE",
"556 551 CURVE SMOOTH",
"556 644 OFFCURVE",
"461 735 OFFCURVE",
"284 735 CURVE SMOOTH",
"227 735 OFFCURVE",
"183 731 OFFCURVE",
"131 720 CURVE",
"119 702 OFFCURVE",
"118 674 OFFCURVE",
"148 654 CURVE",
"184 662 LINE",
"149 435 LINE",
"127 315 OFFCURVE",
"106 224 OFFCURVE",
"65 70 CURVE",
"70 35 OFFCURVE",
"95 15 OFFCURVE",
"147 0 CURVE",
"247 -5 OFFCURVE",
"348 1 OFFCURVE",
"461 41 CURVE",
"523 109 OFFCURVE",
"541 177 OFFCURVE",
"541 238 CURVE SMOOTH",
"541 262 OFFCURVE",
"536 287 OFFCURVE",
"525 310 CURVE",
"498 332 OFFCURVE",
"464 351 OFFCURVE",
"429 361 CURVE"
);
}
);
width = 585;
},
{
layerId = "A99E0968-31B7-4C8F-B576-AD2EC1F95564";
name = "Bold Italic";
paths = (
{
closed = 1;
nodes = (
"479 660 OFFCURVE",
"517 601 OFFCURVE",
"505 533 CURVE SMOOTH",
"499 498 OFFCURVE",
"480 461 OFFCURVE",
"450 430 CURVE",
"419 415 OFFCURVE",
"390 411 OFFCURVE",
"347 412 CURVE",
"375 641 LINE"
);
},
{
closed = 1;
nodes = (
"384 108 OFFCURVE",
"329 100 OFFCURVE",
"277 108 CURVE",
"332 334 LINE",
"387 338 OFFCURVE",
"421 330 OFFCURVE",
"457 320 CURVE",
"476 288 OFFCURVE",
"482 266 OFFCURVE",
"482 244 CURVE SMOOTH",
"483 205 OFFCURVE",
"469 165 OFFCURVE",
"439 125 CURVE"
);
},
{
closed = 1;
nodes = (
"565 394 LINE",
"678 433 OFFCURVE",
"738 494 OFFCURVE",
"739 578 CURVE SMOOTH",
"741 670 OFFCURVE",
"643 750 OFFCURVE",
"411 750 CURVE SMOOTH",
"337 750 OFFCURVE",
"179 737 OFFCURVE",
"105 713 CURVE",
"85 694 OFFCURVE",
"89 660 OFFCURVE",
"114 641 CURVE",
"164 640 LINE",
"187 507 LINE",
"162 386 OFFCURVE",
"118 259 OFFCURVE",
"62 129 CURVE",
"66 53 OFFCURVE",
"163 9 OFFCURVE",
"232 0 CURVE",
"416 -6 OFFCURVE",
"484 8 OFFCURVE",
"601 44 CURVE",
"693 123 OFFCURVE",
"719 181 OFFCURVE",
"720 248 CURVE SMOOTH",
"721 283 OFFCURVE",
"710 314 OFFCURVE",
"680 346 CURVE",
"655 364 OFFCURVE",
"618 379 OFFCURVE",
"564 385 CURVE"
);
}
);
width = 753;
}
);
unicode = 0042;
},
{
glyphname = C;
lastChange = "2014-11-06 13:25:25 +0000";
layers = (
{
anchors = (
{
name = bottom;
position = "{325, 0}";
},
{
name = top;
position = "{383, 796}";
}
);
layerId = "5A85B07D-1A67-4978-877A-FA33898BA300";
name = "Light Italic";
paths = (
{
closed = 1;
nodes = (
"416 679 LINE",
"453 637 OFFCURVE",
"462 596 OFFCURVE",
"468 536 CURVE",
"498 525 OFFCURVE",
"531 531 OFFCURVE",
"564 557 CURVE",
"559 626 OFFCURVE",
"514 713 OFFCURVE",
"431 744 CURVE",
"264 716 OFFCURVE",
"164 605 OFFCURVE",
"108 535 CURVE",
"65 456 OFFCURVE",
"42 387 OFFCURVE",
"42 318 CURVE SMOOTH",
"44 164 OFFCURVE",
"111 51 OFFCURVE",
"307 0 CURVE",
"390 35 OFFCURVE",
"487 97 OFFCURVE",
"526 147 CURVE",
"528 168 OFFCURVE",
"511 197 OFFCURVE",
"478 189 CURVE",
"443 147 OFFCURVE",
"368 92 OFFCURVE",
"296 62 CURVE",
"174 108 OFFCURVE",
"116 178 OFFCURVE",
"116 319 CURVE SMOOTH",
"116 473 OFFCURVE",
"246 639 OFFCURVE",
"401 678 CURVE"
);
}
);
width = 580;
},
{
anchors = (
{
name = bottom;
position = "{421, 0}";
},
{
name = top;
position = "{445, 753}";
}
);
layerId = "A99E0968-31B7-4C8F-B576-AD2EC1F95564";
name = "Bold Italic";
paths = (
{
closed = 1;
nodes = (
"450 660 LINE",
"483 624 OFFCURVE",
"489 542 OFFCURVE",
"491 484 CURVE",
"586 437 OFFCURVE",
"700 484 OFFCURVE",
"719 537 CURVE",
"704 640 OFFCURVE",
"653 719 OFFCURVE",
"523 766 CURVE",
"380 748 OFFCURVE",
"271 710 OFFCURVE",
"152 605 CURVE",
"91 508 OFFCURVE",
"56 427 OFFCURVE",
"54 330 CURVE SMOOTH",
"51 158 OFFCURVE",
"168 28 OFFCURVE",
"381 0 CURVE",
"504 36 OFFCURVE",
"616 96 OFFCURVE",
"685 167 CURVE",
"687 220 OFFCURVE",
"668 254 OFFCURVE",
"610 250 CURVE",
"551 208 OFFCURVE",
"497 181 OFFCURVE",
"405 149 CURVE",
"328 191 OFFCURVE",
"290 250 OFFCURVE",
"291 350 CURVE SMOOTH",
"292 443 OFFCURVE",
"332 557 OFFCURVE",
"428 654 CURVE"
);
}
);
width = 725;
}
);
unicode = 0043;
},
{
glyphname = D;
lastChange = "2014-11-06 13:25:25 +0000";
layers = (
{
anchors = (
{
name = top;
position = "{323, 796}";
}
);
layerId = "5A85B07D-1A67-4978-877A-FA33898BA300";
name = "Light Italic";
paths = (
{
closed = 1;
nodes = (
"63 28 OFFCURVE",
"89 12 OFFCURVE",
"134 0 CURVE",
"225 1 OFFCURVE",
"306 16 OFFCURVE",
"381 41 CURVE",
"532 125 OFFCURVE",
"606 259 OFFCURVE",
"603 413 CURVE SMOOTH",
"599 596 OFFCURVE",
"486 735 OFFCURVE",
"285 735 CURVE SMOOTH",
"204 735 OFFCURVE",
"160 731 OFFCURVE",
"108 720 CURVE",
"96 702 OFFCURVE",
"95 674 OFFCURVE",
"125 654 CURVE",
"161 662 LINE",
"159 499 LINE",
"129 329 OFFCURVE",
"100 227 OFFCURVE",
"50 62 CURVE"
);
},
{
closed = 1;
nodes = (
"261 68 OFFCURVE",
"191 71 OFFCURVE",
"93 71 CURVE",
"146 43 LINE",
"189 355 LINE",
"207 443 OFFCURVE",
"237 575 OFFCURVE",
"266 705 CURVE",
"207 658 LINE",
"409 703 OFFCURVE",
"517 572 OFFCURVE",
"521 402 CURVE SMOOTH",
"523 275 OFFCURVE",
"476 177 OFFCURVE",
"357 92 CURVE"
);
}
);
width = 618;
},
{
anchors = (
{
name = top;
position = "{415, 753}";
}
);
layerId = "A99E0968-31B7-4C8F-B576-AD2EC1F95564";
name = "Bold Italic";
paths = (
{
closed = 1;
nodes = (
"55 61 OFFCURVE",
"123 19 OFFCURVE",
"191 0 CURVE",
"358 -4 OFFCURVE",
"478 25 OFFCURVE",
"574 57 CURVE",
"703 151 OFFCURVE",
"791 275 OFFCURVE",
"794 419 CURVE SMOOTH",
"798 615 OFFCURVE",
"679 753 OFFCURVE",
"431 753 CURVE SMOOTH",
"344 753 OFFCURVE",
"195 733 OFFCURVE",
"105 697 CURVE",
"79 671 OFFCURVE",
"79 626 OFFCURVE",
"122 588 CURVE",
"168 594 LINE",
"164 451 LINE",
"136 333 OFFCURVE",
"95 243 OFFCURVE",
"42 133 CURVE"
);
},
{
closed = 1;
nodes = (
"372 111 OFFCURVE",
"313 101 OFFCURVE",
"225 99 CURVE",
"283 72 LINE",
"315 320 LINE",
"364 473 OFFCURVE",
"395 583 OFFCURVE",
"427 684 CURVE",
"344 622 LINE",
"524 635 OFFCURVE",
"564 548 OFFCURVE",
"561 402 CURVE SMOOTH",
"559 300 OFFCURVE",
"502 200 OFFCURVE",
"416 131 CURVE"
);
}
);
width = 794;
}
);
unicode = 0044;
},
{
glyphname = Eth;
lastChange = "2014-11-06 13:25:25 +0000";
layers = (
{
components = (
{
name = D;
transform = "{1, 0, 0, 1, 0, 0}";
}
);
layerId = "5A85B07D-1A67-4978-877A-FA33898BA300";
name = "Light Italic";
paths = (
{
closed = 1;
nodes = (
"405 378 OFFCURVE",
"392 407 OFFCURVE",
"373 415 CURVE",
"166 395 LINE",
"30 405 LINE",
"11 394 OFFCURVE",
"12 363 OFFCURVE",
"39 345 CURVE",
"190 357 LINE",
"382 359 LINE"
);
}
);
width = 618;
},
{
components = (
{
name = D;
transform = "{1, 0, 0, 1, 32, 0}";
}
);
layerId = "A99E0968-31B7-4C8F-B576-AD2EC1F95564";
name = "Bold Italic";
paths = (
{
closed = 1;
nodes = (
"532 394 OFFCURVE",
"522 445 OFFCURVE",
"473 466 CURVE",
"205 408 LINE",
"63 427 LINE",
"28 390 OFFCURVE",
"24 342 OFFCURVE",
"79 293 CURVE",
"346 348 LINE",
"495 340 LINE"
);
}
);
width = 826;
}
);
unicode = 00D0;
},
{
glyphname = E;
lastChange = "2014-11-06 13:25:25 +0000";
layers = (
{
anchors = (
{
name = ogonek;
position = "{399, 0}";
},
{
name = top;
position = "{359, 796}";
}
);
layerId = "5A85B07D-1A67-4978-877A-FA33898BA300";
name = "Light Italic";
paths = (
{
closed = 1;
nodes = (
"337 669 OFFCURVE",
"394 663 OFFCURVE",
"438 656 CURVE",
"501 615 LINE",
"536 644 OFFCURVE",
"553 708 OFFCURVE",
"526 728 CURVE",
"352 730 OFFCURVE",
"249 726 OFFCURVE",
"135 715 CURVE",
"124 704 OFFCURVE",
"124 684 OFFCURVE",
"135 664 CURVE",
"152 663 OFFCURVE",
"170 660 OFFCURVE",
"181 653 CURVE",
"162 492 LINE",
"134 334 OFFCURVE",
"94 205 OFFCURVE",
"41 66 CURVE",
"42 33 OFFCURVE",
"71 13 OFFCURVE",
"118 0 CURVE",
"409 29 LINE",
"427 57 OFFCURVE",
"435 103 OFFCURVE",
"405 113 CURVE",
"324 97 OFFCURVE",
"230 80 OFFCURVE",
"127 67 CURVE",
"197 332 LINE",
"268 335 OFFCURVE",
"339 330 OFFCURVE",
"411 325 CURVE",
"431 355 OFFCURVE",
"433 390 OFFCURVE",
"422 408 CURVE",
"364 401 OFFCURVE",
"288 397 OFFCURVE",
"206 389 CURVE",
"235 552 LINE",
"264 661 LINE"
);
}
);
width = 497;
},
{
anchors = (
{
name = ogonek;
position = "{576, 0}";
},
{
name = top;
position = "{453, 753}";
}
);
layerId = "A99E0968-31B7-4C8F-B576-AD2EC1F95564";
name = "Bold Italic";
paths = (
{
closed = 1;
nodes = (
"465 639 OFFCURVE",
"497 636 OFFCURVE",
"541 636 CURVE",
"640 542 LINE",
"734 585 OFFCURVE",
"768 652 OFFCURVE",
"728 741 CURVE",
"489 758 OFFCURVE",
"353 755 OFFCURVE",
"109 735 CURVE",
"92 718 OFFCURVE",
"89 683 OFFCURVE",
"99 652 CURVE",
"129 645 OFFCURVE",
"152 637 OFFCURVE",
"173 629 CURVE",
"184 493 LINE",
"148 341 OFFCURVE",
"124 282 OFFCURVE",
"70 133 CURVE",
"76 66 OFFCURVE",
"130 24 OFFCURVE",
"233 0 CURVE",
"638 24 LINE",
"681 76 OFFCURVE",
"703 164 OFFCURVE",
"627 188 CURVE",
"526 161 OFFCURVE",
"400 139 OFFCURVE",
"301 123 CURVE",
"336 326 LINE",
"424 325 OFFCURVE",
"504 319 OFFCURVE",
"581 311 CURVE",
"606 355 OFFCURVE",
"623 417 OFFCURVE",
"580 450 CURVE",
"500 443 OFFCURVE",
"429 430 OFFCURVE",
"348 418 CURVE",
"374 554 LINE",
"405 628 LINE"
);
}
);
width = 727;
}
);
unicode = 0045;
},
{
glyphname = Eogonek;
lastChange = "2014-11-06 13:25:25 +0000";
layers = (
{
background = {
paths = (
{
closed = 1;
nodes = (
"406 -14 CURVE",
"410 1 OFFCURVE",
"398 9 OFFCURVE",
"370 9 CURVE",
"289 -8 OFFCURVE",
"244 -40 OFFCURVE",
"235 -95 CURVE SMOOTH",
"225 -154 OFFCURVE",
"289 -198 OFFCURVE",
"366 -198 CURVE SMOOTH",
"420 -198 OFFCURVE",
"465 -171 OFFCURVE",
"497 -137 CURVE",
"493 -119 OFFCURVE",
"484 -113 OFFCURVE",
"470 -112 CURVE",
"443 -135 OFFCURVE",
"407 -147 OFFCURVE",
"372 -147 CURVE SMOOTH",
"339 -147 OFFCURVE",
"312 -138 OFFCURVE",
"298 -113 CURVE",
"305 -62 OFFCURVE",
"343 -26 OFFCURVE"
);
}
);
};
components = (
{
name = E;
transform = "{1, 0, 0, 1, 0, 0}";
}
);
layerId = "5A85B07D-1A67-4978-877A-FA33898BA300";
name = "Light Italic";
paths = (
{
closed = 1;
nodes = (
"409 29 CURVE",
"413 44 OFFCURVE",
"401 52 OFFCURVE",
"373 52 CURVE",
"304 21 OFFCURVE",
"203 -38 OFFCURVE",
"203 -106 CURVE SMOOTH",
"203 -160 OFFCURVE",
"266 -198 OFFCURVE",
"336 -198 CURVE SMOOTH",
"394 -198 OFFCURVE",
"440 -171 OFFCURVE",
"467 -137 CURVE",
"465 -118 OFFCURVE",
"458 -111 OFFCURVE",
"440 -112 CURVE",
"411 -135 OFFCURVE",
"376 -150 OFFCURVE",
"341 -150 CURVE SMOOTH",
"299 -150 OFFCURVE",
"270 -135 OFFCURVE",
"256 -113 CURVE",
"260 -60 OFFCURVE",
"351 10 OFFCURVE"
);
}
);
width = 490;
},
{
background = {
paths = (
{
closed = 1;
nodes = (
"651 -7 CURVE",
"650 21 OFFCURVE",
"625 41 OFFCURVE",
"585 50 CURVE",
"457 40 OFFCURVE",
"341 -7 OFFCURVE",
"327 -108 CURVE SMOOTH",
"311 -212 OFFCURVE",
"414 -268 OFFCURVE",
"536 -268 CURVE SMOOTH",
"634 -268 OFFCURVE",
"703 -235 OFFCURVE",
"759 -175 CURVE",
"761 -145 OFFCURVE",
"746 -120 OFFCURVE",
"727 -119 CURVE",
"697 -145 OFFCURVE",
"654 -163 OFFCURVE",
"612 -163 CURVE SMOOTH",
"572 -163 OFFCURVE",
"538 -153 OFFCURVE",
"523 -122 CURVE",
"530 -61 OFFCURVE",
"596 -18 OFFCURVE"
);
}
);
};
components = (
{
name = E;
transform = "{1, 0, 0, 1, 0, 0}";
}
);
layerId = "A99E0968-31B7-4C8F-B576-AD2EC1F95564";
name = "Bold Italic";
paths = (
{
closed = 1;
nodes = (
"638 24 CURVE",
"644 60 OFFCURVE",
"622 80 OFFCURVE",
"606 84 CURVE",
"450 62 OFFCURVE",
"327 -45 OFFCURVE",
"327 -135 CURVE SMOOTH",
"327 -207 OFFCURVE",
"405 -268 OFFCURVE",
"516 -268 CURVE SMOOTH",
"604 -268 OFFCURVE",
"673 -235 OFFCURVE",
"729 -175 CURVE",
"731 -143 OFFCURVE",
"716 -118 OFFCURVE",
"682 -119 CURVE",
"643 -151 OFFCURVE",
"595 -167 OFFCURVE",
"552 -167 CURVE SMOOTH",
"522 -167 OFFCURVE",
"495 -159 OFFCURVE",
"474 -143 CURVE",
"496 -58 OFFCURVE",
"564 -6 OFFCURVE"
);
}
);
width = 727;
}
);
leftMetricsKey = E;
unicode = 0118;
},
{
glyphname = F;
lastChange = "2014-11-06 13:25:25 +0000";
layers = (
{
layerId = "5A85B07D-1A67-4978-877A-FA33898BA300";
name = "Light Italic";
paths = (
{
closed = 1;
nodes = (
"264 662 LINE",
"337 670 OFFCURVE",
"394 664 OFFCURVE",
"438 657 CURVE",
"501 616 LINE",
"536 645 OFFCURVE",
"553 710 OFFCURVE",
"526 729 CURVE",
"352 731 OFFCURVE",
"249 727 OFFCURVE",
"135 716 CURVE",
"124 705 OFFCURVE",
"124 685 OFFCURVE",
"135 665 CURVE",
"152 664 OFFCURVE",
"170 661 OFFCURVE",
"181 654 CURVE",
"173 518 LINE",
"143 354 OFFCURVE",
"120 222 OFFCURVE",
"68 28 CURVE",
"89 2 OFFCURVE",
"136 -5 OFFCURVE",
"162 3 CURVE",
"175 127 OFFCURVE",
"187 221 OFFCURVE",
"200 314 CURVE",
"271 318 OFFCURVE",
"342 313 OFFCURVE",
"415 308 CURVE",
"435 338 OFFCURVE",
"437 373 OFFCURVE",
"428 391 CURVE",
"369 382 OFFCURVE",
"294 380 OFFCURVE",
"211 372 CURVE",
"235 553 LINE"
);
}
);
width = 500;
},
{
layerId = "A99E0968-31B7-4C8F-B576-AD2EC1F95564";
name = "Bold Italic";
paths = (
{
closed = 1;
nodes = (
"405 628 LINE",
"465 639 OFFCURVE",
"497 636 OFFCURVE",
"541 636 CURVE",
"640 542 LINE",
"734 585 OFFCURVE",
"768 652 OFFCURVE",
"728 741 CURVE",
"489 758 OFFCURVE",
"353 755 OFFCURVE",
"109 735 CURVE",
"92 718 OFFCURVE",
"89 683 OFFCURVE",
"99 652 CURVE",
"129 645 OFFCURVE",
"152 637 OFFCURVE",
"173 629 CURVE",
"184 493 LINE",
"158 333 OFFCURVE",
"124 215 OFFCURVE",
"57 56 CURVE",
"97 0 OFFCURVE",
"265 -18 OFFCURVE",
"319 30 CURVE",
"319 152 OFFCURVE",
"320 213 OFFCURVE",
"330 302 CURVE",
"424 301 OFFCURVE",
"503 297 OFFCURVE",
"574 286 CURVE",
"609 338 OFFCURVE",
"610 404 OFFCURVE",
"575 426 CURVE",
"504 419 OFFCURVE",
"420 407 OFFCURVE",
"343 393 CURVE",
"374 554 LINE"
);
}
);
width = 697;
}
);
unicode = 0046;
},
{
glyphname = G;
lastChange = "2014-11-06 13:25:25 +0000";
layers = (
{
anchors = (
{
name = bottom;
position = "{325, 0}";
},
{
name = top;
position = "{458, 796}";
}
);
layerId = "5A85B07D-1A67-4978-877A-FA33898BA300";
name = "Light Italic";
paths = (
{
closed = 1;
nodes = (
"519 247 LINE",
"505 181 OFFCURVE",
"460 85 OFFCURVE",
"431 26 CURVE",
"442 6 OFFCURVE",
"470 -2 OFFCURVE",
"498 0 CURVE",
"554 168 OFFCURVE",
"595 284 OFFCURVE",
"553 366 CURVE",
"476 354 OFFCURVE",
"383 356 OFFCURVE",
"326 366 CURVE",
"300 348 OFFCURVE",
"306 315 OFFCURVE",
"328 287 CURVE",
"494 315 LINE",
"498 310 LINE",
"453 211 OFFCURVE",
"380 124 OFFCURVE",
"309 62 CURVE",
"187 116 OFFCURVE",
"129 162 OFFCURVE",
"129 306 CURVE SMOOTH",
"129 473 OFFCURVE",
"259 637 OFFCURVE",
"414 676 CURVE",
"429 677 LINE",
"465 635 OFFCURVE",
"475 594 OFFCURVE",
"481 534 CURVE",
"511 523 OFFCURVE",
"544 529 OFFCURVE",
"577 555 CURVE",
"572 624 OFFCURVE",
"527 711 OFFCURVE",
"444 742 CURVE",
"276 714 OFFCURVE",
"177 613 OFFCURVE",
"121 522 CURVE",
"89 464 OFFCURVE",
"54 374 OFFCURVE",
"55 305 CURVE SMOOTH",
"57 148 OFFCURVE",
"124 58 OFFCURVE",
"320 0 CURVE",
"411 63 OFFCURVE",
"476 160 OFFCURVE",
"511 249 CURVE"
);
}
);
width = 616;
},
{
anchors = (
{
name = bottom;
position = "{401, 0}";
},
{
name = top;
position = "{476, 753}";
}
);
layerId = "A99E0968-31B7-4C8F-B576-AD2EC1F95564";
name = "Bold Italic";
paths = (
{
closed = 1;
nodes = (
"592 211 LINE",
"580 171 OFFCURVE",
"557 106 OFFCURVE",
"525 40 CURVE",
"547 1 OFFCURVE",
"608 -12 OFFCURVE",
"660 14 CURVE",
"736 215 OFFCURVE",
"757 322 OFFCURVE",
"698 397 CURVE",
"607 389 OFFCURVE",
"500 396 OFFCURVE",
"410 407 CURVE",
"367 369 OFFCURVE",
"376 293 OFFCURVE",
"422 267 CURVE",
"538 291 LINE",
"542 285 LINE",
"496 224 OFFCURVE",
"442 179 OFFCURVE",
"380 134 CURVE",
"316 191 OFFCURVE",
"277 255 OFFCURVE",
"279 349 CURVE SMOOTH",
"285 473 OFFCURVE",
"354 566 OFFCURVE",
"456 660 CURVE",
"471 660 LINE",
"521 611 OFFCURVE",
"524 556 OFFCURVE",
"534 490 CURVE",
"627 425 OFFCURVE",
"735 493 OFFCURVE",
"751 569 CURVE",
"715 660 OFFCURVE",
"680 719 OFFCURVE",
"492 761 CURVE",
"388 744 OFFCURVE",
"231 684 OFFCURVE",
"138 590 CURVE",
"92 536 OFFCURVE",
"46 436 OFFCURVE",
"44 330 CURVE SMOOTH",
"41 172 OFFCURVE",
"139 27 OFFCURVE",
"385 0 CURVE",
"474 69 OFFCURVE",
"542 140 OFFCURVE",
"585 217 CURVE"
);
}
);
width = 769;
}
);
unicode = 0047;
},
{
glyphname = Gcommaaccent;
lastChange = "2014-11-06 13:25:25 +0000";
layers = (
{
components = (
{
name = G;
transform = "{1, 0, 0, 1, 0, 0}";
}
);
layerId = "5A85B07D-1A67-4978-877A-FA33898BA300";
name = "Light Italic";
paths = (
{
closed = 1;
nodes = (
"229 -242 OFFCURVE",
"243 -246 OFFCURVE",
"254 -245 CURVE",
"296 -207 OFFCURVE",
"351 -136 OFFCURVE",
"358 -70 CURVE",
"342 -26 OFFCURVE",
"295 -2 OFFCURVE",
"253 -36 CURVE",
"276 -148 LINE",
"222 -231 LINE"
);
}
);
width = 616;
},
{
components = (
{
name = G;
transform = "{1, 0, 0, 1, 0, 0}";
}
);
layerId = "A99E0968-31B7-4C8F-B576-AD2EC1F95564";
name = "Bold Italic";
paths = (
{
closed = 1;
nodes = (
"241 -340 OFFCURVE",
"263 -354 OFFCURVE",
"303 -355 CURVE",
"419 -269 OFFCURVE",
"467 -177 OFFCURVE",
"473 -86 CURVE",
"456 -38 OFFCURVE",
"372 20 OFFCURVE",
"278 -51 CURVE",
"295 -220 LINE",
"232 -313 LINE"
);
}
);
width = 769;
}
);
unicode = 0122;
},
{
glyphname = H;
lastChange = "2014-11-06 13:25:25 +0000";
layers = (
{
layerId = "5A85B07D-1A67-4978-877A-FA33898BA300";
name = "Light Italic";
paths = (
{
closed = 1;
nodes = (
"374 390 LINE",
"78 379 LINE",
"57 357 OFFCURVE",
"53 330 OFFCURVE",
"68 309 CURVE",
"207 330 LINE",
"626 362 LINE",
"649 391 OFFCURVE",
"651 421 OFFCURVE",
"635 432 CURVE"
);
},
{
closed = 1;
nodes = (
"279 726 LINE",
"266 732 OFFCURVE",
"255 735 OFFCURVE",
"243 735 CURVE SMOOTH",
"222 735 OFFCURVE",
"202 727 OFFCURVE",
"174 710 CURVE",
"159 497 LINE",
"127 302 OFFCURVE",
"105 217 OFFCURVE",
"59 31 CURVE",
"77 2 OFFCURVE",
"113 -4 OFFCURVE",
"154 0 CURVE",
"171 154 OFFCURVE",
"194 299 OFFCURVE",
"204 401 CURVE"
);
},
{
closed = 1;
nodes = (
"632 726 LINE",
"619 732 OFFCURVE",
"608 735 OFFCURVE",
"596 735 CURVE SMOOTH",
"576 735 OFFCURVE",
"555 727 OFFCURVE",
"527 710 CURVE",
"512 497 LINE",
"481 302 OFFCURVE",
"458 217 OFFCURVE",
"413 31 CURVE",
"430 2 OFFCURVE",
"467 -4 OFFCURVE",
"508 0 CURVE",
"524 154 OFFCURVE",
"548 299 OFFCURVE",
"557 401 CURVE"
);
}
);
width = 669;
},
{
layerId = "A99E0968-31B7-4C8F-B576-AD2EC1F95564";
name = "Bold Italic";
paths = (
{
closed = 1;
nodes = (
"369 415 LINE",
"63 426 LINE",
"27 376 OFFCURVE",
"28 346 OFFCURVE",
"59 309 CURVE",
"334 331 LINE",
"854 367 LINE",
"885 424 OFFCURVE",
"887 459 OFFCURVE",
"852 481 CURVE"
);
},
{
closed = 1;
nodes = (
"437 735 LINE",
"412 747 OFFCURVE",
"381 753 OFFCURVE",
"344 753 CURVE SMOOTH",
"294 753 OFFCURVE",
"233 740 OFFCURVE",
"173 711 CURVE",
"176 545 LINE",
"146 378 OFFCURVE",
"110 204 OFFCURVE",
"54 56 CURVE",
"79 3 OFFCURVE",
"253 -22 OFFCURVE",
"315 31 CURVE",
"327 194 OFFCURVE",
"331 343 OFFCURVE",
"342 460 CURVE"
);
},
{
closed = 1;
nodes = (
"857 735 LINE",
"832 747 OFFCURVE",
"801 753 OFFCURVE",
"764 753 CURVE SMOOTH",
"714 753 OFFCURVE",
"653 740 OFFCURVE",
"593 711 CURVE",
"596 545 LINE",
"566 378 OFFCURVE",
"530 204 OFFCURVE",
"474 56 CURVE",
"499 3 OFFCURVE",
"673 -22 OFFCURVE",
"735 31 CURVE",
"747 194 OFFCURVE",
"751 343 OFFCURVE",
"762 460 CURVE"
);
}
);
width = 861;
}
);
unicode = 0048;
},
{
glyphname = I;
lastChange = "2014-11-06 13:25:25 +0000";
layers = (
{
anchors = (
{
name = ogonek;
position = "{114, 0}";
},
{
name = top;
position = "{194, 796}";
}
);
layerId = "5A85B07D-1A67-4978-877A-FA33898BA300";
name = "Light Italic";
paths = (
{
closed = 1;
nodes = (
"122 497 LINE",
"91 302 OFFCURVE",
"68 217 OFFCURVE",
"23 31 CURVE",
"40 2 OFFCURVE",
"77 -4 OFFCURVE",
"118 0 CURVE",
"134 154 OFFCURVE",
"158 299 OFFCURVE",
"167 401 CURVE",
"242 726 LINE",
"229 732 OFFCURVE",
"218 735 OFFCURVE",
"206 735 CURVE SMOOTH",
"186 735 OFFCURVE",
"165 727 OFFCURVE",
"137 710 CURVE"
);
}
);
width = 225;
},
{
anchors = (
{
name = ogonek;
position = "{219, 0}";
},
{
name = top;
position = "{272, 753}";
}
);
layerId = "A99E0968-31B7-4C8F-B576-AD2EC1F95564";
name = "Bold Italic";
paths = (
{
closed = 1;
nodes = (
"133 545 LINE",
"103 378 OFFCURVE",
"67 204 OFFCURVE",
"11 56 CURVE",
"36 3 OFFCURVE",
"210 -22 OFFCURVE",
"272 31 CURVE",
"284 194 OFFCURVE",
"288 343 OFFCURVE",
"299 460 CURVE",
"394 735 LINE",
"369 747 OFFCURVE",
"338 753 OFFCURVE",
"301 753 CURVE SMOOTH",
"251 753 OFFCURVE",
"190 740 OFFCURVE",
"130 711 CURVE"
);
}
);
width = 356;
}
);
unicode = 0049;
},
{
glyphname = Iogonek;
lastChange = "2014-11-06 13:25:25 +0000";
layers = (
{
background = {
paths = (
{
closed = 1;
nodes = (
"121 -14 CURVE",
"125 1 OFFCURVE",
"113 9 OFFCURVE",
"85 9 CURVE",
"4 -8 OFFCURVE",
"-41 -40 OFFCURVE",
"-50 -95 CURVE SMOOTH",
"-60 -154 OFFCURVE",
"4 -198 OFFCURVE",
"81 -198 CURVE SMOOTH",
"135 -198 OFFCURVE",
"180 -171 OFFCURVE",
"212 -137 CURVE",
"208 -119 OFFCURVE",
"199 -113 OFFCURVE",
"185 -112 CURVE",
"158 -135 OFFCURVE",
"122 -147 OFFCURVE",
"87 -147 CURVE SMOOTH",
"54 -147 OFFCURVE",
"27 -138 OFFCURVE",
"13 -113 CURVE",
"20 -62 OFFCURVE",
"58 -26 OFFCURVE"
);
}
);
};
components = (
{
name = I;
transform = "{1, 0, 0, 1, 0, 0}";
}
);
layerId = "5A85B07D-1A67-4978-877A-FA33898BA300";
name = "Light Italic";
paths = (
{
closed = 1;
nodes = (
"118 0 CURVE",
"118 15 OFFCURVE",
"107 23 OFFCURVE",
"89 23 CURVE",
"5 -3 OFFCURVE",
"-40 -62 OFFCURVE",
"-40 -112 CURVE SMOOTH",
"-40 -158 OFFCURVE",
"-1 -198 OFFCURVE",
"81 -198 CURVE SMOOTH",
"135 -198 OFFCURVE",
"180 -171 OFFCURVE",
"212 -137 CURVE",
"208 -119 OFFCURVE",
"199 -113 OFFCURVE",
"185 -112 CURVE",
"159 -137 OFFCURVE",
"120 -151 OFFCURVE",
"83 -151 CURVE SMOOTH",
"56 -151 OFFCURVE",
"29 -143 OFFCURVE",
"11 -125 CURVE",
"12 -65 OFFCURVE",
"64 -22 OFFCURVE"
);
}
);
width = 225;
},
{
background = {
paths = (
{
closed = 1;
nodes = (
"294 -7 CURVE",
"293 21 OFFCURVE",
"268 41 OFFCURVE",
"228 50 CURVE",
"100 40 OFFCURVE",
"-16 -7 OFFCURVE",
"-30 -108 CURVE SMOOTH",
"-46 -212 OFFCURVE",
"57 -268 OFFCURVE",
"179 -268 CURVE SMOOTH",
"277 -268 OFFCURVE",
"346 -235 OFFCURVE",
"402 -175 CURVE",
"404 -145 OFFCURVE",
"389 -120 OFFCURVE",
"370 -119 CURVE",
"340 -145 OFFCURVE",
"297 -163 OFFCURVE",
"255 -163 CURVE SMOOTH",
"215 -163 OFFCURVE",
"181 -153 OFFCURVE",
"166 -122 CURVE",
"173 -61 OFFCURVE",
"239 -18 OFFCURVE"
);
}
);
};
components = (
{
name = I;
transform = "{1, 0, 0, 1, 0, 0}";
}
);
layerId = "A99E0968-31B7-4C8F-B576-AD2EC1F95564";
name = "Bold Italic";
paths = (
{
closed = 1;
nodes = (
"247 16 CURVE",
"249 45 OFFCURVE",
"240 66 OFFCURVE",
"199 65 CURVE",
"94 49 OFFCURVE",
"-41 -31 OFFCURVE",
"-41 -137 CURVE SMOOTH",
"-41 -207 OFFCURVE",
"46 -270 OFFCURVE",
"149 -270 CURVE SMOOTH",
"233 -270 OFFCURVE",
"320 -238 OFFCURVE",
"362 -175 CURVE",
"374 -140 OFFCURVE",
"357 -116 OFFCURVE",
"310 -119 CURVE",
"273 -148 OFFCURVE",
"231 -162 OFFCURVE",
"193 -162 CURVE SMOOTH",
"159 -162 OFFCURVE",
"128 -151 OFFCURVE",
"106 -129 CURVE",
"114 -64 OFFCURVE",
"211 1 OFFCURVE"
);
}
);
width = 356;
}
);
leftMetricsKey = I;
unicode = 012E;
},
{
glyphname = J;
lastChange = "2014-11-06 13:25:25 +0000";
layers = (
{
layerId = "5A85B07D-1A67-4978-877A-FA33898BA300";
name = "Light Italic";
paths = (
{
closed = 1;
nodes = (
"415 728 OFFCURVE",
"298 724 OFFCURVE",
"124 715 CURVE",
"111 698 OFFCURVE",
"109 681 OFFCURVE",
"133 657 CURVE",
"350 676 LINE",
"588 660 LINE",
"613 683 OFFCURVE",
"617 710 OFFCURVE",
"603 721 CURVE"
);
},
{
closed = 1;
nodes = (
"309 183 OFFCURVE",
"325 292 OFFCURVE",
"336 389 CURVE",
"410 703 LINE",
"388 715 OFFCURVE",
"356 713 OFFCURVE",
"309 688 CURVE",
"299 505 LINE",
"269 333 OFFCURVE",
"242 221 OFFCURVE",
"208 67 CURVE",
"194 60 LINE",
"147 103 OFFCURVE",
"114 160 OFFCURVE",
"108 224 CURVE",
"82 240 OFFCURVE",
"50 224 OFFCURVE",
"28 189 CURVE",
"38 129 OFFCURVE",
"91 49 OFFCURVE",
"176 0 CURVE",
"221 0 OFFCURVE",
"276 19 OFFCURVE",
"295 60 CURVE"
);
}
);
width = 532;
},
{
layerId = "A99E0968-31B7-4C8F-B576-AD2EC1F95564";
name = "Bold Italic";
paths = (
{
closed = 1;
nodes = (
"523 760 OFFCURVE",
"400 756 OFFCURVE",
"141 735 CURVE",
"120 685 OFFCURVE",
"124 641 OFFCURVE",
"168 584 CURVE",
"552 635 LINE",
"766 589 LINE",
"820 667 OFFCURVE",
"812 711 OFFCURVE",
"789 741 CURVE"
);
},
{
closed = 1;
nodes = (
"527 262 OFFCURVE",
"528 318 OFFCURVE",
"533 443 CURVE",
"586 657 LINE",
"528 730 OFFCURVE",
"438 728 OFFCURVE",
"381 682 CURVE",
"383 540 LINE",
"369 378 OFFCURVE",
"344 279 OFFCURVE",
"308 127 CURVE",
"285 119 LINE",
"259 164 OFFCURVE",
"251 184 OFFCURVE",
"236 260 CURVE",
"164 299 OFFCURVE",
"79 272 OFFCURVE",
"15 195 CURVE",
"58 100 OFFCURVE",
"122 45 OFFCURVE",
"201 8 CURVE",
"373 -19 OFFCURVE",
"460 21 OFFCURVE",
"527 101 CURVE"
);
}
);
width = 744;
}
);
unicode = 004A;
},
{
glyphname = K;
lastChange = "2014-11-06 13:25:25 +0000";
layers = (
{
anchors = (
{
name = bottom;
position = "{275, 0}";
}
);
layerId = "5A85B07D-1A67-4978-877A-FA33898BA300";
name = "Light Italic";
paths = (
{
closed = 1;
nodes = (
"136 497 LINE",
"105 302 OFFCURVE",
"82 217 OFFCURVE",
"37 31 CURVE",
"54 2 OFFCURVE",
"91 -4 OFFCURVE",
"132 0 CURVE",
"148 154 OFFCURVE",
"172 299 OFFCURVE",
"181 401 CURVE",
"256 726 LINE",
"243 732 OFFCURVE",
"232 735 OFFCURVE",
"220 735 CURVE SMOOTH",
"200 735 OFFCURVE",
"179 727 OFFCURVE",
"151 710 CURVE"
);
},
{
closed = 1;
nodes = (
"163 335 LINE",
"195 360 LINE",
"257 210 OFFCURVE",
"356 63 OFFCURVE",
"470 0 CURVE",
"509 15 OFFCURVE",
"528 40 OFFCURVE",
"515 76 CURVE",
"360 140 OFFCURVE",
"278 269 OFFCURVE",
"233 389 CURVE",
"210 364 LINE",
"342 440 OFFCURVE",
"525 607 OFFCURVE",
"592 687 CURVE",
"584 715 OFFCURVE",
"572 730 OFFCURVE",
"536 735 CURVE",
"314 484 LINE",
"148 370 LINE"
);
}
);
width = 588;
},
{
anchors = (
{
name = bottom;
position = "{414, 0}";
}
);
layerId = "A99E0968-31B7-4C8F-B576-AD2EC1F95564";
name = "Bold Italic";
paths = (
{
closed = 1;
nodes = (
"143 545 LINE",
"113 378 OFFCURVE",
"77 204 OFFCURVE",
"21 56 CURVE",
"46 3 OFFCURVE",
"220 -22 OFFCURVE",
"282 31 CURVE",
"294 194 OFFCURVE",
"298 343 OFFCURVE",
"309 460 CURVE",
"407 747 LINE",
"382 759 OFFCURVE",
"351 765 OFFCURVE",
"314 765 CURVE SMOOTH",
"264 765 OFFCURVE",
"203 752 OFFCURVE",
"143 723 CURVE"
);
},
{
closed = 1;
nodes = (
"275 319 LINE",
"334 348 LINE",
"332 201 OFFCURVE",
"401 76 OFFCURVE",
"552 0 CURVE",
"682 29 OFFCURVE",
"721 139 OFFCURVE",
"683 197 CURVE",
"526 211 OFFCURVE",
"444 272 OFFCURVE",
"394 405 CURVE",
"365 363 LINE",
"495 439 OFFCURVE",
"649 526 OFFCURVE",
"751 600 CURVE",
"761 690 OFFCURVE",
"701 750 OFFCURVE",
"574 765 CURVE",
"432 510 LINE",
"238 386 LINE"
);
}
);
width = 752;
}
);
unicode = 004B;
},
{
glyphname = Kcommaaccent;
lastChange = "2014-11-06 13:25:25 +0000";
layers = (
{
components = (
{
name = K;
transform = "{1, 0, 0, 1, 0, 0}";
}
);
layerId = "5A85B07D-1A67-4978-877A-FA33898BA300";
name = "Light Italic";
paths = (
{
closed = 1;
nodes = (
"176 -242 OFFCURVE",
"190 -246 OFFCURVE",
"201 -245 CURVE",
"243 -207 OFFCURVE",
"298 -136 OFFCURVE",
"305 -70 CURVE",
"289 -26 OFFCURVE",
"242 -2 OFFCURVE",
"200 -36 CURVE",
"223 -148 LINE",
"169 -231 LINE"
);
}
);
width = 588;
},
{
components = (
{
name = K;
transform = "{1, 0, 0, 1, 0, 0}";
}
);
layerId = "A99E0968-31B7-4C8F-B576-AD2EC1F95564";
name = "Bold Italic";
paths = (
{
closed = 1;
nodes = (
"231 -340 OFFCURVE",
"253 -354 OFFCURVE",
"293 -355 CURVE",
"409 -269 OFFCURVE",
"457 -177 OFFCURVE",
"463 -86 CURVE",
"446 -38 OFFCURVE",
"362 20 OFFCURVE",
"268 -51 CURVE",
"285 -220 LINE",
"222 -313 LINE"
);
}
);
width = 752;
}
);
unicode = 0136;
},
{
glyphname = L;
lastChange = "2014-11-06 13:25:25 +0000";
layers = (
{
anchors = (
{
name = bottom;
position = "{229, 0}";
},
{
name = top;
position = "{173, 796}";
}
);
layerId = "5A85B07D-1A67-4978-877A-FA33898BA300";
name = "Light Italic";
paths = (
{
closed = 1;
nodes = (
"208 744 OFFCURVE",
"181 737 OFFCURVE",
"137 710 CURVE",
"124 497 LINE",
"93 334 OFFCURVE",
"65 203 OFFCURVE",
"12 63 CURVE",
"13 31 OFFCURVE",
"42 12 OFFCURVE",
"89 0 CURVE",
"391 31 LINE",
"408 57 OFFCURVE",
"416 100 OFFCURVE",
"387 111 CURVE",
"306 95 OFFCURVE",
"201 76 OFFCURVE",
"98 64 CURVE",
"164 374 LINE",
"242 726 LINE SMOOTH"
);
}
);
width = 446;
},
{
anchors = (
{
name = bottom;
position = "{384, 0}";
},
{
name = top;
position = "{285, 753}";
}
);
layerId = "A99E0968-31B7-4C8F-B576-AD2EC1F95564";
name = "Bold Italic";
paths = (
{
closed = 1;
nodes = (
"353 767 OFFCURVE",
"246 755 OFFCURVE",
"155 711 CURVE",
"157 541 LINE",
"127 403 OFFCURVE",
"89 277 OFFCURVE",
"35 132 CURVE",
"54 69 OFFCURVE",
"120 25 OFFCURVE",
"195 0 CURVE",
"559 44 LINE",
"590 79 OFFCURVE",
"609 167 OFFCURVE",
"540 196 CURVE",
"450 168 OFFCURVE",
"376 146 OFFCURVE",
"276 127 CURVE",
"314 434 LINE",
"419 735 LINE"
);
}
);
width = 631;
}
);
unicode = 004C;
},
{
glyphname = Lcaron;
lastChange = "2014-11-06 13:25:25 +0000";
layers = (
{
background = {
paths = (
{
closed = 1;
nodes = (
"357 652 CURVE",
"399 690 OFFCURVE",
"454 761 OFFCURVE",
"461 827 CURVE",
"445 871 OFFCURVE",
"398 895 OFFCURVE",
"356 861 CURVE",
"379 749 LINE",
"325 666 LINE",
"332 655 OFFCURVE",
"346 651 OFFCURVE"
);
}
);
};
components = (
{
name = L;
transform = "{1, 0, 0, 1, 0, 0}";
}
);
layerId = "5A85B07D-1A67-4978-877A-FA33898BA300";
name = "Light Italic";
paths = (
{
closed = 1;
nodes = (
"337 602 CURVE",
"379 640 OFFCURVE",
"434 711 OFFCURVE",
"441 777 CURVE",
"425 821 OFFCURVE",
"378 845 OFFCURVE",
"336 811 CURVE",
"359 699 LINE",
"305 616 LINE",
"312 605 OFFCURVE",
"326 601 OFFCURVE"
);
}
);
width = 446;
},
{
background = {
paths = (
{
closed = 1;
nodes = (
"532 581 CURVE",
"648 667 OFFCURVE",
"696 759 OFFCURVE",
"702 850 CURVE",
"685 898 OFFCURVE",
"601 956 OFFCURVE",
"507 885 CURVE",
"524 716 LINE",
"461 623 LINE",
"470 596 OFFCURVE",
"492 582 OFFCURVE"
);
}
);
};
components = (
{
name = L;
transform = "{1, 0, 0, 1, 0, 0}";
}
);
layerId = "A99E0968-31B7-4C8F-B576-AD2EC1F95564";
name = "Bold Italic";
paths = (
{
closed = 1;
nodes = (
"522 521 CURVE",
"638 607 OFFCURVE",
"686 699 OFFCURVE",
"692 790 CURVE",
"675 838 OFFCURVE",
"591 896 OFFCURVE",
"497 825 CURVE",
"514 656 LINE",
"451 563 LINE",
"460 536 OFFCURVE",
"482 522 OFFCURVE"
);
}
);
width = 631;
},
{
associatedMasterId = "5A85B07D-1A67-4978-877A-FA33898BA300";
background = {
components = (
{
name = L;
transform = "{1, 0, 0, 1, 0, 0}";
}
);
paths = (
{
closed = 1;
nodes = (
"353 644 CURVE",
"400 686 OFFCURVE",
"462 767 OFFCURVE",
"470 841 CURVE",
"452 891 OFFCURVE",
"399 918 OFFCURVE",
"352 879 CURVE",
"378 753 LINE",
"317 659 LINE",
"325 647 OFFCURVE",
"340 643 OFFCURVE"
);
}
);
};
components = (
{
name = L;
transform = "{1, 0, 0, 1, 0, 0}";
}
);
layerId = "9AE67237-43CE-4676-8FD0-BFB4664FD5B4";
name = "Light Italic Oct 28 14, 11:17";
paths = (
{
closed = 1;
nodes = (
"357 652 CURVE",
"399 690 OFFCURVE",
"454 761 OFFCURVE",
"461 827 CURVE",
"445 871 OFFCURVE",
"398 895 OFFCURVE",
"356 861 CURVE",
"379 749 LINE",
"325 666 LINE",
"332 655 OFFCURVE",
"346 651 OFFCURVE"
);
}
);
width = 446;
},
{
associatedMasterId = "A99E0968-31B7-4C8F-B576-AD2EC1F95564";
background = {
paths = (
{
closed = 1;
nodes = (
"527 549 CURVE",
"654 643 OFFCURVE",
"706 744 OFFCURVE",
"713 843 CURVE",
"694 895 OFFCURVE",
"602 959 OFFCURVE",
"500 881 CURVE",
"518 697 LINE",
"450 595 LINE",
"459 566 OFFCURVE",
"483 551 OFFCURVE"
);
}
);
};
components = (
{
name = L;
transform = "{1, 0, 0, 1, 0, 0}";
}
);
layerId = "E7AF5FF8-B946-43CA-87D8-F462FE1EE37E";
name = "Bold Italic Oct 28 14, 11:17";
paths = (
{
closed = 1;
nodes = (
"532 581 CURVE",
"648 667 OFFCURVE",
"696 759 OFFCURVE",
"702 850 CURVE",
"685 898 OFFCURVE",
"601 956 OFFCURVE",
"507 885 CURVE",
"524 716 LINE",
"461 623 LINE",
"470 596 OFFCURVE",
"492 582 OFFCURVE"
);
}
);
width = 631;
}
);
unicode = 013D;
},
{
glyphname = Lcommaaccent;
lastChange = "2014-11-06 13:25:25 +0000";
layers = (
{
components = (
{
name = L;
transform = "{1, 0, 0, 1, 0, 0}";
}
);
layerId = "5A85B07D-1A67-4978-877A-FA33898BA300";
name = "Light Italic";
paths = (
{
closed = 1;
nodes = (
"126 -242 OFFCURVE",
"140 -246 OFFCURVE",
"151 -245 CURVE",
"193 -207 OFFCURVE",
"248 -136 OFFCURVE",
"255 -70 CURVE",
"239 -26 OFFCURVE",
"192 -2 OFFCURVE",
"150 -36 CURVE",
"173 -148 LINE",
"119 -231 LINE"
);
}
);
width = 446;
},
{
components = (
{
name = L;
transform = "{1, 0, 0, 1, 0, 0}";
}
);
layerId = "A99E0968-31B7-4C8F-B576-AD2EC1F95564";
name = "Bold Italic";
paths = (
{
closed = 1;
nodes = (
"171 -340 OFFCURVE",
"193 -354 OFFCURVE",
"233 -355 CURVE",
"349 -269 OFFCURVE",
"397 -177 OFFCURVE",
"403 -86 CURVE",
"386 -38 OFFCURVE",
"302 20 OFFCURVE",
"208 -51 CURVE",
"225 -220 LINE",
"162 -313 LINE"
);
}
);
width = 631;
}
);
unicode = 013B;
},
{
glyphname = Lslash;
lastChange = "2014-11-06 13:25:25 +0000";
layers = (
{
background = {
paths = (
{
closed = 1;
nodes = (
"379 394 OFFCURVE",
"364 423 OFFCURVE",
"345 428 CURVE",
"161 388 LINE",
"52 391 LINE",
"32 378 OFFCURVE",
"37 348 OFFCURVE",
"66 332 CURVE",
"188 352 LINE",
"360 373 LINE"
);
}
);
};
components = (
{
name = L;
transform = "{1, 0, 0, 1, 55, 0}";
}
);
layerId = "5A85B07D-1A67-4978-877A-FA33898BA300";
name = "Light Italic";
paths = (
{
closed = 1;
nodes = (
"369 414 OFFCURVE",
"351 441 OFFCURVE",
"332 444 CURVE",
"153 385 LINE",
"44 376 LINE",
"26 361 OFFCURVE",
"34 332 OFFCURVE",
"64 319 CURVE",
"184 352 LINE",
"352 391 LINE"
);
}
);
width = 501;
},
{
background = {
paths = (
{
closed = 1;
nodes = (
"637 435 OFFCURVE",
"621 485 OFFCURVE",
"573 507 CURVE",
"217 447 LINE",
"76 465 LINE",
"50 442 OFFCURVE",
"45 392 OFFCURVE",
"88 344 CURVE",
"385 385 LINE",
"583 381 LINE"
);
}
);
};
components = (
{
name = L;
transform = "{1, 0, 0, 1, 80, 0}";
}
);
layerId = "A99E0968-31B7-4C8F-B576-AD2EC1F95564";
name = "Bold Italic";
paths = (
{
closed = 1;
nodes = (
"630 488 OFFCURVE",
"604 534 OFFCURVE",
"553 546 CURVE",
"237 437 LINE",
"34 430 LINE",
"13 402 OFFCURVE",
"17 343 OFFCURVE",
"69 304 CURVE",
"360 403 LINE",
"587 425 LINE"
);
}
);
width = 711;
},
{
associatedMasterId = "A99E0968-31B7-4C8F-B576-AD2EC1F95564";
components = (
{
name = L;
transform = "{1, 0, 0, 1, 80, 0}";
}
);
layerId = "95ACEB79-F59F-4E0A-AB25-D981022730A5";
name = "Bold Italic Oct 28 14, 11:14";
paths = (
{
closed = 1;
nodes = (
"637 435 OFFCURVE",
"621 485 OFFCURVE",
"573 507 CURVE",
"217 447 LINE",
"76 465 LINE",
"50 442 OFFCURVE",
"45 392 OFFCURVE",
"88 344 CURVE",
"385 385 LINE",
"583 381 LINE"
);
}
);
width = 711;
},
{
associatedMasterId = "5A85B07D-1A67-4978-877A-FA33898BA300";
components = (
{
name = L;
transform = "{1, 0, 0, 1, 55, 0}";
}
);
layerId = "0125EDEC-175A-482E-8EE0-5A50334B816A";
name = "Light Italic Oct 28 14, 11:16";
paths = (
{
closed = 1;
nodes = (
"379 394 OFFCURVE",
"364 423 OFFCURVE",
"345 428 CURVE",
"161 388 LINE",
"52 391 LINE",
"32 378 OFFCURVE",
"37 348 OFFCURVE",
"66 332 CURVE",
"188 352 LINE",
"360 373 LINE"
);
}
);
width = 501;
}
);
unicode = 0141;
},
{
glyphname = M;
lastChange = "2014-11-06 13:25:25 +0000";
layers = (
{
layerId = "5A85B07D-1A67-4978-877A-FA33898BA300";
name = "Light Italic";
paths = (
{
closed = 1;
nodes = (
"220 364 OFFCURVE",
"194 505 OFFCURVE",
"177 630 CURVE",
"202 624 LINE",
"158 401 LINE",
"148 299 OFFCURVE",
"124 154 OFFCURVE",
"108 0 CURVE",
"67 -4 OFFCURVE",
"30 2 OFFCURVE",
"13 31 CURVE",
"58 217 OFFCURVE",
"81 302 OFFCURVE",
"112 497 CURVE",
"127 720 LINE",
"146 730 OFFCURVE",
"166 734 OFFCURVE",
"185 734 CURVE SMOOTH",
"202 734 OFFCURVE",
"217 730 OFFCURVE",
"226 719 CURVE",
"235 607 OFFCURVE",
"262 437 OFFCURVE",
"298 340 CURVE",
"364 247 LINE",
"338 237 LINE",
"501 494 LINE",
"618 723 LINE",
"632 728 OFFCURVE",
"652 735 OFFCURVE",
"674 735 CURVE SMOOTH",
"687 735 OFFCURVE",
"700 733 OFFCURVE",
"712 726 CURVE",
"637 401 LINE",
"627 299 OFFCURVE",
"604 154 OFFCURVE",
"588 0 CURVE",
"546 -4 OFFCURVE",
"510 2 OFFCURVE",
"492 31 CURVE",
"536 207 OFFCURVE",
"557 294 OFFCURVE",
"592 497 CURVE",
"595 620 LINE",
"618 599 LINE",
"389 206 LINE",
"346 197 OFFCURVE",
"329 202 OFFCURVE",
"297 225 CURVE"
);
}
);
width = 684;
},
{
layerId = "A99E0968-31B7-4C8F-B576-AD2EC1F95564";
name = "Bold Italic";
paths = (
{
closed = 1;
nodes = (
"317 390 OFFCURVE",
"302 496 OFFCURVE",
"290 617 CURVE",
"355 621 LINE",
"299 459 LINE",
"292 348 OFFCURVE",
"283 199 OFFCURVE",
"271 31 CURVE",
"210 -22 OFFCURVE",
"35 3 OFFCURVE",
"11 56 CURVE",
"71 212 OFFCURVE",
"106 385 OFFCURVE",
"134 542 CURVE",
"140 709 LINE",
"188 738 OFFCURVE",
"235 753 OFFCURVE",
"283 753 CURVE SMOOTH",
"325 753 OFFCURVE",
"368 741 OFFCURVE",
"411 715 CURVE",
"414 605 OFFCURVE",
"431 524 OFFCURVE",
"461 390 CURVE",
"518 278 LINE",
"459 249 LINE",
"649 500 LINE",
"754 721 LINE",
"792 736 OFFCURVE",
"839 753 OFFCURVE",
"882 753 CURVE SMOOTH",
"927 753 OFFCURVE",
"967 743 OFFCURVE",
"986 715 CURVE",
"897 454 LINE",
"887 321 OFFCURVE",
"880 181 OFFCURVE",
"872 31 CURVE",
"810 -22 OFFCURVE",
"637 3 OFFCURVE",
"612 56 CURVE",
"665 207 OFFCURVE",
"694 328 OFFCURVE",
"711 435 CURVE",
"737 568 LINE",
"765 526 LINE",
"553 200 LINE",
"483 167 OFFCURVE",
"415 181 OFFCURVE",
"370 229 CURVE"
);
}
);
width = 956;
}
);
unicode = 004D;
},
{
glyphname = N;
lastChange = "2014-11-06 13:25:25 +0000";
layers = (
{
anchors = (
{
name = bottom;
position = "{301, 0}";
},
{
name = top;
position = "{411, 796}";
}
);
layerId = "5A85B07D-1A67-4978-877A-FA33898BA300";
name = "Light Italic";
paths = (
{
closed = 1;
nodes = (
"219 732 OFFCURVE",
"208 735 OFFCURVE",
"197 735 CURVE SMOOTH",
"176 735 OFFCURVE",
"156 727 OFFCURVE",
"127 710 CURVE",
"110 497 LINE",
"77 302 OFFCURVE",
"54 217 OFFCURVE",
"6 31 CURVE",
"24 2 OFFCURVE",
"60 -4 OFFCURVE",
"102 0 CURVE",
"119 154 OFFCURVE",
"144 299 OFFCURVE",
"154 401 CURVE",
"211 669 LINE",
"184 657 LINE",
"255 431 OFFCURVE",
"326 232 OFFCURVE",
"434 24 CURVE",
"457 3 OFFCURVE",
"492 -3 OFFCURVE",
"528 0 CURVE",
"545 154 OFFCURVE",
"570 299 OFFCURVE",
"581 401 CURVE",
"659 726 LINE",
"646 732 OFFCURVE",
"635 735 OFFCURVE",
"623 735 CURVE SMOOTH",
"603 735 OFFCURVE",
"582 727 OFFCURVE",
"554 710 CURVE",
"537 497 LINE",
"509 314 OFFCURVE",
"484 228 OFFCURVE",
"456 94 CURVE",
"471 112 LINE",
"401 235 LINE",
"338 389 OFFCURVE",
"282 549 OFFCURVE",
"232 726 CURVE"
);
}
);
width = 626;
},
{
anchors = (
{
name = bottom;
position = "{401, 0}";
},
{
name = top;
position = "{476, 753}";
}
);
layerId = "A99E0968-31B7-4C8F-B576-AD2EC1F95564";
name = "Bold Italic";
paths = (
{
closed = 1;
nodes = (
"375 745 OFFCURVE",
"355 753 OFFCURVE",
"316 753 CURVE SMOOTH",
"265 753 OFFCURVE",
"205 745 OFFCURVE",
"133 711 CURVE",
"132 539 LINE",
"107 388 OFFCURVE",
"71 224 OFFCURVE",
"11 56 CURVE",
"34 3 OFFCURVE",
"207 -22 OFFCURVE",
"271 31 CURVE",
"280 177 OFFCURVE",
"289 317 OFFCURVE",
"299 460 CURVE",
"357 629 LINE",
"335 622 LINE",
"339 467 OFFCURVE",
"377 267 OFFCURVE",
"474 45 CURVE",
"535 0 OFFCURVE",
"655 -22 OFFCURVE",
"735 31 CURVE",
"746 192 OFFCURVE",
"756 343 OFFCURVE",
"765 461 CURVE",
"860 734 LINE",
"835 746 OFFCURVE",
"804 752 OFFCURVE",
"766 752 CURVE SMOOTH",
"717 752 OFFCURVE",
"654 739 OFFCURVE",
"595 710 CURVE",
"598 535 LINE",
"575 412 OFFCURVE",
"537 254 OFFCURVE",
"512 146 CURVE",
"541 175 LINE",
"491 282 LINE",
"444 481 OFFCURVE",
"429 599 OFFCURVE",
"405 729 CURVE"
);
}
);
width = 820;
}
);
unicode = 004E;
},
{
glyphname = Ncommaaccent;
lastChange = "2014-11-06 13:25:25 +0000";
layers = (
{
components = (
{
name = N;
transform = "{1, 0, 0, 1, 0, 0}";
}
);
layerId = "5A85B07D-1A67-4978-877A-FA33898BA300";
name = "Light Italic";
paths = (
{
closed = 1;
nodes = (
"196 -242 OFFCURVE",
"210 -246 OFFCURVE",
"221 -245 CURVE",
"263 -207 OFFCURVE",
"318 -136 OFFCURVE",
"325 -70 CURVE",
"309 -26 OFFCURVE",
"262 -2 OFFCURVE",
"220 -36 CURVE",
"243 -148 LINE",
"189 -231 LINE"
);
}
);
width = 626;
},
{
components = (
{
name = N;
transform = "{1, 0, 0, 1, 0, 0}";
}
);
layerId = "A99E0968-31B7-4C8F-B576-AD2EC1F95564";
name = "Bold Italic";
paths = (
{
closed = 1;
nodes = (
"245 -340 OFFCURVE",
"267 -354 OFFCURVE",
"307 -355 CURVE",
"423 -269 OFFCURVE",
"471 -177 OFFCURVE",
"477 -86 CURVE",
"460 -38 OFFCURVE",
"376 20 OFFCURVE",
"282 -51 CURVE",
"299 -220 LINE",
"236 -313 LINE"
);
}
);
width = 820;
}
);
unicode = 0145;
},
{
glyphname = O;
lastChange = "2014-11-06 13:25:25 +0000";
layers = (
{
anchors = (
{
name = bottom;
position = "{248, 0}";
},
{
name = top;
position = "{416, 798}";
}
);
layerId = "5A85B07D-1A67-4978-877A-FA33898BA300";
name = "Light Italic";
paths = (
{
closed = 1;
nodes = (
"234 735 OFFCURVE",
"51 517 OFFCURVE",
"53 297 CURVE SMOOTH",
"54 180 OFFCURVE",
"156 0 OFFCURVE",
"275 0 CURVE SMOOTH",
"386 0 OFFCURVE",
"588 232 OFFCURVE",
"586 363 CURVE SMOOTH",
"584 539 OFFCURVE",
"486 735 OFFCURVE",
"395 735 CURVE SMOOTH"
);
},
{
closed = 1;
nodes = (
"469 606 OFFCURVE",
"499 492 OFFCURVE",
"515 359 CURVE",
"470 228 OFFCURVE",
"408 130 OFFCURVE",
"272 52 CURVE",
"177 99 OFFCURVE",
"131 212 OFFCURVE",
"130 314 CURVE SMOOTH",
"130 472 OFFCURVE",
"235 612 OFFCURVE",
"389 684 CURVE"
);
}
);
width = 607;
},
{
anchors = (
{
name = bottom;
position = "{243, 0}";
},
{
name = top;
position = "{444, 753}";
}
);
layerId = "A99E0968-31B7-4C8F-B576-AD2EC1F95564";
name = "Bold Italic";
paths = (
{
closed = 1;
nodes = (
"226 768 OFFCURVE",
"39 543 OFFCURVE",
"39 326 CURVE SMOOTH",
"39 168 OFFCURVE",
"209 0 OFFCURVE",
"340 0 CURVE SMOOTH",
"537 0 OFFCURVE",
"749 216 OFFCURVE",
"746 425 CURVE SMOOTH",
"743 603 OFFCURVE",
"564 768 OFFCURVE",
"448 768 CURVE SMOOTH"
);
},
{
closed = 1;
nodes = (
"504 564 OFFCURVE",
"522 481 OFFCURVE",
"532 377 CURVE",
"508 277 OFFCURVE",
"430 173 OFFCURVE",
"343 109 CURVE",
"300 173 OFFCURVE",
"266 248 OFFCURVE",
"266 339 CURVE SMOOTH",
"266 438 OFFCURVE",
"341 583 OFFCURVE",
"437 660 CURVE"
);
}
);
width = 741;
}
);
unicode = 004F;
},
{
glyphname = Oslash;
lastChange = "2014-11-06 13:25:25 +0000";
layers = (
{
layerId = "5A85B07D-1A67-4978-877A-FA33898BA300";
name = "Light Italic";
paths = (
{
closed = 1;
nodes = (
"739 699 OFFCURVE",
"705 724 OFFCURVE",
"659 733 CURVE",
"550 557 LINE",
"6 72 LINE",
"6 29 OFFCURVE",
"35 10 OFFCURVE",
"81 0 CURVE",
"186 165 LINE",
"741 665 LINE"
);
},
{
closed = 1;
nodes = (
"269 735 OFFCURVE",
"85 517 OFFCURVE",
"87 297 CURVE SMOOTH",
"89 180 OFFCURVE",
"190 0 OFFCURVE",
"310 0 CURVE SMOOTH",
"420 0 OFFCURVE",
"622 232 OFFCURVE",
"621 363 CURVE SMOOTH",
"619 539 OFFCURVE",
"521 735 OFFCURVE",
"430 735 CURVE SMOOTH"
);
},
{
closed = 1;
nodes = (
"164 472 OFFCURVE",
"270 612 OFFCURVE",
"423 684 CURVE",
"503 606 OFFCURVE",
"534 492 OFFCURVE",
"550 359 CURVE",
"504 228 OFFCURVE",
"443 130 OFFCURVE",
"307 52 CURVE",
"212 99 OFFCURVE",
"165 212 OFFCURVE",
"164 314 CURVE SMOOTH"
);
}
);
width = 705;
},
{
layerId = "A99E0968-31B7-4C8F-B576-AD2EC1F95564";
name = "Bold Italic";
paths = (
{
closed = 1;
nodes = (
"828 716 OFFCURVE",
"787 747 OFFCURVE",
"701 752 CURVE",
"571 525 LINE",
"-4 112 LINE",
"0 50 OFFCURVE",
"36 24 OFFCURVE",
"116 0 CURVE",
"223 184 LINE",
"834 653 LINE"
);
},
{
closed = 1;
nodes = (
"240 768 OFFCURVE",
"53 543 OFFCURVE",
"53 326 CURVE SMOOTH",
"53 168 OFFCURVE",
"223 0 OFFCURVE",
"354 0 CURVE SMOOTH",
"551 0 OFFCURVE",
"763 216 OFFCURVE",
"760 425 CURVE SMOOTH",
"757 603 OFFCURVE",
"578 768 OFFCURVE",
"462 768 CURVE SMOOTH"
);
},
{
closed = 1;
nodes = (
"280 438 OFFCURVE",
"355 583 OFFCURVE",
"451 660 CURVE",
"518 564 OFFCURVE",
"536 481 OFFCURVE",
"546 377 CURVE",
"522 277 OFFCURVE",
"444 173 OFFCURVE",
"357 109 CURVE",
"314 173 OFFCURVE",
"280 248 OFFCURVE",
"280 339 CURVE SMOOTH"
);
}
);
width = 783;
}
);
unicode = 00D8;
},
{
glyphname = OE;
lastChange = "2014-11-06 13:25:25 +0000";
layers = (
{
layerId = "5A85B07D-1A67-4978-877A-FA33898BA300";
name = "Light Italic";
paths = (
{
closed = 1;
nodes = (
"666 728 OFFCURVE",
"583 718 OFFCURVE",
"507 656 CURVE",
"474 696 OFFCURVE",
"434 735 OFFCURVE",
"397 735 CURVE SMOOTH",
"237 735 OFFCURVE",
"53 517 OFFCURVE",
"55 297 CURVE SMOOTH",
"56 180 OFFCURVE",
"158 0 OFFCURVE",
"278 0 CURVE SMOOTH",
"315 0 OFFCURVE",
"364 27 OFFCURVE",
"410 73 CURVE",
"427 30 OFFCURVE",
"453 13 OFFCURVE",
"495 0 CURVE",
"778 29 LINE",
"795 57 OFFCURVE",
"804 103 OFFCURVE",
"772 113 CURVE",
"678 96 OFFCURVE",
"585 79 OFFCURVE",
"497 73 CURVE",
"565 332 LINE",
"649 334 OFFCURVE",
"712 329 OFFCURVE",
"775 325 CURVE",
"794 355 OFFCURVE",
"796 390 OFFCURVE",
"784 408 CURVE",
"730 402 OFFCURVE",
"662 399 OFFCURVE",
"569 389 CURVE",
"548 597 LINE",
"580 646 LINE",
"653 666 OFFCURVE",
"718 663 OFFCURVE",
"764 656 CURVE",
"827 615 LINE",
"861 644 OFFCURVE",
"878 708 OFFCURVE",
"850 728 CURVE"
);
},
{
closed = 1;
nodes = (
"176 99 OFFCURVE",
"130 212 OFFCURVE",
"132 314 CURVE",
"132 472 OFFCURVE",
"238 612 OFFCURVE",
"391 684 CURVE",
"486 590 OFFCURVE",
"501 514 OFFCURVE",
"509 373 CURVE",
"491 247 OFFCURVE",
"423 125 OFFCURVE",
"281 52 CURVE"
);
}
);
width = 860;
},
{
layerId = "A99E0968-31B7-4C8F-B576-AD2EC1F95564";
name = "Bold Italic";
paths = (
{
closed = 1;
nodes = (
"891 762 OFFCURVE",
"751 760 OFFCURVE",
"616 710 CURVE",
"572 735 OFFCURVE",
"513 768 OFFCURVE",
"448 768 CURVE SMOOTH",
"226 768 OFFCURVE",
"39 543 OFFCURVE",
"39 326 CURVE SMOOTH",
"39 168 OFFCURVE",
"209 0 OFFCURVE",
"340 0 CURVE SMOOTH",
"401 0 OFFCURVE",
"467 31 OFFCURVE",
"507 54 CURVE",
"545 28 OFFCURVE",
"575 13 OFFCURVE",
"633 1 CURVE",
"1007 25 LINE",
"1050 77 OFFCURVE",
"1072 165 OFFCURVE",
"996 189 CURVE",
"895 162 OFFCURVE",
"779 139 OFFCURVE",
"680 123 CURVE",
"702 326 LINE",
"783 324 OFFCURVE",
"878 318 OFFCURVE",
"950 311 CURVE",
"975 355 OFFCURVE",
"992 417 OFFCURVE",
"949 450 CURVE",
"875 444 OFFCURVE",
"789 432 OFFCURVE",
"716 421 CURVE",
"746 583 LINE",
"784 633 LINE",
"844 644 OFFCURVE",
"883 641 OFFCURVE",
"927 641 CURVE",
"1026 547 LINE",
"1120 590 OFFCURVE",
"1154 657 OFFCURVE",
"1114 746 CURVE"
);
},
{
closed = 1;
nodes = (
"300 173 OFFCURVE",
"266 248 OFFCURVE",
"266 339 CURVE SMOOTH",
"266 438 OFFCURVE",
"341 583 OFFCURVE",
"437 660 CURVE",
"513 584 OFFCURVE",
"546 524 OFFCURVE",
"548 419 CURVE",
"513 279 OFFCURVE",
"434 174 OFFCURVE",
"343 109 CURVE"
);
}
);
width = 1095;
}
);
unicode = 0152;
},
{
glyphname = P;
lastChange = "2014-11-06 13:25:25 +0000";
layers = (
{
layerId = "5A85B07D-1A67-4978-877A-FA33898BA300";
name = "Light Italic";
paths = (
{
closed = 1;
nodes = (
"176 140 OFFCURVE",
"194 268 OFFCURVE",
"202 407 CURVE",
"264 697 LINE",
"206 667 LINE",
"392 698 OFFCURVE",
"467 632 OFFCURVE",
"469 535 CURVE SMOOTH",
"470 464 OFFCURVE",
"433 399 OFFCURVE",
"375 364 CURVE",
"309 333 OFFCURVE",
"242 322 OFFCURVE",
"153 310 CURVE",
"176 269 LINE",
"234 271 OFFCURVE",
"323 285 OFFCURVE",
"402 312 CURVE",
"501 366 OFFCURVE",
"544 451 OFFCURVE",
"543 539 CURVE SMOOTH",
"541 644 OFFCURVE",
"459 735 OFFCURVE",
"282 735 CURVE SMOOTH",
"219 735 OFFCURVE",
"176 730 OFFCURVE",
"133 720 CURVE",
"117 713 OFFCURVE",
"112 687 OFFCURVE",
"127 662 CURVE",
"175 667 LINE",
"149 449 LINE",
"127 324 OFFCURVE",
"106 188 OFFCURVE",
"62 25 CURVE",
"83 2 OFFCURVE",
"131 -5 OFFCURVE",
"157 3 CURVE"
);
}
);
width = 532;
},
{
layerId = "A99E0968-31B7-4C8F-B576-AD2EC1F95564";
name = "Bold Italic";
paths = (
{
closed = 1;
nodes = (
"335 193 OFFCURVE",
"339 312 OFFCURVE",
"351 460 CURVE",
"406 686 LINE",
"346 651 LINE",
"455 654 OFFCURVE",
"539 582 OFFCURVE",
"539 510 CURVE SMOOTH",
"538 462 OFFCURVE",
"520 413 OFFCURVE",
"492 378 CURVE",
"459 351 OFFCURVE",
"368 321 OFFCURVE",
"271 304 CURVE",
"294 222 LINE",
"428 235 OFFCURVE",
"503 260 OFFCURVE",
"561 277 CURVE",
"684 339 OFFCURVE",
"755 401 OFFCURVE",
"758 518 CURVE SMOOTH",
"761 635 OFFCURVE",
"599 765 OFFCURVE",
"388 765 CURVE SMOOTH",
"286 765 OFFCURVE",
"178 749 OFFCURVE",
"103 722 CURVE",
"86 698 OFFCURVE",
"94 659 OFFCURVE",
"124 640 CURVE",
"170 631 LINE",
"186 547 LINE",
"153 349 OFFCURVE",
"122 233 OFFCURVE",
"63 55 CURVE",
"99 -3 OFFCURVE",
"267 -18 OFFCURVE",
"324 31 CURVE"
);
}
);
width = 739;
}
);
unicode = 0050;
},
{
glyphname = Thorn;
lastChange = "2014-11-06 13:25:25 +0000";
layers = (
{
layerId = "5A85B07D-1A67-4978-877A-FA33898BA300";
name = "Light Italic";
paths = (
{
closed = 1;
nodes = (
"174 540 LINE",
"127 324 OFFCURVE",
"106 188 OFFCURVE",
"62 25 CURVE",
"83 2 OFFCURVE",
"131 -5 OFFCURVE",
"157 3 CURVE",
"176 140 OFFCURVE",
"202 394 OFFCURVE",
"233 573 CURVE",
"289 804 LINE",
"256 822 OFFCURVE",
"229 814 OFFCURVE",
"185 787 CURVE"
);
},
{
closed = 1;
nodes = (
"211 516 LINE",
"248 535 OFFCURVE",
"309 556 OFFCURVE",
"351 552 CURVE",
"421 532 OFFCURVE",
"464 482 OFFCURVE",
"467 419 CURVE SMOOTH",
"468 362 OFFCURVE",
"432 324 OFFCURVE",
"379 278 CURVE",
"303 260 OFFCURVE",
"261 255 OFFCURVE",
"189 265 CURVE",
"174 232 LINE",
"243 205 OFFCURVE",
"314 206 OFFCURVE",
"408 225 CURVE",
"501 292 OFFCURVE",
"543 343 OFFCURVE",
"541 423 CURVE SMOOTH",
"539 504 OFFCURVE",
"478 577 OFFCURVE",
"377 605 CURVE",
"315 609 OFFCURVE",
"237 589 OFFCURVE",
"190 553 CURVE"
);
}
);
width = 532;
},
{
layerId = "A99E0968-31B7-4C8F-B576-AD2EC1F95564";
name = "Bold Italic";
paths = (
{
closed = 1;
nodes = (
"154 538 LINE",
"126 366 OFFCURVE",
"82 195 OFFCURVE",
"22 56 CURVE",
"47 3 OFFCURVE",
"231 -22 OFFCURVE",
"292 34 CURVE",
"306 206 OFFCURVE",
"315 421 OFFCURVE",
"325 593 CURVE",
"396 836 LINE",
"326 864 OFFCURVE",
"232 852 OFFCURVE",
"142 799 CURVE"
);
},
{
closed = 1;
nodes = (
"282 497 LINE",
"309 516 OFFCURVE",
"354 538 OFFCURVE",
"429 538 CURVE",
"474 524 OFFCURVE",
"504 488 OFFCURVE",
"504 415 CURVE SMOOTH",
"506 377 OFFCURVE",
"493 336 OFFCURVE",
"465 304 CURVE",
"421 260 OFFCURVE",
"327 260 OFFCURVE",
"234 296 CURVE",
"211 219 LINE",
"302 194 OFFCURVE",
"398 176 OFFCURVE",
"535 202 CURVE",
"665 270 OFFCURVE",
"724 334 OFFCURVE",
"724 424 CURVE SMOOTH",
"726 567 OFFCURVE",
"585 635 OFFCURVE",
"430 651 CURVE",
"370 633 OFFCURVE",
"283 586 OFFCURVE",
"243 568 CURVE"
);
}
);
width = 716;
}
);
unicode = 00DE;
},
{
glyphname = Q;
lastChange = "2014-11-06 13:25:25 +0000";
layers = (
{
components = (
{
name = O;
transform = "{1, 0, 0, 1, 0, 0}";
}
);
layerId = "5A85B07D-1A67-4978-877A-FA33898BA300";
name = "Light Italic";
paths = (
{
closed = 1;
nodes = (
"275 13 LINE",
"384 -161 LINE",
"440 -151 OFFCURVE",
"460 -130 OFFCURVE",
"455 -99 CURVE",
"362 -42 LINE",
"316 35 LINE"
);
}
);
width = 630;
},
{
components = (
{
name = O;
transform = "{1, 0, 0, 1, 0, 0}";
}
);
layerId = "A99E0968-31B7-4C8F-B576-AD2EC1F95564";
name = "Bold Italic";
paths = (
{
closed = 1;
nodes = (
"329 44 LINE",
"440 -186 LINE",
"518 -231 OFFCURVE",
"650 -196 OFFCURVE",
"663 -67 CURVE",
"494 -12 LINE",
"462 48 LINE"
);
}
);
width = 741;
}
);
unicode = 0051;
},
{
glyphname = R;
lastChange = "2014-11-06 13:25:25 +0000";
layers = (
{
anchors = (
{
name = bottom;
position = "{266, 0}";
},
{
name = top;
position = "{323, 796}";
}
);
layerId = "5A85B07D-1A67-4978-877A-FA33898BA300";
name = "Light Italic";
paths = (
{
closed = 1;
nodes = (
"206 336 LINE",
"226 212 OFFCURVE",
"294 85 OFFCURVE",
"427 0 CURVE",
"472 13 OFFCURVE",
"495 44 OFFCURVE",
"482 73 CURVE",
"341 135 OFFCURVE",
"281 204 OFFCURVE",
"235 346 CURVE"
);
},
{
closed = 1;
nodes = (
"272 328 OFFCURVE",
"295 330 OFFCURVE",
"372 340 CURVE",
"482 400 OFFCURVE",
"531 460 OFFCURVE",
"531 561 CURVE SMOOTH",
"531 649 OFFCURVE",
"457 737 OFFCURVE",
"280 737 CURVE SMOOTH",
"217 737 OFFCURVE",
"174 731 OFFCURVE",
"131 721 CURVE",
"114 714 OFFCURVE",
"110 688 OFFCURVE",
"125 663 CURVE",
"176 666 LINE",
"147 455 LINE",
"124 329 OFFCURVE",
"102 188 OFFCURVE",
"55 25 CURVE",
"77 2 OFFCURVE",
"124 -5 OFFCURVE",
"150 3 CURVE",
"179 179 OFFCURVE",
"192 296 OFFCURVE",
"200 413 CURVE",
"265 698 LINE",
"204 669 LINE",
"382 703 OFFCURVE",
"449 634 OFFCURVE",
"449 556 CURVE SMOOTH",
"449 478 OFFCURVE",
"423 438 OFFCURVE",
"354 392 CURVE",
"293 376 OFFCURVE",
"246 370 OFFCURVE",
"180 369 CURVE",
"185 326 LINE"
);
}
);
width = 568;
},
{
anchors = (
{
name = bottom;
position = "{438, 0}";
},
{
name = top;
position = "{385, 753}";
}
);
layerId = "A99E0968-31B7-4C8F-B576-AD2EC1F95564";
name = "Bold Italic";
paths = (
{
closed = 1;
nodes = (
"353 334 LINE",
"356 178 OFFCURVE",
"434 55 OFFCURVE",
"577 0 CURVE",
"682 34 OFFCURVE",
"746 120 OFFCURVE",
"700 198 CURVE",
"536 209 OFFCURVE",
"481 241 OFFCURVE",
"427 344 CURVE"
);
},
{
closed = 1;
nodes = (
"365 285 OFFCURVE",
"463 285 OFFCURVE",
"540 297 CURVE",
"684 369 OFFCURVE",
"745 421 OFFCURVE",
"748 538 CURVE SMOOTH",
"751 655 OFFCURVE",
"599 765 OFFCURVE",
"388 765 CURVE SMOOTH",
"286 765 OFFCURVE",
"178 749 OFFCURVE",
"103 722 CURVE",
"86 698 OFFCURVE",
"94 659 OFFCURVE",
"124 640 CURVE",
"170 631 LINE",
"186 547 LINE",
"153 349 OFFCURVE",
"122 233 OFFCURVE",
"63 55 CURVE",
"99 -3 OFFCURVE",
"267 -18 OFFCURVE",
"324 31 CURVE",
"335 193 OFFCURVE",
"339 312 OFFCURVE",
"351 460 CURVE",
"406 686 LINE",
"346 651 LINE",
"471 654 OFFCURVE",
"532 596 OFFCURVE",
"532 523 CURVE SMOOTH",
"532 485 OFFCURVE",
"515 442 OFFCURVE",
"481 402 CURVE",
"428 381 OFFCURVE",
"368 364 OFFCURVE",
"271 364 CURVE",
"294 282 LINE"
);
}
);
width = 760;
}
);
unicode = 0052;
},
{
glyphname = Rcommaaccent;
lastChange = "2014-11-06 13:25:25 +0000";
layers = (
{
components = (
{
name = R;
transform = "{1, 0, 0, 1, 0, 0}";
}
);
layerId = "5A85B07D-1A67-4978-877A-FA33898BA300";
name = "Light Italic";
paths = (
{
closed = 1;
nodes = (
"186 -242 OFFCURVE",
"200 -246 OFFCURVE",
"211 -245 CURVE",
"253 -207 OFFCURVE",
"308 -136 OFFCURVE",
"315 -70 CURVE",
"299 -26 OFFCURVE",
"252 -2 OFFCURVE",
"210 -36 CURVE",
"233 -148 LINE",
"179 -231 LINE"
);
}
);
width = 568;
},
{
components = (
{
name = R;
transform = "{1, 0, 0, 1, 0, 0}";
}
);
layerId = "A99E0968-31B7-4C8F-B576-AD2EC1F95564";
name = "Bold Italic";
paths = (
{
closed = 1;
nodes = (
"257 -340 OFFCURVE",
"279 -354 OFFCURVE",
"319 -355 CURVE",
"435 -269 OFFCURVE",
"483 -177 OFFCURVE",
"489 -86 CURVE",
"472 -38 OFFCURVE",
"388 20 OFFCURVE",
"294 -51 CURVE",
"311 -220 LINE",
"248 -313 LINE"
);
}
);
width = 760;
}
);
unicode = 0156;
},
{
glyphname = S;
lastChange = "2014-11-06 13:25:25 +0000";
layers = (
{
anchors = (
{
name = bottom;
position = "{275, 0}";
},
{
name = top;
position = "{382, 796}";
}
);
layerId = "5A85B07D-1A67-4978-877A-FA33898BA300";
name = "Light Italic";
paths = (
{
closed = 1;
nodes = (
"420 33 OFFCURVE",
"509 122 OFFCURVE",
"526 232 CURVE",
"462 377 OFFCURVE",
"170 450 OFFCURVE",
"165 544 CURVE SMOOTH",
"163 594 OFFCURVE",
"272 673 OFFCURVE",
"359 692 CURVE",
"402 660 OFFCURVE",
"436 626 OFFCURVE",
"468 543 CURVE",
"509 539 OFFCURVE",
"535 559 OFFCURVE",
"539 583 CURVE",
"503 657 OFFCURVE",
"442 712 OFFCURVE",
"366 744 CURVE",
"261 735 OFFCURVE",
"131 657 OFFCURVE",
"87 548 CURVE",
"112 388 OFFCURVE",
"447 311 OFFCURVE",
"449 229 CURVE SMOOTH",
"449 151 OFFCURVE",
"364 81 OFFCURVE",
"251 53 CURVE",
"162 107 OFFCURVE",
"135 140 OFFCURVE",
"105 232 CURVE",
"66 245 OFFCURVE",
"48 239 OFFCURVE",
"21 202 CURVE",
"35 131 OFFCURVE",
"137 33 OFFCURVE",
"241 0 CURVE"
);
}
);
width = 565;
},
{
anchors = (
{
name = bottom;
position = "{371, 0}";
},
{
name = top;
position = "{424, 753}";
}
);
layerId = "A99E0968-31B7-4C8F-B576-AD2EC1F95564";
name = "Bold Italic";
paths = (
{
closed = 1;
nodes = (
"510 14 OFFCURVE",
"667 107 OFFCURVE",
"691 263 CURVE",
"647 420 OFFCURVE",
"309 511 OFFCURVE",
"309 569 CURVE SMOOTH",
"309 600 OFFCURVE",
"384 641 OFFCURVE",
"437 660 CURVE",
"459 631 OFFCURVE",
"479 591 OFFCURVE",
"482 523 CURVE",
"618 495 OFFCURVE",
"683 528 OFFCURVE",
"706 625 CURVE",
"660 702 OFFCURVE",
"566 760 OFFCURVE",
"440 765 CURVE",
"273 747 OFFCURVE",
"140 667 OFFCURVE",
"76 538 CURVE",
"107 324 OFFCURVE",
"441 285 OFFCURVE",
"441 215 CURVE SMOOTH",
"441 161 OFFCURVE",
"384 117 OFFCURVE",
"319 105 CURVE",
"282 163 OFFCURVE",
"253 217 OFFCURVE",
"245 282 CURVE",
"120 321 OFFCURVE",
"54 241 OFFCURVE",
"14 156 CURVE",
"62 77 OFFCURVE",
"183 17 OFFCURVE",
"312 0 CURVE"
);
}
);
width = 724;
}
);
unicode = 0053;
},
{
glyphname = Scommaaccent;
lastChange = "2014-11-06 13:25:25 +0000";
layers = (
{
components = (
{
name = S;
transform = "{1, 0, 0, 1, 0, 0}";
}
);
layerId = "5A85B07D-1A67-4978-877A-FA33898BA300";
name = "Light Italic";
paths = (
{
closed = 1;
nodes = (
"176 -242 OFFCURVE",
"190 -246 OFFCURVE",
"201 -245 CURVE",
"243 -207 OFFCURVE",
"298 -136 OFFCURVE",
"305 -70 CURVE",
"289 -26 OFFCURVE",
"242 -2 OFFCURVE",
"200 -36 CURVE",
"223 -148 LINE",
"169 -231 LINE"
);
}
);
width = 565;
},
{
components = (
{
name = S;
transform = "{1, 0, 0, 1, 0, 0}";
}
);
layerId = "A99E0968-31B7-4C8F-B576-AD2EC1F95564";
name = "Bold Italic";
paths = (
{
closed = 1;
nodes = (
"171 -340 OFFCURVE",
"193 -354 OFFCURVE",
"233 -355 CURVE",
"349 -269 OFFCURVE",
"397 -177 OFFCURVE",
"403 -86 CURVE",
"386 -38 OFFCURVE",
"302 20 OFFCURVE",
"208 -51 CURVE",
"225 -220 LINE",
"162 -313 LINE"
);
}
);
width = 724;
}
);
unicode = 0218;
},
{
glyphname = T;
lastChange = "2014-11-06 13:25:25 +0000";
layers = (
{
anchors = (
{
name = bottom;
position = "{255, 0}";
},
{
name = top;
position = "{363, 796}";
}
);
layerId = "5A85B07D-1A67-4978-877A-FA33898BA300";
name = "Light Italic";
paths = (
{
closed = 1;
nodes = (
"284 505 LINE",
"253 321 OFFCURVE",
"226 206 OFFCURVE",
"180 30 CURVE",
"198 2 OFFCURVE",
"234 -4 OFFCURVE",
"275 0 CURVE",
"292 147 OFFCURVE",
"310 276 OFFCURVE",
"322 389 CURVE",
"393 703 LINE",
"370 715 OFFCURVE",
"339 713 OFFCURVE",
"292 688 CURVE"
);
},
{
closed = 1;
nodes = (
"382 728 OFFCURVE",
"245 724 OFFCURVE",
"103 715 CURVE",
"90 698 OFFCURVE",
"87 681 OFFCURVE",
"111 657 CURVE",
"367 676 LINE",
"588 663 LINE",
"613 686 OFFCURVE",
"617 713 OFFCURVE",
"603 725 CURVE"
);
}
);
width = 537;
},
{
anchors = (
{
name = bottom;
position = "{371, 0}";
},
{
name = top;
position = "{425, 753}";
}
);
layerId = "A99E0968-31B7-4C8F-B576-AD2EC1F95564";
name = "Bold Italic";
paths = (
{
closed = 1;
nodes = (
"318 549 LINE",
"287 342 OFFCURVE",
"256 215 OFFCURVE",
"201 56 CURVE",
"225 3 OFFCURVE",
"401 -22 OFFCURVE",
"463 31 CURVE",
"467 152 OFFCURVE",
"469 250 OFFCURVE",
"481 468 CURVE",
"546 707 LINE",
"497 735 OFFCURVE",
"419 733 OFFCURVE",
"316 682 CURVE"
);
},
{
closed = 1;
nodes = (
"497 759 OFFCURVE",
"364 755 OFFCURVE",
"105 734 CURVE",
"84 684 OFFCURVE",
"88 640 OFFCURVE",
"132 583 CURVE",
"444 625 LINE",
"749 588 LINE",
"794 666 OFFCURVE",
"786 710 OFFCURVE",
"763 740 CURVE"
);
}
);
width = 727;
}
);
unicode = 0054;
},
{
glyphname = Tcommaaccent;
lastChange = "2014-11-06 13:25:25 +0000";
layers = (
{
components = (
{
name = T;
transform = "{1, 0, 0, 1, 0, 0}";
}
);
layerId = "5A85B07D-1A67-4978-877A-FA33898BA300";
name = "Light Italic";
paths = (
{
closed = 1;
nodes = (
"136 -242 OFFCURVE",
"150 -246 OFFCURVE",
"161 -245 CURVE",
"203 -207 OFFCURVE",
"258 -136 OFFCURVE",
"265 -70 CURVE",
"249 -26 OFFCURVE",
"202 -2 OFFCURVE",
"160 -36 CURVE",
"183 -148 LINE",
"129 -231 LINE"
);
}
);
width = 537;
},
{
components = (
{
name = T;
transform = "{1, 0, 0, 1, 0, 0}";
}
);
layerId = "A99E0968-31B7-4C8F-B576-AD2EC1F95564";
name = "Bold Italic";
paths = (
{
closed = 1;
nodes = (
"191 -340 OFFCURVE",
"213 -354 OFFCURVE",
"253 -355 CURVE",
"369 -269 OFFCURVE",
"417 -177 OFFCURVE",
"423 -86 CURVE",
"406 -38 OFFCURVE",
"322 20 OFFCURVE",
"228 -51 CURVE",
"245 -220 LINE",
"182 -313 LINE"
);
}
);
width = 727;
}
);
unicode = 021A;
},
{
glyphname = U;
lastChange = "2014-11-06 13:25:25 +0000";
layers = (
{
anchors = (
{
name = ogonek;
position = "{280, 0}";
},
{
name = top;
position = "{360, 796}";
}
);
layerId = "5A85B07D-1A67-4978-877A-FA33898BA300";
name = "Light Italic";
paths = (
{
closed = 1;
nodes = (
"438 0 OFFCURVE",
"488 145 OFFCURVE",
"536 376 CURVE SMOOTH",
"565 515 OFFCURVE",
"578 618 OFFCURVE",
"603 726 CURVE",
"590 732 OFFCURVE",
"579 735 OFFCURVE",
"567 735 CURVE SMOOTH",
"546 735 OFFCURVE",
"526 727 OFFCURVE",
"498 710 CURVE",
"498 497 LINE",
"468 315 OFFCURVE",
"440 166 OFFCURVE",
"348 76 CURVE",
"229 15 OFFCURVE",
"126 96 OFFCURVE",
"126 174 CURVE SMOOTH",
"126 347 OFFCURVE",
"178 549 OFFCURVE",
"231 726 CURVE",
"218 732 OFFCURVE",
"207 735 OFFCURVE",
"195 735 CURVE SMOOTH",
"175 735 OFFCURVE",
"154 727 OFFCURVE",
"126 710 CURVE",
"109 510 OFFCURVE",
"82 375 OFFCURVE",
"46 166 CURVE",
"56 105 OFFCURVE",
"118 0 OFFCURVE",
"248 0 CURVE SMOOTH"
);
}
);
width = 570;
},
{
anchors = (
{
name = ogonek;
position = "{369, 0}";
},
{
name = top;
position = "{446, 753}";
}
);
layerId = "A99E0968-31B7-4C8F-B576-AD2EC1F95564";
name = "Bold Italic";
paths = (
{
closed = 1;
nodes = (
"557 0 OFFCURVE",
"668 132 OFFCURVE",
"704 329 CURVE SMOOTH",
"727 457 OFFCURVE",
"751 611 OFFCURVE",
"766 747 CURVE",
"742 759 OFFCURVE",
"711 765 OFFCURVE",
"674 765 CURVE SMOOTH",
"623 765 OFFCURVE",
"561 752 OFFCURVE",
"501 723 CURVE",
"545 485 LINE",
"525 333 OFFCURVE",
"497 237 OFFCURVE",
"440 130 CURVE",
"260 130 OFFCURVE",
"271 229 OFFCURVE",
"291 364 CURVE SMOOTH",
"307 465 OFFCURVE",
"344 592 OFFCURVE",
"393 747 CURVE",
"368 759 OFFCURVE",
"337 765 OFFCURVE",
"301 765 CURVE SMOOTH",
"250 765 OFFCURVE",
"188 752 OFFCURVE",
"128 723 CURVE",
"110 539 OFFCURVE",
"93 405 OFFCURVE",
"59 228 CURVE",
"78 101 OFFCURVE",
"189 0 OFFCURVE",
"362 0 CURVE SMOOTH"
);
}
);
width = 735;
}
);
unicode = 0055;
},
{
glyphname = Uogonek;
lastChange = "2014-11-06 13:25:25 +0000";
layers = (
{
background = {
paths = (
{
closed = 1;
nodes = (
"287 -14 CURVE",
"291 1 OFFCURVE",
"279 9 OFFCURVE",
"251 9 CURVE",
"170 -8 OFFCURVE",
"125 -40 OFFCURVE",
"116 -95 CURVE SMOOTH",
"106 -154 OFFCURVE",
"170 -198 OFFCURVE",
"247 -198 CURVE SMOOTH",
"301 -198 OFFCURVE",
"346 -171 OFFCURVE",
"378 -137 CURVE",
"374 -119 OFFCURVE",
"365 -113 OFFCURVE",
"351 -112 CURVE",
"324 -135 OFFCURVE",
"288 -147 OFFCURVE",
"253 -147 CURVE SMOOTH",
"220 -147 OFFCURVE",
"193 -138 OFFCURVE",
"179 -113 CURVE",
"186 -62 OFFCURVE",
"224 -26 OFFCURVE"
);
}
);
};
components = (
{
name = U;
transform = "{1, 0, 0, 1, 0, 0}";
}
);
layerId = "5A85B07D-1A67-4978-877A-FA33898BA300";
name = "Light Italic";
paths = (
{
closed = 1;
nodes = (
"284 2 CURVE",
"281 17 OFFCURVE",
"269 25 OFFCURVE",
"251 25 CURVE",
"164 -6 OFFCURVE",
"122 -62 OFFCURVE",
"122 -109 CURVE SMOOTH",
"122 -158 OFFCURVE",
"165 -198 OFFCURVE",
"247 -198 CURVE SMOOTH",
"301 -198 OFFCURVE",
"346 -171 OFFCURVE",
"378 -137 CURVE",
"374 -119 OFFCURVE",
"365 -113 OFFCURVE",
"351 -112 CURVE",
"321 -137 OFFCURVE",
"285 -151 OFFCURVE",
"251 -151 CURVE SMOOTH",
"221 -151 OFFCURVE",
"194 -141 OFFCURVE",
"172 -119 CURVE",
"183 -63 OFFCURVE",
"225 -22 OFFCURVE"
);
}
);
width = 570;
},
{
background = {
paths = (
{
closed = 1;
nodes = (
"444 -7 CURVE",
"443 21 OFFCURVE",
"418 41 OFFCURVE",
"378 50 CURVE",
"250 40 OFFCURVE",
"134 -7 OFFCURVE",
"120 -108 CURVE SMOOTH",
"104 -212 OFFCURVE",
"207 -268 OFFCURVE",
"329 -268 CURVE SMOOTH",
"427 -268 OFFCURVE",
"496 -235 OFFCURVE",
"552 -175 CURVE",
"554 -145 OFFCURVE",
"539 -120 OFFCURVE",
"520 -119 CURVE",
"490 -145 OFFCURVE",
"447 -163 OFFCURVE",
"405 -163 CURVE SMOOTH",
"365 -163 OFFCURVE",
"331 -153 OFFCURVE",
"316 -122 CURVE",
"323 -61 OFFCURVE",
"389 -18 OFFCURVE"
);
}
);
};
components = (
{
name = U;
transform = "{1, 0, 0, 1, 0, 0}";
}
);
layerId = "A99E0968-31B7-4C8F-B576-AD2EC1F95564";
name = "Bold Italic";
paths = (
{
closed = 1;
nodes = (
"444 9 CURVE",
"443 37 OFFCURVE",
"440 67 OFFCURVE",
"393 72 CURVE",
"247 50 OFFCURVE",
"141 -38 OFFCURVE",
"141 -127 CURVE SMOOTH",
"141 -202 OFFCURVE",
"213 -268 OFFCURVE",
"350 -268 CURVE SMOOTH",
"427 -268 OFFCURVE",
"507 -236 OFFCURVE",
"552 -175 CURVE",
"555 -140 OFFCURVE",
"539 -115 OFFCURVE",
"503 -119 CURVE",
"471 -148 OFFCURVE",
"425 -165 OFFCURVE",
"383 -165 CURVE SMOOTH",
"346 -165 OFFCURVE",
"312 -151 OFFCURVE",
"294 -122 CURVE",
"300 -63 OFFCURVE",
"370 -4 OFFCURVE"
);
}
);
width = 735;
}
);
unicode = 0172;
},
{
glyphname = V;
lastChange = "2014-11-06 13:25:25 +0000";
layers = (
{
layerId = "5A85B07D-1A67-4978-877A-FA33898BA300";
name = "Light Italic";
paths = (
{
closed = 1;
nodes = (
"216 247 LINE",
"197 713 LINE",
"176 730 OFFCURVE",
"132 721 OFFCURVE",
"108 705 CURVE",
"177 22 LINE",
"204 -2 OFFCURVE",
"247 -5 OFFCURVE",
"280 3 CURVE",
"337 161 LINE",
"406 291 OFFCURVE",
"476 403 OFFCURVE",
"546 532 CURVE",
"570 584 OFFCURVE",
"590 639 OFFCURVE",
"584 706 CURVE",
"559 725 OFFCURVE",
"528 730 OFFCURVE",
"471 706 CURVE",
"484 552 LINE",
"224 32 LINE",
"247 29 LINE"
);
}
);
width = 536;
},
{
layerId = "A99E0968-31B7-4C8F-B576-AD2EC1F95564";
name = "Bold Italic";
paths = (
{
closed = 1;
nodes = (
"368 370 LINE",
"372 741 LINE",
"322 782 OFFCURVE",
"169 770 OFFCURVE",
"90 674 CURVE",
"226 75 LINE",
"279 7 OFFCURVE",
"390 -17 OFFCURVE",
"484 11 CURVE",
"542 144 LINE",
"618 265 OFFCURVE",
"671 343 OFFCURVE",
"745 459 CURVE SMOOTH",
"790 527 OFFCURVE",
"820 628 OFFCURVE",
"812 715 CURVE",
"758 766 OFFCURVE",
"607 787 OFFCURVE",
"544 707 CURVE",
"600 462 LINE",
"378 60 LINE",
"418 78 LINE"
);
}
);
width = 767;
}
);
unicode = 0056;
},
{
glyphname = W;
lastChange = "2014-11-06 13:25:25 +0000";
layers = (
{
layerId = "5A85B07D-1A67-4978-877A-FA33898BA300";
name = "Light Italic";
paths = (
{
closed = 1;
nodes = (
"822 730 OFFCURVE",
"791 735 OFFCURVE",
"733 712 CURVE",
"746 555 LINE",
"526 26 LINE",
"551 24 LINE",
"513 272 LINE",
"500 658 LINE",
"470 671 OFFCURVE",
"441 663 OFFCURVE",
"413 640 CURVE",
"434 437 LINE",
"221 39 LINE",
"255 24 LINE",
"220 247 LINE",
"198 718 LINE",
"176 735 OFFCURVE",
"132 727 OFFCURVE",
"109 711 CURVE",
"184 22 LINE",
"211 -2 OFFCURVE",
"254 -5 OFFCURVE",
"286 3 CURVE",
"348 161 LINE",
"445 345 LINE",
"480 22 LINE",
"507 -2 OFFCURVE",
"554 -6 OFFCURVE",
"585 4 CURVE",
"632 164 LINE",
"809 536 LINE SMOOTH",
"834 588 OFFCURVE",
"852 645 OFFCURVE",
"847 712 CURVE"
);
}
);
width = 791;
},
{
layerId = "A99E0968-31B7-4C8F-B576-AD2EC1F95564";
name = "Bold Italic";
paths = (
{
closed = 1;
nodes = (
"1100 763 OFFCURVE",
"958 789 OFFCURVE",
"893 707 CURVE",
"953 462 LINE",
"776 79 LINE",
"802 77 LINE",
"740 403 LINE",
"755 696 LINE",
"658 744 OFFCURVE",
"556 706 OFFCURVE",
"501 641 CURVE",
"567 404 LINE",
"402 81 LINE",
"427 80 LINE",
"373 371 LINE",
"370 742 LINE",
"317 780 OFFCURVE",
"175 775 OFFCURVE",
"89 673 CURVE",
"236 74 LINE",
"294 8 OFFCURVE",
"399 -17 OFFCURVE",
"496 11 CURVE",
"531 133 LINE",
"600 272 LINE",
"623 68 LINE",
"670 7 OFFCURVE",
"772 -15 OFFCURVE",
"869 11 CURVE",
"913 145 LINE",
"1099 461 LINE SMOOTH",
"1145 545 OFFCURVE",
"1166 635 OFFCURVE",
"1161 715 CURVE"
);
}
);
width = 1115;
}
);
unicode = 0057;
},
{
glyphname = X;
lastChange = "2014-11-06 13:25:25 +0000";
layers = (
{
layerId = "5A85B07D-1A67-4978-877A-FA33898BA300";
name = "Light Italic";
paths = (
{
closed = 1;
nodes = (
"458 137 OFFCURVE",
"362 322 OFFCURVE",
"330 391 CURVE",
"302 522 OFFCURVE",
"237 656 OFFCURVE",
"158 733 CURVE",
"113 725 OFFCURVE",
"89 697 OFFCURVE",
"93 658 CURVE",
"160 599 OFFCURVE",
"240 492 OFFCURVE",
"301 362 CURVE",
"311 264 OFFCURVE",
"401 70 OFFCURVE",
"463 0 CURVE",
"511 8 OFFCURVE",
"539 36 OFFCURVE",
"537 69 CURVE"
);
},
{
closed = 1;
nodes = (
"620 720 OFFCURVE",
"600 737 OFFCURVE",
"562 734 CURVE",
"310 379 LINE",
"227 288 OFFCURVE",
"96 138 OFFCURVE",
"9 64 CURVE",
"9 32 OFFCURVE",
"24 9 OFFCURVE",
"76 0 CURVE",
"335 360 LINE",
"447 486 OFFCURVE",
"544 593 OFFCURVE",
"632 676 CURVE"
);
}
);
width = 595;
},
{
layerId = "A99E0968-31B7-4C8F-B576-AD2EC1F95564";
name = "Bold Italic";
paths = (
{
closed = 1;
nodes = (
"654 250 OFFCURVE",
"550 308 OFFCURVE",
"469 405 CURVE",
"454 527 OFFCURVE",
"385 692 OFFCURVE",
"281 762 CURVE",
"150 753 OFFCURVE",
"85 657 OFFCURVE",
"96 552 CURVE",
"219 523 OFFCURVE",
"344 442 OFFCURVE",
"403 342 CURVE",
"425 222 OFFCURVE",
"490 92 OFFCURVE",
"587 0 CURVE",
"740 30 OFFCURVE",
"788 132 OFFCURVE",
"754 216 CURVE"
);
},
{
closed = 1;
nodes = (
"840 698 OFFCURVE",
"801 772 OFFCURVE",
"686 763 CURVE",
"411 400 LINE",
"298 299 OFFCURVE",
"193 238 OFFCURVE",
"42 153 CURVE",
"29 84 OFFCURVE",
"64 8 OFFCURVE",
"210 0 CURVE",
"459 355 LINE",
"615 482 OFFCURVE",
"734 565 OFFCURVE",
"831 621 CURVE"
);
}
);
width = 812;
}
);
unicode = 0058;
},
{
glyphname = Y;
lastChange = "2014-11-06 13:25:25 +0000";
layers = (
{
anchors = (
{
name = top;
position = "{376, 795}";
}
);
layerId = "5A85B07D-1A67-4978-877A-FA33898BA300";
name = "Light Italic";
paths = (
{
closed = 1;
nodes = (
"180 744 OFFCURVE",
"137 731 OFFCURVE",
"116 713 CURVE",
"175 577 OFFCURVE",
"233 449 OFFCURVE",
"284 303 CURVE",
"275 232 OFFCURVE",
"256 110 OFFCURVE",
"224 19 CURVE",
"254 -3 OFFCURVE",
"297 -8 OFFCURVE",
"319 0 CURVE",
"325 113 OFFCURVE",
"338 249 OFFCURVE",
"363 327 CURVE",
"429 410 OFFCURVE",
"494 495 OFFCURVE",
"559 578 CURVE SMOOTH",
"592 619 OFFCURVE",
"604 662 OFFCURVE",
"604 714 CURVE",
"573 737 OFFCURVE",
"542 745 OFFCURVE",
"478 717 CURVE",
"512 598 LINE",
"348 377 LINE",
"327 338 LINE",
"324 338 LINE",
"238 558 LINE",
"202 728 LINE"
);
}
);
width = 567;
},
{
anchors = (
{
name = top;
position = "{427, 753}";
}
);
layerId = "A99E0968-31B7-4C8F-B576-AD2EC1F95564";
name = "Bold Italic";
paths = (
{
closed = 1;
nodes = (
"240 785 OFFCURVE",
"148 756 OFFCURVE",
"84 642 CURVE",
"144 562 OFFCURVE",
"221 431 OFFCURVE",
"289 297 CURVE",
"270 219 OFFCURVE",
"242 126 OFFCURVE",
"216 55 CURVE",
"252 0 OFFCURVE",
"416 -21 OFFCURVE",
"477 31 CURVE",
"485 156 OFFCURVE",
"490 242 OFFCURVE",
"502 343 CURVE",
"575 425 OFFCURVE",
"657 496 OFFCURVE",
"700 554 CURVE SMOOTH",
"742 610 OFFCURVE",
"766 650 OFFCURVE",
"772 713 CURVE",
"726 770 OFFCURVE",
"624 788 OFFCURVE",
"502 729 CURVE",
"553 527 LINE",
"441 399 LINE",
"408 334 LINE",
"399 334 LINE",
"334 528 LINE",
"334 753 LINE"
);
}
);
width = 716;
}
);
unicode = 0059;
},
{
glyphname = Z;
lastChange = "2014-11-06 13:25:25 +0000";
layers = (
{
anchors = (
{
name = top;
position = "{365, 796}";
}
);
layerId = "5A85B07D-1A67-4978-877A-FA33898BA300";
name = "Light Italic";
paths = (
{
closed = 1;
nodes = (
"90 41 LINE",
"181 45 OFFCURVE",
"369 30 OFFCURVE",
"442 0 CURVE",
"495 38 OFFCURVE",
"530 84 OFFCURVE",
"541 126 CURVE",
"529 154 OFFCURVE",
"507 163 OFFCURVE",
"455 152 CURVE",
"449 123 OFFCURVE",
"443 105 OFFCURVE",
"428 76 CURVE",
"345 90 OFFCURVE",
"213 87 OFFCURVE",
"111 87 CURVE",
"106 96 LINE",
"252 229 OFFCURVE",
"546 558 OFFCURVE",
"585 713 CURVE",
"573 732 OFFCURVE",
"561 742 OFFCURVE",
"513 744 CURVE",
"494 702 LINE",
"409 700 OFFCURVE",
"246 713 OFFCURVE",
"172 735 CURVE",
"110 708 OFFCURVE",
"84 644 OFFCURVE",
"73 593 CURVE",
"85 569 OFFCURVE",
"109 561 OFFCURVE",
"158 570 CURVE",
"160 605 OFFCURVE",
"168 640 OFFCURVE",
"190 670 CURVE",
"249 657 OFFCURVE",
"384 656 OFFCURVE",
"475 657 CURVE",
"482 649 LINE",
"364 397 OFFCURVE",
"5 124 OFFCURVE",
"4 54 CURVE SMOOTH",
"3 33 OFFCURVE",
"6 18 OFFCURVE",
"17 0 CURVE",
"64 -4 OFFCURVE",
"82 3 OFFCURVE",
"93 19 CURVE",
"85 36 LINE"
);
}
);
width = 571;
},
{
anchors = (
{
name = top;
position = "{465, 753}";
}
);
layerId = "A99E0968-31B7-4C8F-B576-AD2EC1F95564";
name = "Bold Italic";
paths = (
{
closed = 1;
nodes = (
"243 80 LINE",
"361 52 OFFCURVE",
"464 31 OFFCURVE",
"595 0 CURVE",
"703 65 OFFCURVE",
"738 105 OFFCURVE",
"764 183 CURVE",
"744 252 OFFCURVE",
"676 287 OFFCURVE",
"548 260 CURVE",
"540 220 OFFCURVE",
"536 199 OFFCURVE",
"517 157 CURVE",
"455 155 OFFCURVE",
"349 162 OFFCURVE",
"289 168 CURVE",
"288 176 LINE",
"417 280 OFFCURVE",
"722 498 OFFCURVE",
"804 645 CURVE",
"791 753 OFFCURVE",
"703 764 OFFCURVE",
"596 763 CURVE",
"567 681 LINE",
"484 707 OFFCURVE",
"377 738 OFFCURVE",
"262 765 CURVE",
"169 733 OFFCURVE",
"112 672 OFFCURVE",
"76 584 CURVE",
"103 518 OFFCURVE",
"169 491 OFFCURVE",
"286 503 CURVE",
"300 548 OFFCURVE",
"319 584 OFFCURVE",
"354 623 CURVE",
"427 608 OFFCURVE",
"490 599 OFFCURVE",
"521 595 CURVE",
"527 586 LINE",
"417 419 OFFCURVE",
"24 232 OFFCURVE",
"24 90 CURVE SMOOTH",
"24 58 OFFCURVE",
"32 28 OFFCURVE",
"64 4 CURVE",
"140 -6 OFFCURVE",
"194 2 OFFCURVE",
"246 36 CURVE",
"237 77 LINE"
);
}
);
width = 776;
}
);
unicode = 005A;
},
{
glyphname = a;
lastChange = "2014-11-06 13:25:25 +0000";
layers = (
{
anchors = (
{
name = ogonek;
position = "{385, 0}";
},
{
name = top;
position = "{353, 594}";
}
);
layerId = "5A85B07D-1A67-4978-877A-FA33898BA300";
name = "Light Italic";
paths = (
{
closed = 1;
nodes = (
"338 242 LINE",
"282 189 OFFCURVE",
"225 134 OFFCURVE",
"162 72 CURVE",
"118 98 OFFCURVE",
"106 132 OFFCURVE",
"106 181 CURVE SMOOTH",
"106 319 OFFCURVE",
"171 440 OFFCURVE",
"287 487 CURVE",
"332 457 OFFCURVE",
"351 432 OFFCURVE",
"372 389 CURVE",
"405 411 LINE",
"383 467 OFFCURVE",
"339 519 OFFCURVE",
"291 540 CURVE",
"159 540 OFFCURVE",
"27 346 OFFCURVE",
"30 175 CURVE SMOOTH",
"31 80 OFFCURVE",
"85 15 OFFCURVE",
"190 13 CURVE",
"248 82 OFFCURVE",
"318 154 OFFCURVE",
"359 212 CURVE"
);
},
{
closed = 1;
nodes = (
"484 538 OFFCURVE",
"457 546 OFFCURVE",
"407 546 CURVE",
"400 528 OFFCURVE",
"393 495 OFFCURVE",
"391 446 CURVE",
"372 390 LINE",
"338 242 LINE",
"319 164 LINE",
"332 154 LINE",
"287 29 LINE",
"308 6 OFFCURVE",
"346 -5 OFFCURVE",
"389 0 CURVE",
"400 136 OFFCURVE",
"411 262 OFFCURVE",
"427 367 CURVE",
"502 514 LINE"
);
}
);
width = 501;
},
{
anchors = (
{
name = ogonek;
position = "{555, 0}";
},
{
name = top;
position = "{475, 563}";
}
);
layerId = "A99E0968-31B7-4C8F-B576-AD2EC1F95564";
name = "Bold Italic";
paths = (
{
closed = 1;
nodes = (
"496 288 LINE",
"443 248 OFFCURVE",
"375 197 OFFCURVE",
"318 158 CURVE",
"294 174 OFFCURVE",
"282 205 OFFCURVE",
"282 239 CURVE SMOOTH",
"282 309 OFFCURVE",
"334 393 OFFCURVE",
"422 438 CURVE",
"453 420 OFFCURVE",
"484 384 OFFCURVE",
"504 343 CURVE",
"559 381 LINE",
"534 436 OFFCURVE",
"489 521 OFFCURVE",
"437 562 CURVE",
"184 554 OFFCURVE",
"36 378 OFFCURVE",
"36 235 CURVE SMOOTH",
"36 122 OFFCURVE",
"111 23 OFFCURVE",
"304 15 CURVE",
"383 92 OFFCURVE",
"491 190 OFFCURVE",
"539 233 CURVE"
);
},
{
closed = 1;
nodes = (
"754 567 OFFCURVE",
"688 578 OFFCURVE",
"549 552 CURVE",
"529 520 OFFCURVE",
"526 485 OFFCURVE",
"529 437 CURVE",
"504 343 LINE",
"496 288 LINE",
"450 173 LINE",
"478 143 LINE",
"435 57 LINE",
"512 -8 OFFCURVE",
"656 -19 OFFCURVE",
"698 31 CURVE",
"684 139 OFFCURVE",
"678 235 OFFCURVE",
"679 326 CURVE",
"778 499 LINE"
);
}
);
width = 782;
}
);
unicode = 0061;
},
{
glyphname = aogonek;
lastChange = "2014-11-06 13:25:25 +0000";
layers = (
{
background = {
paths = (
{
closed = 1;
nodes = (
"392 -14 CURVE",
"396 1 OFFCURVE",
"384 9 OFFCURVE",
"356 9 CURVE",
"275 -8 OFFCURVE",
"230 -40 OFFCURVE",
"221 -95 CURVE SMOOTH",
"211 -154 OFFCURVE",
"275 -198 OFFCURVE",
"352 -198 CURVE SMOOTH",
"406 -198 OFFCURVE",
"451 -171 OFFCURVE",
"483 -137 CURVE",
"479 -119 OFFCURVE",
"470 -113 OFFCURVE",
"456 -112 CURVE",
"429 -135 OFFCURVE",
"393 -147 OFFCURVE",
"358 -147 CURVE SMOOTH",
"325 -147 OFFCURVE",
"298 -138 OFFCURVE",
"284 -113 CURVE",
"291 -62 OFFCURVE",
"329 -26 OFFCURVE"
);
}
);
};
components = (
{
name = a;
transform = "{1, 0, 0, 1, 0, 0}";
}
);
layerId = "5A85B07D-1A67-4978-877A-FA33898BA300";
name = "Light Italic";
paths = (
{
closed = 1;
nodes = (
"389 0 CURVE",
"390 15 OFFCURVE",
"378 32 OFFCURVE",
"364 32 CURVE",
"273 11 OFFCURVE",
"204 -59 OFFCURVE",
"204 -117 CURVE SMOOTH",
"204 -162 OFFCURVE",
"248 -198 OFFCURVE",
"317 -198 CURVE SMOOTH",
"365 -198 OFFCURVE",
"409 -180 OFFCURVE",
"443 -137 CURVE",
"439 -119 OFFCURVE",
"430 -113 OFFCURVE",
"416 -112 CURVE",
"375 -156 OFFCURVE",
"299 -160 OFFCURVE",
"256 -128 CURVE",
"272 -58 OFFCURVE",
"320 -18 OFFCURVE"
);
}
);
width = 496;
},
{
background = {
paths = (
{
closed = 1;
nodes = (
"630 -7 CURVE",
"629 21 OFFCURVE",
"604 41 OFFCURVE",
"564 50 CURVE",
"436 40 OFFCURVE",
"320 -7 OFFCURVE",
"306 -108 CURVE SMOOTH",
"290 -212 OFFCURVE",
"393 -268 OFFCURVE",
"515 -268 CURVE SMOOTH",
"613 -268 OFFCURVE",
"682 -235 OFFCURVE",
"738 -175 CURVE",
"740 -145 OFFCURVE",
"725 -120 OFFCURVE",
"706 -119 CURVE",
"676 -145 OFFCURVE",
"633 -163 OFFCURVE",
"591 -163 CURVE SMOOTH",
"551 -163 OFFCURVE",
"517 -153 OFFCURVE",
"502 -122 CURVE",
"509 -61 OFFCURVE",
"575 -18 OFFCURVE"
);
}
);
};
components = (
{
name = a;
transform = "{1, 0, 0, 1, 0, 0}";
}
);
layerId = "A99E0968-31B7-4C8F-B576-AD2EC1F95564";
name = "Bold Italic";
paths = (
{
closed = 1;
nodes = (
"639 3 CURVE",
"644 50 OFFCURVE",
"635 70 OFFCURVE",
"565 75 CURVE",
"427 33 OFFCURVE",
"351 -57 OFFCURVE",
"351 -136 CURVE SMOOTH",
"351 -207 OFFCURVE",
"415 -268 OFFCURVE",
"536 -268 CURVE SMOOTH",
"618 -268 OFFCURVE",
"692 -230 OFFCURVE",
"738 -175 CURVE",
"738 -135 OFFCURVE",
"727 -111 OFFCURVE",
"679 -115 CURVE",
"621 -151 OFFCURVE",
"562 -170 OFFCURVE",
"489 -147 CURVE",
"493 -85 OFFCURVE",
"558 -21 OFFCURVE"
);
}
);
width = 782;
}
);
unicode = 0105;
},
{
glyphname = ae;
lastChange = "2014-11-06 13:25:25 +0000";
layers = (
{
layerId = "5A85B07D-1A67-4978-877A-FA33898BA300";
name = "Light Italic";
paths = (
{
closed = 1;
nodes = (
"664 112 OFFCURVE",
"595 82 OFFCURVE",
"531 58 CURVE",
"450 87 OFFCURVE",
"418 139 OFFCURVE",
"409 210 CURVE",
"518 232 OFFCURVE",
"622 267 OFFCURVE",
"735 321 CURVE",
"742 423 OFFCURVE",
"706 516 OFFCURVE",
"592 548 CURVE",
"543 535 OFFCURVE",
"483 495 OFFCURVE",
"451 459 CURVE",
"482 524 LINE",
"468 546 OFFCURVE",
"441 549 OFFCURVE",
"407 546 CURVE",
"399 526 OFFCURVE",
"393 497 OFFCURVE",
"390 444 CURVE",
"366 486 OFFCURVE",
"329 524 OFFCURVE",
"291 540 CURVE",
"159 540 OFFCURVE",
"27 346 OFFCURVE",
"30 175 CURVE SMOOTH",
"31 80 OFFCURVE",
"85 15 OFFCURVE",
"190 13 CURVE",
"233 64 OFFCURVE",
"281 116 OFFCURVE",
"321 163 CURVE",
"332 154 LINE",
"287 29 LINE",
"308 6 OFFCURVE",
"322 -5 OFFCURVE",
"365 0 CURVE",
"381 106 LINE",
"406 59 OFFCURVE",
"456 19 OFFCURVE",
"522 0 CURVE",
"590 11 OFFCURVE",
"694 69 OFFCURVE",
"730 109 CURVE",
"732 139 OFFCURVE",
"728 151 OFFCURVE",
"700 151 CURVE"
);
},
{
closed = 1;
nodes = (
"590 494 LINE",
"651 458 OFFCURVE",
"661 414 OFFCURVE",
"662 348 CURVE",
"582 310 OFFCURVE",
"501 283 OFFCURVE",
"408 260 CURVE",
"410 349 OFFCURVE",
"485 446 OFFCURVE",
"576 491 CURVE"
);
},
{
closed = 1;
nodes = (
"106 319 OFFCURVE",
"171 440 OFFCURVE",
"287 487 CURVE",
"332 457 OFFCURVE",
"351 432 OFFCURVE",
"372 389 CURVE",
"361 357 OFFCURVE",
"341 292 OFFCURVE",
"338 242 CURVE",
"282 189 OFFCURVE",
"225 134 OFFCURVE",
"162 72 CURVE",
"118 98 OFFCURVE",
"106 132 OFFCURVE",
"106 181 CURVE SMOOTH"
);
}
);
width = 788;
},
{
layerId = "A99E0968-31B7-4C8F-B576-AD2EC1F95564";
name = "Bold Italic";
paths = (
{
closed = 1;
nodes = (
"921 162 OFFCURVE",
"854 136 OFFCURVE",
"773 123 CURVE",
"743 148 OFFCURVE",
"729 172 OFFCURVE",
"723 204 CURVE",
"824 224 OFFCURVE",
"968 276 OFFCURVE",
"1045 315 CURVE",
"1101 446 OFFCURVE",
"1059 561 OFFCURVE",
"900 573 CURVE",
"765 552 OFFCURVE",
"706 499 OFFCURVE",
"644 418 CURVE",
"686 544 LINE",
"674 571 OFFCURVE",
"600 572 OFFCURVE",
"546 552 CURVE",
"527 521 OFFCURVE",
"523 487 OFFCURVE",
"526 442 CURVE",
"501 487 OFFCURVE",
"482 534 OFFCURVE",
"447 562 CURVE",
"194 554 OFFCURVE",
"46 378 OFFCURVE",
"46 235 CURVE SMOOTH",
"46 122 OFFCURVE",
"121 23 OFFCURVE",
"314 15 CURVE",
"362 62 OFFCURVE",
"403 111 OFFCURVE",
"453 156 CURVE",
"462 146 LINE",
"427 52 LINE",
"436 7 OFFCURVE",
"533 -17 OFFCURVE",
"588 12 CURVE",
"603 136 LINE",
"624 82 OFFCURVE",
"664 38 OFFCURVE",
"750 0 CURVE",
"839 10 OFFCURVE",
"987 55 OFFCURVE",
"1045 113 CURVE",
"1059 181 OFFCURVE",
"1027 203 OFFCURVE",
"980 201 CURVE"
);
},
{
closed = 1;
nodes = (
"818 458 LINE",
"841 439 OFFCURVE",
"869 403 OFFCURVE",
"850 334 CURVE",
"817 316 OFFCURVE",
"769 294 OFFCURVE",
"718 276 CURVE",
"721 333 OFFCURVE",
"745 393 OFFCURVE",
"797 448 CURVE"
);
},
{
closed = 1;
nodes = (
"292 309 OFFCURVE",
"344 393 OFFCURVE",
"432 438 CURVE",
"462 421 OFFCURVE",
"492 386 OFFCURVE",
"512 347 CURVE",
"501 324 OFFCURVE",
"493 300 OFFCURVE",
"488 275 CURVE",
"438 237 OFFCURVE",
"379 193 OFFCURVE",
"328 158 CURVE",
"304 174 OFFCURVE",
"292 205 OFFCURVE",
"292 239 CURVE SMOOTH"
);
}
);
width = 1114;
}
);
unicode = 00E6;
},
{
glyphname = b;
lastChange = "2014-11-06 13:25:25 +0000";
layers = (
{
layerId = "5A85B07D-1A67-4978-877A-FA33898BA300";
name = "Light Italic";
paths = (
{
closed = 1;
nodes = (
"255 804 LINE",
"221 822 OFFCURVE",
"194 814 OFFCURVE",
"150 787 CURVE",
"132 540 LINE",
"103 375 OFFCURVE",
"72 222 OFFCURVE",
"37 77 CURVE",
"41 40 OFFCURVE",
"70 17 OFFCURVE",
"119 0 CURVE",
"308 36 OFFCURVE",
"433 160 OFFCURVE",
"473 326 CURVE",
"449 432 OFFCURVE",
"418 498 OFFCURVE",
"302 540 CURVE",
"245 487 OFFCURVE",
"179 416 OFFCURVE",
"125 336 CURVE",
"151 302 LINE",
"204 374 OFFCURVE",
"258 427 OFFCURVE",
"302 469 CURVE",
"364 442 OFFCURVE",
"390 401 OFFCURVE",
"402 328 CURVE",
"378 202 OFFCURVE",
"274 83 OFFCURVE",
"91 56 CURVE",
"108 49 LINE",
"133 158 OFFCURVE",
"147 252 OFFCURVE",
"166 370 CURVE",
"145 393 LINE",
"174 447 LINE",
"198 576 LINE"
);
}
);
width = 491;
},
{
layerId = "A99E0968-31B7-4C8F-B576-AD2EC1F95564";
name = "Bold Italic";
paths = (
{
closed = 1;
nodes = (
"389 837 LINE",
"327 861 OFFCURVE",
"256 862 OFFCURVE",
"144 813 CURVE",
"159 538 LINE",
"134 421 OFFCURVE",
"89 253 OFFCURVE",
"49 144 CURVE",
"70 85 OFFCURVE",
"125 18 OFFCURVE",
"271 -1 CURVE",
"458 40 OFFCURVE",
"663 103 OFFCURVE",
"727 320 CURVE",
"706 479 OFFCURVE",
"637 552 OFFCURVE",
"419 562 CURVE",
"346 481 OFFCURVE",
"302 422 OFFCURVE",
"228 337 CURVE",
"272 286 LINE",
"333 342 OFFCURVE",
"377 386 OFFCURVE",
"430 422 CURVE",
"473 404 OFFCURVE",
"494 382 OFFCURVE",
"504 329 CURVE",
"487 224 OFFCURVE",
"387 138 OFFCURVE",
"253 102 CURVE",
"274 87 LINE",
"289 173 OFFCURVE",
"304 274 OFFCURVE",
"303 386 CURVE",
"271 417 LINE",
"319 498 LINE",
"325 564 LINE"
);
}
);
width = 735;
}
);
unicode = 0062;
},
{
glyphname = c;
lastChange = "2014-11-06 13:25:25 +0000";
layers = (
{
anchors = (
{
name = bottom;
position = "{266, 0}";
},
{
name = top;
position = "{323, 594}";
}
);
layerId = "5A85B07D-1A67-4978-877A-FA33898BA300";
name = "Light Italic";
paths = (
{
closed = 1;
nodes = (
"437 456 OFFCURVE",
"383 528 OFFCURVE",
"306 540 CURVE",
"193 516 OFFCURVE",
"105 422 OFFCURVE",
"57 342 CURVE",
"46 311 OFFCURVE",
"40 279 OFFCURVE",
"38 247 CURVE SMOOTH",
"32 140 OFFCURVE",
"82 35 OFFCURVE",
"221 0 CURVE",
"286 11 OFFCURVE",
"389 65 OFFCURVE",
"428 108 CURVE",
"430 133 OFFCURVE",
"427 150 OFFCURVE",
"397 149 CURVE",
"363 113 OFFCURVE",
"288 76 OFFCURVE",
"231 57 CURVE",
"132 98 OFFCURVE",
"110 164 OFFCURVE",
"116 264 CURVE SMOOTH",
"119 335 OFFCURVE",
"186 438 OFFCURVE",
"283 485 CURVE",
"301 487 LINE",
"338 458 OFFCURVE",
"354 434 OFFCURVE",
"357 374 CURVE",
"379 361 OFFCURVE",
"416 367 OFFCURVE",
"442 388 CURVE"
);
}
);
width = 483;
},
{
anchors = (
{
name = bottom;
position = "{377, 0}";
},
{
name = top;
position = "{375, 563}";
}
);
layerId = "A99E0968-31B7-4C8F-B576-AD2EC1F95564";
name = "Bold Italic";
paths = (
{
closed = 1;
nodes = (
"585 502 OFFCURVE",
"557 549 OFFCURVE",
"419 574 CURVE",
"306 551 OFFCURVE",
"213 503 OFFCURVE",
"135 440 CURVE",
"79 383 OFFCURVE",
"36 322 OFFCURVE",
"36 227 CURVE SMOOTH",
"36 121 OFFCURVE",
"101 22 OFFCURVE",
"297 0 CURVE",
"420 15 OFFCURVE",
"529 65 OFFCURVE",
"588 122 CURVE",
"606 186 OFFCURVE",
"576 213 OFFCURVE",
"529 213 CURVE",
"468 168 OFFCURVE",
"397 139 OFFCURVE",
"330 122 CURVE",
"289 168 OFFCURVE",
"274 215 OFFCURVE",
"275 266 CURVE SMOOTH",
"276 324 OFFCURVE",
"288 386 OFFCURVE",
"336 454 CURVE",
"368 462 LINE",
"385 421 OFFCURVE",
"402 379 OFFCURVE",
"394 314 CURVE",
"518 299 OFFCURVE",
"599 330 OFFCURVE",
"616 404 CURVE"
);
}
);
width = 636;
}
);
unicode = 0063;
},
{
glyphname = d;
lastChange = "2014-11-06 13:25:25 +0000";
layers = (
{
layerId = "5A85B07D-1A67-4978-877A-FA33898BA300";
name = "Light Italic";
paths = (
{
closed = 1;
nodes = (
"338 242 LINE",
"282 189 OFFCURVE",
"225 134 OFFCURVE",
"162 72 CURVE",
"118 98 OFFCURVE",
"106 132 OFFCURVE",
"106 181 CURVE SMOOTH",
"106 319 OFFCURVE",
"175 445 OFFCURVE",
"292 492 CURVE",
"336 462 OFFCURVE",
"351 432 OFFCURVE",
"372 389 CURVE",
"405 411 LINE",
"383 467 OFFCURVE",
"353 540 OFFCURVE",
"291 540 CURVE SMOOTH",
"159 540 OFFCURVE",
"27 346 OFFCURVE",
"30 175 CURVE SMOOTH",
"31 80 OFFCURVE",
"85 15 OFFCURVE",
"190 13 CURVE",
"248 82 OFFCURVE",
"318 154 OFFCURVE",
"359 212 CURVE"
);
},
{
closed = 1;
nodes = (
"518 804 LINE",
"485 822 OFFCURVE",
"458 814 OFFCURVE",
"410 787 CURVE",
"405 540 LINE",
"394 487 OFFCURVE",
"384 440 OFFCURVE",
"372 389 CURVE",
"338 242 LINE",
"311 173 LINE",
"333 154 LINE",
"288 24 LINE",
"303 2 OFFCURVE",
"328 -4 OFFCURVE",
"374 0 CURVE",
"397 141 OFFCURVE",
"437 408 OFFCURVE",
"460 580 CURVE"
);
}
);
width = 462;
},
{
layerId = "A99E0968-31B7-4C8F-B576-AD2EC1F95564";
name = "Bold Italic";
paths = (
{
closed = 1;
nodes = (
"496 288 LINE",
"443 248 OFFCURVE",
"374 197 OFFCURVE",
"317 158 CURVE",
"293 174 OFFCURVE",
"280 205 OFFCURVE",
"282 239 CURVE SMOOTH",
"285 308 OFFCURVE",
"333 392 OFFCURVE",
"422 437 CURVE",
"458 417 OFFCURVE",
"485 385 OFFCURVE",
"513 343 CURVE",
"559 381 LINE",
"539 441 OFFCURVE",
"491 522 OFFCURVE",
"447 562 CURVE",
"193 559 OFFCURVE",
"41 388 OFFCURVE",
"35 235 CURVE SMOOTH",
"30 119 OFFCURVE",
"122 17 OFFCURVE",
"302 15 CURVE",
"386 97 OFFCURVE",
"493 193 OFFCURVE",
"539 233 CURVE"
);
},
{
closed = 1;
nodes = (
"800 837 LINE",
"741 864 OFFCURVE",
"667 862 OFFCURVE",
"554 813 CURVE",
"566 538 LINE",
"553 470 OFFCURVE",
"535 404 OFFCURVE",
"513 343 CURVE",
"496 288 LINE",
"437 172 LINE",
"465 140 LINE",
"402 58 LINE",
"460 -11 OFFCURVE",
"613 -15 OFFCURVE",
"667 31 CURVE",
"693 262 OFFCURVE",
"714 425 OFFCURVE",
"728 589 CURVE"
);
}
);
width = 751;
}
);
unicode = 0064;
},
{
glyphname = eth;
lastChange = "2014-11-06 13:25:25 +0000";
layers = (
{
layerId = "5A85B07D-1A67-4978-877A-FA33898BA300";
name = "Light Italic";
paths = (
{
closed = 1;
nodes = (
"248 804 OFFCURVE",
"234 797 OFFCURVE",
"222 769 CURVE",
"311 662 LINE",
"376 490 OFFCURVE",
"402 195 OFFCURVE",
"202 55 CURVE",
"137 83 OFFCURVE",
"103 139 OFFCURVE",
"103 217 CURVE SMOOTH",
"103 319 OFFCURVE",
"146 416 OFFCURVE",
"247 474 CURVE",
"307 442 OFFCURVE",
"330 400 OFFCURVE",
"359 345 CURVE",
"384 365 LINE",
"357 432 OFFCURVE",
"340 482 OFFCURVE",
"259 536 CURVE",
"108 480 OFFCURVE",
"32 342 OFFCURVE",
"32 218 CURVE SMOOTH",
"32 112 OFFCURVE",
"89 23 OFFCURVE",
"207 0 CURVE",
"359 73 OFFCURVE",
"414 243 OFFCURVE",
"414 408 CURVE SMOOTH",
"414 556 OFFCURVE",
"366 708 OFFCURVE",
"284 801 CURVE"
);
},
{
closed = 1;
nodes = (
"490 716 OFFCURVE",
"471 741 OFFCURVE",
"450 744 CURVE",
"309 685 LINE",
"166 660 LINE",
"150 645 OFFCURVE",
"159 615 OFFCURVE",
"190 604 CURVE",
"341 653 LINE",
"474 691 LINE"
);
}
);
width = 456;
},
{
layerId = "A99E0968-31B7-4C8F-B576-AD2EC1F95564";
name = "Bold Italic";
paths = (
{
closed = 1;
nodes = (
"374 869 OFFCURVE",
"332 854 OFFCURVE",
"330 799 CURVE",
"422 714 LINE",
"506 562 OFFCURVE",
"514 305 OFFCURVE",
"322 106 CURVE",
"280 148 OFFCURVE",
"261 197 OFFCURVE",
"261 264 CURVE SMOOTH",
"261 329 OFFCURVE",
"305 394 OFFCURVE",
"382 437 CURVE",
"415 412 OFFCURVE",
"446 379 OFFCURVE",
"478 324 CURVE",
"525 368 LINE",
"491 434 OFFCURVE",
"441 518 OFFCURVE",
"396 550 CURVE",
"209 551 OFFCURVE",
"43 405 OFFCURVE",
"40 267 CURVE SMOOTH",
"38 136 OFFCURVE",
"149 11 OFFCURVE",
"327 0 CURVE",
"566 77 OFFCURVE",
"659 248 OFFCURVE",
"662 454 CURVE SMOOTH",
"665 621 OFFCURVE",
"563 777 OFFCURVE",
"433 876 CURVE"
);
},
{
closed = 1;
nodes = (
"742 783 OFFCURVE",
"733 809 OFFCURVE",
"673 830 CURVE",
"444 723 LINE",
"281 704 LINE",
"264 650 OFFCURVE",
"265 632 OFFCURVE",
"329 591 CURVE",
"582 702 LINE",
"726 728 LINE"
);
}
);
width = 678;
}
);
unicode = 00F0;
},
{
glyphname = dcaron;
lastChange = "2014-11-06 13:25:25 +0000";
layers = (
{
components = (
{
name = d;
transform = "{1, 0, 0, 1, 0, 0}";
}
);
layerId = "5A85B07D-1A67-4978-877A-FA33898BA300";
name = "Light Italic";
paths = (
{
closed = 1;
nodes = (
"573 682 CURVE",
"615 720 OFFCURVE",
"670 791 OFFCURVE",
"677 857 CURVE",
"661 901 OFFCURVE",
"614 925 OFFCURVE",
"572 891 CURVE",
"595 779 LINE",
"541 696 LINE",
"548 685 OFFCURVE",
"562 681 OFFCURVE"
);
}
);
width = 575;
},
{
components = (
{
name = d;
transform = "{1, 0, 0, 1, 0, 0}";
}
);
layerId = "A99E0968-31B7-4C8F-B576-AD2EC1F95564";
name = "Bold Italic";
paths = (
{
closed = 1;
nodes = (
"884 621 CURVE",
"1000 707 OFFCURVE",
"1048 799 OFFCURVE",
"1054 890 CURVE",
"1037 938 OFFCURVE",
"953 996 OFFCURVE",
"859 925 CURVE",
"876 756 LINE",
"813 663 LINE",
"822 636 OFFCURVE",
"844 622 OFFCURVE"
);
}
);
width = 822;
}
);
unicode = 010F;
},
{
glyphname = e;
lastChange = "2014-11-06 13:25:25 +0000";
layers = (
{
anchors = (
{
name = ogonek;
position = "{255, 0}";
},
{
name = top;
position = "{293, 594}";
}
);
layerId = "5A85B07D-1A67-4978-877A-FA33898BA300";
name = "Light Italic";
paths = (
{
closed = 1;
nodes = (
"94 206 LINE",
"210 229 OFFCURVE",
"308 264 OFFCURVE",
"428 321 CURVE",
"436 423 OFFCURVE",
"399 516 OFFCURVE",
"275 548 CURVE",
"154 499 OFFCURVE",
"92 416 OFFCURVE",
"51 347 CURVE",
"41 314 OFFCURVE",
"33 282 OFFCURVE",
"32 248 CURVE SMOOTH",
"30 129 OFFCURVE",
"90 30 OFFCURVE",
"227 0 CURVE",
"284 13 OFFCURVE",
"391 65 OFFCURVE",
"419 103 CURVE",
"421 133 OFFCURVE",
"417 145 OFFCURVE",
"389 145 CURVE",
"348 106 OFFCURVE",
"283 77 OFFCURVE",
"230 58 CURVE",
"124 97 OFFCURVE",
"104 167 OFFCURVE",
"105 267 CURVE SMOOTH",
"107 340 OFFCURVE",
"178 447 OFFCURVE",
"268 491 CURVE",
"282 494 LINE",
"346 462 OFFCURVE",
"359 419 OFFCURVE",
"359 348 CURVE",
"268 307 OFFCURVE",
"190 279 OFFCURVE",
"85 254 CURVE"
);
}
);
width = 481;
},
{
anchors = (
{
name = ogonek;
position = "{385, 0}";
},
{
name = top;
position = "{400, 563}";
}
);
layerId = "A99E0968-31B7-4C8F-B576-AD2EC1F95564";
name = "Bold Italic";
paths = (
{
closed = 1;
nodes = (
"248 199 LINE",
"350 215 OFFCURVE",
"512 273 OFFCURVE",
"596 315 CURVE",
"652 446 OFFCURVE",
"610 561 OFFCURVE",
"451 573 CURVE",
"319 556 OFFCURVE",
"216 499 OFFCURVE",
"129 441 CURVE",
"73 382 OFFCURVE",
"38 311 OFFCURVE",
"34 232 CURVE SMOOTH",
"29 125 OFFCURVE",
"102 25 OFFCURVE",
"276 0 CURVE",
"379 8 OFFCURVE",
"530 48 OFFCURVE",
"596 113 CURVE",
"610 181 OFFCURVE",
"578 203 OFFCURVE",
"531 201 CURVE",
"466 160 OFFCURVE",
"395 133 OFFCURVE",
"313 123 CURVE",
"282 163 OFFCURVE",
"266 202 OFFCURVE",
"269 270 CURVE SMOOTH",
"271 329 OFFCURVE",
"294 391 OFFCURVE",
"348 448 CURVE",
"369 458 LINE",
"392 439 OFFCURVE",
"420 403 OFFCURVE",
"401 334 CURVE",
"361 312 OFFCURVE",
"298 284 OFFCURVE",
"235 264 CURVE"
);
}
);
width = 645;
}
);
unicode = 0065;
},
{
glyphname = eogonek;
lastChange = "2014-11-06 13:25:25 +0000";
layers = (
{
background = {
paths = (
{
closed = 1;
nodes = (
"262 -14 CURVE",
"266 1 OFFCURVE",
"254 9 OFFCURVE",
"226 9 CURVE",
"145 -8 OFFCURVE",
"100 -40 OFFCURVE",
"91 -95 CURVE SMOOTH",
"81 -154 OFFCURVE",
"145 -198 OFFCURVE",
"222 -198 CURVE SMOOTH",
"276 -198 OFFCURVE",
"321 -171 OFFCURVE",
"353 -137 CURVE",
"349 -119 OFFCURVE",
"340 -113 OFFCURVE",
"326 -112 CURVE",
"299 -135 OFFCURVE",
"263 -147 OFFCURVE",
"228 -147 CURVE SMOOTH",
"195 -147 OFFCURVE",
"168 -138 OFFCURVE",
"154 -113 CURVE",
"161 -62 OFFCURVE",
"199 -26 OFFCURVE"
);
}
);
};
components = (
{
name = e;
transform = "{1, 0, 0, 1, 0, 0}";
}
);
layerId = "5A85B07D-1A67-4978-877A-FA33898BA300";
name = "Light Italic";
paths = (
{
closed = 1;
nodes = (
"274 15 CURVE",
"277 35 OFFCURVE",
"265 43 OFFCURVE",
"247 45 CURVE",
"151 8 OFFCURVE",
"103 -54 OFFCURVE",
"103 -106 CURVE SMOOTH",
"103 -157 OFFCURVE",
"162 -198 OFFCURVE",
"231 -198 CURVE SMOOTH",
"296 -198 OFFCURVE",
"341 -171 OFFCURVE",
"373 -137 CURVE",
"372 -117 OFFCURVE",
"363 -111 OFFCURVE",
"346 -112 CURVE",
"317 -133 OFFCURVE",
"282 -147 OFFCURVE",
"248 -147 CURVE SMOOTH",
"217 -147 OFFCURVE",
"176 -139 OFFCURVE",
"160 -110 CURVE",
"170 -65 OFFCURVE",
"221 -6 OFFCURVE"
);
}
);
width = 479;
},
{
background = {
paths = (
{
closed = 1;
nodes = (
"460 -7 CURVE",
"459 21 OFFCURVE",
"434 41 OFFCURVE",
"394 50 CURVE",
"266 40 OFFCURVE",
"150 -7 OFFCURVE",
"136 -108 CURVE SMOOTH",
"120 -212 OFFCURVE",
"223 -268 OFFCURVE",
"345 -268 CURVE SMOOTH",
"443 -268 OFFCURVE",
"512 -235 OFFCURVE",
"568 -175 CURVE",
"570 -145 OFFCURVE",
"555 -120 OFFCURVE",
"536 -119 CURVE",
"506 -145 OFFCURVE",
"463 -163 OFFCURVE",
"421 -163 CURVE SMOOTH",
"381 -163 OFFCURVE",
"347 -153 OFFCURVE",
"332 -122 CURVE",
"339 -61 OFFCURVE",
"405 -18 OFFCURVE"
);
}
);
};
components = (
{
name = e;
transform = "{1, 0, 0, 1, 0, 0}";
}
);
layerId = "A99E0968-31B7-4C8F-B576-AD2EC1F95564";
name = "Bold Italic";
paths = (
{
closed = 1;
nodes = (
"483 47 CURVE",
"489 87 OFFCURVE",
"464 107 OFFCURVE",
"423 104 CURVE",
"253 73 OFFCURVE",
"145 -37 OFFCURVE",
"145 -129 CURVE SMOOTH",
"145 -202 OFFCURVE",
"211 -268 OFFCURVE",
"341 -268 CURVE SMOOTH",
"446 -268 OFFCURVE",
"536 -216 OFFCURVE",
"569 -156 CURVE",
"569 -122 OFFCURVE",
"555 -97 OFFCURVE",
"507 -101 CURVE",
"464 -139 OFFCURVE",
"406 -159 OFFCURVE",
"353 -159 CURVE SMOOTH",
"322 -159 OFFCURVE",
"293 -150 OFFCURVE",
"275 -137 CURVE",
"303 -48 OFFCURVE",
"408 29 OFFCURVE"
);
}
);
width = 660;
}
);
unicode = 0119;
},
{
glyphname = f;
lastChange = "2014-11-06 13:25:25 +0000";
layers = (
{
layerId = "5A85B07D-1A67-4978-877A-FA33898BA300";
name = "Light Italic";
paths = (
{
closed = 1;
nodes = (
"234 741 OFFCURVE",
"260 754 OFFCURVE",
"289 761 CURVE",
"326 732 OFFCURVE",
"343 708 OFFCURVE",
"348 648 CURVE",
"369 635 OFFCURVE",
"406 642 OFFCURVE",
"431 662 CURVE",
"426 730 OFFCURVE",
"370 802 OFFCURVE",
"293 814 CURVE",
"221 806 OFFCURVE",
"179 769 OFFCURVE",
"132 714 CURVE",
"134 467 LINE",
"108 292 OFFCURVE",
"82 168 OFFCURVE",
"37 24 CURVE",
"52 2 OFFCURVE",
"77 -4 OFFCURVE",
"122 0 CURVE",
"158 207 OFFCURVE",
"208 573 OFFCURVE",
"205 718 CURVE"
);
},
{
closed = 1;
nodes = (
"150 460 LINE",
"1 459 LINE",
"-17 437 OFFCURVE",
"-18 410 OFFCURVE",
"-1 389 CURVE",
"174 422 LINE",
"363 433 LINE",
"383 462 OFFCURVE",
"382 492 OFFCURVE",
"365 503 CURVE"
);
}
);
width = 346;
},
{
layerId = "A99E0968-31B7-4C8F-B576-AD2EC1F95564";
name = "Bold Italic";
paths = (
{
closed = 1;
nodes = (
"384 766 OFFCURVE",
"400 776 OFFCURVE",
"423 781 CURVE",
"461 743 OFFCURVE",
"470 709 OFFCURVE",
"473 641 CURVE",
"579 627 OFFCURVE",
"667 659 OFFCURVE",
"684 732 CURVE",
"649 823 OFFCURVE",
"619 869 OFFCURVE",
"486 898 CURVE",
"379 888 OFFCURVE",
"250 812 OFFCURVE",
"184 713 CURVE",
"225 481 LINE",
"193 366 OFFCURVE",
"132 193 OFFCURVE",
"74 57 CURVE",
"104 3 OFFCURVE",
"271 -22 OFFCURVE",
"339 31 CURVE",
"363 213 OFFCURVE",
"397 559 OFFCURVE",
"380 752 CURVE"
);
},
{
closed = 1;
nodes = (
"233 472 LINE",
"69 476 LINE",
"36 425 OFFCURVE",
"37 395 OFFCURVE",
"70 359 CURVE",
"347 409 LINE",
"559 418 LINE",
"587 472 OFFCURVE",
"587 505 OFFCURVE",
"559 531 CURVE"
);
}
);
width = 609;
}
);
unicode = 0066;
},
{
glyphname = g;
lastChange = "2014-11-06 13:25:25 +0000";
layers = (
{
anchors = (
{
name = top;
position = "{333, 594}";
}
);
layerId = "5A85B07D-1A67-4978-877A-FA33898BA300";
name = "Light Italic";
paths = (
{
closed = 1;
nodes = (
"295 50 LINE",
"278 -51 OFFCURVE",
"270 -102 OFFCURVE",
"241 -203 CURVE",
"233 -208 OFFCURVE",
"224 -211 OFFCURVE",
"214 -210 CURVE",
"158 -167 OFFCURVE",
"127 -110 OFFCURVE",
"122 -46 CURVE",
"97 -30 OFFCURVE",
"64 -46 OFFCURVE",
"41 -81 CURVE",
"50 -141 OFFCURVE",
"100 -221 OFFCURVE",
"198 -270 CURVE",
"240 -271 OFFCURVE",
"302 -252 OFFCURVE",
"321 -229 CURVE",
"347 -67 OFFCURVE",
"384 198 OFFCURVE",
"418 336 CURVE",
"501 514 LINE",
"484 538 OFFCURVE",
"457 546 OFFCURVE",
"407 546 CURVE",
"400 528 OFFCURVE",
"393 495 OFFCURVE",
"391 446 CURVE",
"372 390 LINE",
"338 242 LINE",
"319 164 LINE",
"332 154 LINE"
);
},
{
closed = 1;
nodes = (
"338 242 LINE",
"282 189 OFFCURVE",
"225 134 OFFCURVE",
"162 72 CURVE",
"118 98 OFFCURVE",
"106 132 OFFCURVE",
"106 181 CURVE SMOOTH",
"106 319 OFFCURVE",
"175 445 OFFCURVE",
"292 492 CURVE",
"336 462 OFFCURVE",
"351 432 OFFCURVE",
"372 389 CURVE",
"405 411 LINE",
"383 467 OFFCURVE",
"353 540 OFFCURVE",
"291 540 CURVE SMOOTH",
"159 540 OFFCURVE",
"27 346 OFFCURVE",
"30 175 CURVE SMOOTH",
"31 80 OFFCURVE",
"85 15 OFFCURVE",
"190 13 CURVE",
"248 82 OFFCURVE",
"318 154 OFFCURVE",
"359 212 CURVE"
);
}
);
width = 474;
},
{
anchors = (
{
name = top;
position = "{475, 563}";
}
);
layerId = "A99E0968-31B7-4C8F-B576-AD2EC1F95564";
name = "Bold Italic";
paths = (
{
closed = 1;
nodes = (
"442 87 LINE",
"433 8 OFFCURVE",
"427 -57 OFFCURVE",
"407 -146 CURVE",
"394 -171 OFFCURVE",
"357 -187 OFFCURVE",
"321 -186 CURVE",
"280 -130 OFFCURVE",
"269 -100 OFFCURVE",
"258 -46 CURVE",
"182 -2 OFFCURVE",
"93 -31 OFFCURVE",
"35 -122 CURVE",
"64 -215 OFFCURVE",
"140 -270 OFFCURVE",
"257 -324 CURVE",
"426 -315 OFFCURVE",
"540 -277 OFFCURVE",
"616 -159 CURVE",
"627 -30 OFFCURVE",
"646 160 OFFCURVE",
"672 323 CURVE",
"774 499 LINE",
"743 565 OFFCURVE",
"682 579 OFFCURVE",
"542 549 CURVE",
"526 522 OFFCURVE",
"523 489 OFFCURVE",
"523 443 CURVE",
"503 344 LINE",
"496 288 LINE",
"456 183 LINE",
"485 154 LINE"
);
},
{
closed = 1;
nodes = (
"496 288 LINE",
"443 248 OFFCURVE",
"375 197 OFFCURVE",
"318 158 CURVE",
"295 174 OFFCURVE",
"281 205 OFFCURVE",
"282 249 CURVE SMOOTH",
"284 320 OFFCURVE",
"331 392 OFFCURVE",
"419 437 CURVE",
"448 422 OFFCURVE",
"479 388 OFFCURVE",
"502 343 CURVE",
"557 381 LINE",
"532 436 OFFCURVE",
"483 517 OFFCURVE",
"433 562 CURVE SMOOTH",
"188 559 OFFCURVE",
"40 380 OFFCURVE",
"35 235 CURVE SMOOTH",
"32 122 OFFCURVE",
"112 23 OFFCURVE",
"306 15 CURVE",
"384 92 OFFCURVE",
"491 190 OFFCURVE",
"539 233 CURVE"
);
}
);
width = 760;
}
);
unicode = 0067;
},
{
glyphname = gcommaaccent;
lastChange = "2014-11-06 13:25:25 +0000";
layers = (
{
components = (
{
name = g;
transform = "{1, 0, 0, 1, 0, 0}";
}
);
guideLines = (
{
position = "{175, 583}";
}
);
layerId = "5A85B07D-1A67-4978-877A-FA33898BA300";
name = "Light Italic";
paths = (
{
closed = 1;
nodes = (
"358 824 CURVE",
"309 770 OFFCURVE",
"255 688 OFFCURVE",
"269 601 CURVE",
"295 572 OFFCURVE",
"348 580 OFFCURVE",
"375 622 CURVE",
"346 715 LINE",
"397 809 LINE",
"387 820 OFFCURVE",
"371 825 OFFCURVE"
);
}
);
width = 474;
},
{
background = {
paths = (
{
closed = 1;
nodes = (
"536 619 LINE",
"602 751 LINE",
"597 776 OFFCURVE",
"563 796 OFFCURVE",
"530 796 CURVE",
"513 786 OFFCURVE",
"500 778 OFFCURVE",
"479 774 CURVE",
"468 786 OFFCURVE",
"462 804 OFFCURVE",
"465 818 CURVE SMOOTH",
"468 842 OFFCURVE",
"489 864 OFFCURVE",
"541 864 CURVE SMOOTH",
"603 864 OFFCURVE",
"645 845 OFFCURVE",
"692 795 CURVE",
"711 796 OFFCURVE",
"727 819 OFFCURVE",
"724 849 CURVE",
"692 907 OFFCURVE",
"611 953 OFFCURVE",
"521 955 CURVE SMOOTH",
"423 957 OFFCURVE",
"341 906 OFFCURVE",
"324 807 CURVE SMOOTH",
"313 741 OFFCURVE",
"356 694 OFFCURVE",
"411 694 CURVE SMOOTH",
"439 694 OFFCURVE",
"468 704 OFFCURVE",
"491 722 CURVE",
"438 619 LINE"
);
}
);
};
components = (
{
name = g;
transform = "{1, 0, 0, 1, 0, 0}";
}
);
guideLines = (
{
position = "{227, 619}";
}
);
layerId = "A99E0968-31B7-4C8F-B576-AD2EC1F95564";
name = "Bold Italic";
paths = (
{
closed = 1;
nodes = (
"477 983 CURVE",
"381 861 OFFCURVE",
"360 748 OFFCURVE",
"377 652 CURVE",
"410 604 OFFCURVE",
"516 561 OFFCURVE",
"597 664 CURVE",
"528 844 LINE",
"564 960 LINE",
"547 987 OFFCURVE",
"520 993 OFFCURVE"
);
}
);
width = 760;
}
);
unicode = 0123;
},
{
glyphname = h;
lastChange = "2014-11-06 13:25:25 +0000";
layers = (
{
layerId = "5A85B07D-1A67-4978-877A-FA33898BA300";
name = "Light Italic";
paths = (
{
closed = 1;
nodes = (
"343 6 OFFCURVE",
"369 -5 OFFCURVE",
"416 0 CURVE",
"423 136 OFFCURVE",
"435 256 OFFCURVE",
"444 328 CURVE",
"480 417 LINE",
"471 467 OFFCURVE",
"431 532 OFFCURVE",
"352 540 CURVE",
"265 504 OFFCURVE",
"185 423 OFFCURVE",
"132 336 CURVE",
"158 302 LINE",
"221 384 OFFCURVE",
"289 441 OFFCURVE",
"353 469 CURVE",
"373 461 OFFCURVE",
"391 445 OFFCURVE",
"395 413 CURVE",
"369 276 OFFCURVE",
"349 166 OFFCURVE",
"327 25 CURVE"
);
},
{
closed = 1;
nodes = (
"120 426 OFFCURVE",
"80 210 OFFCURVE",
"26 24 CURVE",
"41 2 OFFCURVE",
"66 -4 OFFCURVE",
"111 0 CURVE",
"134 119 OFFCURVE",
"153 237 OFFCURVE",
"173 370 CURVE",
"153 397 LINE",
"187 442 LINE",
"201 573 LINE",
"257 804 LINE",
"224 822 OFFCURVE",
"197 814 OFFCURVE",
"152 787 CURVE",
"141 540 LINE"
);
}
);
width = 507;
},
{
layerId = "A99E0968-31B7-4C8F-B576-AD2EC1F95564";
name = "Bold Italic";
paths = (
{
closed = 1;
nodes = (
"500 -8 OFFCURVE",
"641 -19 OFFCURVE",
"685 31 CURVE",
"665 115 OFFCURVE",
"657 207 OFFCURVE",
"661 281 CURVE",
"712 414 LINE",
"688 477 OFFCURVE",
"628 554 OFFCURVE",
"491 562 CURVE",
"375 482 OFFCURVE",
"316 417 OFFCURVE",
"228 337 CURVE",
"281 277 LINE",
"347 338 OFFCURVE",
"392 381 OFFCURVE",
"451 411 CURVE",
"476 397 OFFCURVE",
"482 382 OFFCURVE",
"488 359 CURVE",
"467 296 OFFCURVE",
"426 147 OFFCURVE",
"420 58 CURVE"
);
},
{
closed = 1;
nodes = (
"132 383 OFFCURVE",
"84 198 OFFCURVE",
"21 57 CURVE",
"51 3 OFFCURVE",
"217 -22 OFFCURVE",
"287 31 CURVE",
"303 157 OFFCURVE",
"312 262 OFFCURVE",
"310 386 CURVE",
"288 418 LINE",
"331 467 LINE",
"326 593 LINE",
"396 837 LINE",
"327 861 OFFCURVE",
"256 861 OFFCURVE",
"142 798 CURVE",
"153 538 LINE"
);
}
);
width = 749;
}
);
unicode = 0068;
},
{
glyphname = i;
lastChange = "2014-11-06 13:25:25 +0000";
layers = (
{
anchors = (
{
name = ogonek;
position = "{127, 0}";
}
);
layerId = "5A85B07D-1A67-4978-877A-FA33898BA300";
name = "Light Italic";
paths = (
{
closed = 1;
nodes = (
"116 609 OFFCURVE",
"140 585 OFFCURVE",
"172 585 CURVE SMOOTH",
"201 585 OFFCURVE",
"224 609 OFFCURVE",
"222 637 CURVE SMOOTH",
"221 669 OFFCURVE",
"197 691 OFFCURVE",
"168 691 CURVE SMOOTH",
"137 691 OFFCURVE",
"113 669 OFFCURVE",
"114 637 CURVE SMOOTH"
);
},
{
closed = 1;
nodes = (
"113 368 LINE",
"91 256 OFFCURVE",
"67 137 OFFCURVE",
"36 31 CURVE",
"53 2 OFFCURVE",
"90 -4 OFFCURVE",
"131 0 CURVE",
"145 151 OFFCURVE",
"157 274 OFFCURVE",
"171 394 CURVE",
"208 524 LINE",
"184 551 OFFCURVE",
"150 541 OFFCURVE",
"110 524 CURVE"
);
}
);
width = 227;
},
{
anchors = (
{
name = ogonek;
position = "{195, 0}";
}
);
layerId = "A99E0968-31B7-4C8F-B576-AD2EC1F95564";
name = "Bold Italic";
paths = (
{
closed = 1;
nodes = (
"132 672 OFFCURVE",
"184 620 OFFCURVE",
"249 620 CURVE SMOOTH",
"310 620 OFFCURVE",
"360 672 OFFCURVE",
"360 733 CURVE SMOOTH",
"360 793 OFFCURVE",
"311 844 OFFCURVE",
"250 844 CURVE SMOOTH",
"185 844 OFFCURVE",
"132 793 OFFCURVE",
"132 733 CURVE SMOOTH"
);
},
{
closed = 1;
nodes = (
"114 323 LINE",
"93 227 OFFCURVE",
"62 157 OFFCURVE",
"16 56 CURVE",
"65 3 OFFCURVE",
"213 -22 OFFCURVE",
"276 31 CURVE",
"279 150 OFFCURVE",
"279 246 OFFCURVE",
"289 353 CURVE",
"343 535 LINE",
"285 572 OFFCURVE",
"213 572 OFFCURVE",
"105 523 CURVE"
);
}
);
width = 360;
}
);
unicode = 0069;
},
{
glyphname = dotlessi;
lastChange = "2014-11-06 13:25:25 +0000";
layers = (
{
anchors = (
{
name = ogonek;
position = "{130, 0}";
},
{
name = top;
position = "{181, 594}";
}
);
layerId = "5A85B07D-1A67-4978-877A-FA33898BA300";
name = "Light Italic";
paths = (
{
closed = 1;
nodes = (
"113 368 LINE",
"91 256 OFFCURVE",
"67 137 OFFCURVE",
"36 31 CURVE",
"53 2 OFFCURVE",
"90 -4 OFFCURVE",
"131 0 CURVE",
"145 151 OFFCURVE",
"157 274 OFFCURVE",
"171 394 CURVE",
"208 524 LINE",
"184 551 OFFCURVE",
"150 541 OFFCURVE",
"110 524 CURVE"
);
}
);
width = 227;
},
{
anchors = (
{
name = ogonek;
position = "{222, 0}";
},
{
name = top;
position = "{234, 563}";
}
);
layerId = "A99E0968-31B7-4C8F-B576-AD2EC1F95564";
name = "Bold Italic";
paths = (
{
closed = 1;
nodes = (
"109 323 LINE",
"87 227 OFFCURVE",
"57 157 OFFCURVE",
"11 56 CURVE",
"60 3 OFFCURVE",
"208 -22 OFFCURVE",
"271 31 CURVE",
"274 150 OFFCURVE",
"274 246 OFFCURVE",
"284 353 CURVE",
"338 535 LINE",
"280 572 OFFCURVE",
"208 572 OFFCURVE",
"100 523 CURVE"
);
}
);
width = 355;
}
);
unicode = 0131;
},
{
glyphname = iogonek;
lastChange = "2014-11-06 13:25:25 +0000";
layers = (
{
background = {
paths = (
{
closed = 1;
nodes = (
"134 -14 CURVE",
"138 1 OFFCURVE",
"126 9 OFFCURVE",
"98 9 CURVE",
"17 -8 OFFCURVE",
"-28 -40 OFFCURVE",
"-37 -95 CURVE SMOOTH",
"-47 -154 OFFCURVE",
"17 -198 OFFCURVE",
"94 -198 CURVE SMOOTH",
"148 -198 OFFCURVE",
"193 -171 OFFCURVE",
"225 -137 CURVE",
"221 -119 OFFCURVE",
"212 -113 OFFCURVE",
"198 -112 CURVE",
"171 -135 OFFCURVE",
"135 -147 OFFCURVE",
"100 -147 CURVE SMOOTH",
"67 -147 OFFCURVE",
"40 -138 OFFCURVE",
"26 -113 CURVE",
"33 -62 OFFCURVE",
"71 -26 OFFCURVE"
);
}
);
};
components = (
{
name = i;
transform = "{1, 0, 0, 1, 0, 0}";
}
);
layerId = "5A85B07D-1A67-4978-877A-FA33898BA300";
name = "Light Italic";
paths = (
{
closed = 1;
nodes = (
"131 0 CURVE",
"131 20 OFFCURVE",
"125 23 OFFCURVE",
"113 27 CURVE",
"32 6 OFFCURVE",
"-33 -53 OFFCURVE",
"-33 -112 CURVE SMOOTH",
"-33 -155 OFFCURVE",
"10 -198 OFFCURVE",
"94 -198 CURVE SMOOTH",
"150 -198 OFFCURVE",
"198 -171 OFFCURVE",
"225 -137 CURVE",
"221 -119 OFFCURVE",
"212 -113 OFFCURVE",
"198 -112 CURVE",
"174 -136 OFFCURVE",
"132 -151 OFFCURVE",
"93 -151 CURVE SMOOTH",
"63 -151 OFFCURVE",
"35 -142 OFFCURVE",
"19 -122 CURVE",
"28 -66 OFFCURVE",
"71 -25 OFFCURVE"
);
}
);
width = 227;
},
{
background = {
paths = (
{
closed = 1;
nodes = (
"270 -7 CURVE",
"269 21 OFFCURVE",
"244 41 OFFCURVE",
"204 50 CURVE",
"76 40 OFFCURVE",
"-40 -7 OFFCURVE",
"-54 -108 CURVE SMOOTH",
"-70 -212 OFFCURVE",
"33 -268 OFFCURVE",
"155 -268 CURVE SMOOTH",
"253 -268 OFFCURVE",
"322 -235 OFFCURVE",
"378 -175 CURVE",
"380 -145 OFFCURVE",
"365 -120 OFFCURVE",
"346 -119 CURVE",
"316 -145 OFFCURVE",
"273 -163 OFFCURVE",
"231 -163 CURVE SMOOTH",
"191 -163 OFFCURVE",
"157 -153 OFFCURVE",
"142 -122 CURVE",
"149 -61 OFFCURVE",
"215 -18 OFFCURVE"
);
}
);
};
components = (
{
name = i;
transform = "{1, 0, 0, 1, 0, 0}";
}
);
layerId = "A99E0968-31B7-4C8F-B576-AD2EC1F95564";
name = "Bold Italic";
paths = (
{
closed = 1;
nodes = (
"253 17 CURVE",
"255 46 OFFCURVE",
"250 66 OFFCURVE",
"210 75 CURVE",
"60 63 OFFCURVE",
"-28 -38 OFFCURVE",
"-28 -128 CURVE SMOOTH",
"-28 -202 OFFCURVE",
"32 -268 OFFCURVE",
"169 -268 CURVE SMOOTH",
"270 -268 OFFCURVE",
"337 -226 OFFCURVE",
"378 -175 CURVE",
"380 -145 OFFCURVE",
"365 -120 OFFCURVE",
"328 -119 CURVE",
"289 -150 OFFCURVE",
"244 -164 OFFCURVE",
"201 -164 CURVE SMOOTH",
"169 -164 OFFCURVE",
"139 -157 OFFCURVE",
"112 -144 CURVE",
"121 -77 OFFCURVE",
"184 -17 OFFCURVE"
);
}
);
width = 360;
}
);
unicode = 012F;
},
{
glyphname = j;
lastChange = "2014-11-06 13:25:25 +0000";
layers = (
{
layerId = "5A85B07D-1A67-4978-877A-FA33898BA300";
name = "Light Italic";
paths = (
{
closed = 1;
nodes = (
"210 610 OFFCURVE",
"232 588 OFFCURVE",
"261 588 CURVE SMOOTH",
"288 588 OFFCURVE",
"310 610 OFFCURVE",
"309 636 CURVE SMOOTH",
"308 665 OFFCURVE",
"285 687 OFFCURVE",
"258 687 CURVE SMOOTH",
"229 687 OFFCURVE",
"207 665 OFFCURVE",
"208 636 CURVE SMOOTH"
);
},
{
closed = 1;
nodes = (
"-8 -167 OFFCURVE",
"-40 -110 OFFCURVE",
"-48 -46 CURVE",
"-73 -30 OFFCURVE",
"-106 -46 OFFCURVE",
"-127 -81 CURVE",
"-117 -141 OFFCURVE",
"-63 -221 OFFCURVE",
"23 -270 CURVE",
"68 -270 OFFCURVE",
"123 -251 OFFCURVE",
"136 -218 CURVE",
"147 -56 OFFCURVE",
"176 208 OFFCURVE",
"195 320 CURVE",
"280 514 LINE",
"261 538 OFFCURVE",
"234 546 OFFCURVE",
"185 546 CURVE",
"111 269 OFFCURVE",
"92 38 OFFCURVE",
"54 -203 CURVE",
"41 -210 LINE"
);
}
);
width = 261;
},
{
layerId = "A99E0968-31B7-4C8F-B576-AD2EC1F95564";
name = "Bold Italic";
paths = (
{
closed = 1;
nodes = (
"201 673 OFFCURVE",
"255 619 OFFCURVE",
"321 619 CURVE SMOOTH",
"382 619 OFFCURVE",
"436 673 OFFCURVE",
"436 735 CURVE SMOOTH",
"437 798 OFFCURVE",
"383 851 OFFCURVE",
"322 851 CURVE SMOOTH",
"255 851 OFFCURVE",
"201 798 OFFCURVE",
"201 735 CURVE SMOOTH"
);
},
{
closed = 1;
nodes = (
"31 -146 OFFCURVE",
"13 -108 OFFCURVE",
"5 -36 CURVE",
"-70 0 OFFCURVE",
"-157 -28 OFFCURVE",
"-212 -130 CURVE",
"-183 -206 OFFCURVE",
"-123 -261 OFFCURVE",
"-46 -309 CURVE",
"124 -333 OFFCURVE",
"243 -295 OFFCURVE",
"283 -217 CURVE",
"296 2 OFFCURVE",
"306 161 OFFCURVE",
"326 338 CURVE",
"424 508 LINE",
"377 571 OFFCURVE",
"310 581 OFFCURVE",
"173 549 CURVE",
"138 293 OFFCURVE",
"111 79 OFFCURVE",
"88 -173 CURVE",
"57 -186 LINE"
);
}
);
width = 424;
}
);
unicode = 006A;
},
{
glyphname = k;
lastChange = "2014-11-06 13:25:25 +0000";
layers = (
{
anchors = (
{
name = bottom;
position = "{222, 0}";
}
);
layerId = "5A85B07D-1A67-4978-877A-FA33898BA300";
name = "Light Italic";
paths = (
{
closed = 1;
nodes = (
"121 592 LINE",
"94 417 OFFCURVE",
"58 211 OFFCURVE",
"3 24 CURVE",
"18 2 OFFCURVE",
"43 -4 OFFCURVE",
"89 0 CURVE",
"110 123 OFFCURVE",
"127 217 OFFCURVE",
"147 323 CURVE",
"127 364 LINE",
"152 399 LINE",
"187 609 OFFCURVE",
"207 731 OFFCURVE",
"208 811 CURVE",
"166 816 OFFCURVE",
"140 809 OFFCURVE",
"111 782 CURVE"
);
},
{
closed = 1;
nodes = (
"143 195 OFFCURVE",
"268 64 OFFCURVE",
"381 0 CURVE",
"420 16 OFFCURVE",
"441 42 OFFCURVE",
"427 67 CURVE",
"279 135 OFFCURVE",
"181 235 OFFCURVE",
"133 351 CURVE",
"122 287 LINE",
"214 375 OFFCURVE",
"335 430 OFFCURVE",
"435 470 CURVE",
"449 502 OFFCURVE",
"438 534 OFFCURVE",
"405 540 CURVE",
"281 476 OFFCURVE",
"197 416 OFFCURVE",
"84 316 CURVE"
);
}
);
width = 486;
},
{
anchors = (
{
name = bottom;
position = "{413, 0}";
}
);
layerId = "A99E0968-31B7-4C8F-B576-AD2EC1F95564";
name = "Bold Italic";
paths = (
{
closed = 1;
nodes = (
"184 534 LINE",
"154 389 OFFCURVE",
"105 197 OFFCURVE",
"42 63 CURVE",
"71 0 OFFCURVE",
"239 -22 OFFCURVE",
"306 34 CURVE",
"318 154 OFFCURVE",
"317 264 OFFCURVE",
"320 321 CURVE",
"299 350 LINE",
"338 405 LINE",
"371 656 OFFCURVE",
"375 750 OFFCURVE",
"352 835 CURVE",
"309 851 OFFCURVE",
"217 864 OFFCURVE",
"128 778 CURVE"
);
},
{
closed = 1;
nodes = (
"304 189 OFFCURVE",
"375 69 OFFCURVE",
"525 0 CURVE",
"630 43 OFFCURVE",
"676 151 OFFCURVE",
"622 205 CURVE",
"462 208 OFFCURVE",
"407 243 OFFCURVE",
"356 305 CURVE",
"317 264 LINE",
"422 321 OFFCURVE",
"517 352 OFFCURVE",
"651 368 CURVE",
"725 469 OFFCURVE",
"658 565 OFFCURVE",
"584 573 CURVE",
"458 501 OFFCURVE",
"382 420 OFFCURVE",
"292 310 CURVE"
);
}
);
width = 689;
}
);
unicode = 006B;
},
{
glyphname = kcommaaccent;
lastChange = "2014-11-06 13:25:25 +0000";
layers = (
{
components = (
{
name = k;
transform = "{1, 0, 0, 1, 0, 0}";
}
);
layerId = "5A85B07D-1A67-4978-877A-FA33898BA300";
name = "Light Italic";
paths = (
{
closed = 1;
nodes = (
"126 -242 OFFCURVE",
"140 -246 OFFCURVE",
"151 -245 CURVE",
"193 -207 OFFCURVE",
"248 -136 OFFCURVE",
"255 -70 CURVE",
"239 -26 OFFCURVE",
"192 -2 OFFCURVE",
"150 -36 CURVE",
"173 -148 LINE",
"119 -231 LINE"
);
}
);
width = 486;
},
{
components = (
{
name = k;
transform = "{1, 0, 0, 1, 0, 0}";
}
);
layerId = "A99E0968-31B7-4C8F-B576-AD2EC1F95564";
name = "Bold Italic";
paths = (
{
closed = 1;
nodes = (
"249 -340 OFFCURVE",
"271 -354 OFFCURVE",
"311 -355 CURVE",
"427 -269 OFFCURVE",
"475 -177 OFFCURVE",
"481 -86 CURVE",
"464 -38 OFFCURVE",
"380 20 OFFCURVE",
"286 -51 CURVE",
"303 -220 LINE",
"240 -313 LINE"
);
}
);
width = 689;
}
);
unicode = 0137;
},
{
glyphname = l;
lastChange = "2014-11-06 13:25:25 +0000";
layers = (
{
anchors = (
{
name = bottom;
position = "{112, 0}";
},
{
name = top;
position = "{195, 856}";
}
);
layerId = "5A85B07D-1A67-4978-877A-FA33898BA300";
name = "Light Italic";
paths = (
{
closed = 1;
nodes = (
"144 540 LINE",
"117 357 OFFCURVE",
"91 230 OFFCURVE",
"40 31 CURVE",
"57 2 OFFCURVE",
"94 -4 OFFCURVE",
"135 0 CURVE",
"160 212 OFFCURVE",
"179 374 OFFCURVE",
"202 580 CURVE",
"260 804 LINE",
"227 822 OFFCURVE",
"200 814 OFFCURVE",
"156 787 CURVE"
);
}
);
width = 245;
},
{
anchors = (
{
name = bottom;
position = "{194, 0}";
},
{
name = top;
position = "{235, 843}";
}
);
layerId = "A99E0968-31B7-4C8F-B576-AD2EC1F95564";
name = "Bold Italic";
paths = (
{
closed = 1;
nodes = (
"154 538 LINE",
"126 366 OFFCURVE",
"82 195 OFFCURVE",
"22 56 CURVE",
"47 3 OFFCURVE",
"231 -22 OFFCURVE",
"292 34 CURVE",
"306 206 OFFCURVE",
"315 421 OFFCURVE",
"325 593 CURVE",
"396 836 LINE",
"326 864 OFFCURVE",
"232 852 OFFCURVE",
"142 799 CURVE"
);
}
);
width = 375;
}
);
unicode = 006C;
},
{
glyphname = lcaron;
lastChange = "2014-11-06 13:25:25 +0000";
layers = (
{
components = (
{
name = l;
transform = "{1, 0, 0, 1, 0, 0}";
}
);
layerId = "5A85B07D-1A67-4978-877A-FA33898BA300";
name = "Light Italic";
paths = (
{
closed = 1;
nodes = (
"311 682 CURVE",
"353 720 OFFCURVE",
"408 791 OFFCURVE",
"415 857 CURVE",
"399 901 OFFCURVE",
"352 925 OFFCURVE",
"310 891 CURVE",
"333 779 LINE",
"279 696 LINE",
"286 685 OFFCURVE",
"300 681 OFFCURVE"
);
}
);
width = 313;
},
{
components = (
{
name = l;
transform = "{1, 0, 0, 1, 0, 0}";
}
);
layerId = "A99E0968-31B7-4C8F-B576-AD2EC1F95564";
name = "Bold Italic";
paths = (
{
closed = 1;
nodes = (
"479 621 CURVE",
"595 707 OFFCURVE",
"643 799 OFFCURVE",
"649 890 CURVE",
"632 938 OFFCURVE",
"548 996 OFFCURVE",
"454 925 CURVE",
"471 756 LINE",
"408 663 LINE",
"417 636 OFFCURVE",
"439 622 OFFCURVE"
);
}
);
width = 417;
}
);
unicode = 013E;
},
{
glyphname = lcommaaccent;
lastChange = "2014-11-06 13:25:25 +0000";
layers = (
{
components = (
{
name = l;
transform = "{1, 0, 0, 1, 0, 0}";
}
);
layerId = "5A85B07D-1A67-4978-877A-FA33898BA300";
name = "Light Italic";
paths = (
{
closed = 1;
nodes = (
"8 -242 OFFCURVE",
"22 -246 OFFCURVE",
"33 -245 CURVE",
"75 -207 OFFCURVE",
"130 -136 OFFCURVE",
"137 -70 CURVE",
"121 -26 OFFCURVE",
"74 -2 OFFCURVE",
"32 -36 CURVE",
"55 -148 LINE",
"1 -231 LINE"
);
}
);
width = 245;
},
{
components = (
{
name = l;
transform = "{1, 0, 0, 1, 0, 0}";
}
);
layerId = "A99E0968-31B7-4C8F-B576-AD2EC1F95564";
name = "Bold Italic";
paths = (
{
closed = 1;
nodes = (
"14 -340 OFFCURVE",
"36 -354 OFFCURVE",
"76 -355 CURVE",
"192 -269 OFFCURVE",
"240 -177 OFFCURVE",
"246 -86 CURVE",
"229 -38 OFFCURVE",
"145 20 OFFCURVE",
"51 -51 CURVE",
"68 -220 LINE",
"5 -313 LINE"
);
}
);
width = 375;
}
);
unicode = 013C;
},
{
glyphname = lslash;
lastChange = "2014-11-06 13:25:25 +0000";
layers = (
{
components = (
{
name = l;
transform = "{1, 0, 0, 1, 53, 0}";
}
);
layerId = "5A85B07D-1A67-4978-877A-FA33898BA300";
name = "Light Italic";
paths = (
{
closed = 1;
nodes = (
"372 446 OFFCURVE",
"352 471 OFFCURVE",
"332 474 CURVE",
"190 415 LINE",
"48 390 LINE",
"31 375 OFFCURVE",
"40 345 OFFCURVE",
"71 334 CURVE",
"222 383 LINE",
"355 421 LINE"
);
}
);
width = 353;
},
{
components = (
{
name = l;
transform = "{1, 0, 0, 1, 90, 0}";
}
);
layerId = "A99E0968-31B7-4C8F-B576-AD2EC1F95564";
name = "Bold Italic";
paths = (
{
closed = 1;
nodes = (
"613 477 OFFCURVE",
"605 511 OFFCURVE",
"547 525 CURVE",
"241 436 LINE",
"57 437 LINE",
"31 404 OFFCURVE",
"31 344 OFFCURVE",
"97 307 CURVE",
"412 400 LINE",
"585 405 LINE"
);
}
);
width = 578;
}
);
unicode = 0142;
},
{
glyphname = m;
lastChange = "2014-11-06 13:25:25 +0000";
layers = (
{
layerId = "5A85B07D-1A67-4978-877A-FA33898BA300";
name = "Light Italic";
paths = (
{
closed = 1;
nodes = (
"315 6 OFFCURVE",
"341 -5 OFFCURVE",
"388 0 CURVE",
"394 149 OFFCURVE",
"405 267 OFFCURVE",
"431 345 CURVE",
"490 414 OFFCURVE",
"538 450 OFFCURVE",
"589 469 CURVE",
"608 460 OFFCURVE",
"626 445 OFFCURVE",
"631 413 CURVE",
"605 276 OFFCURVE",
"584 166 OFFCURVE",
"563 25 CURVE",
"579 6 OFFCURVE",
"605 -5 OFFCURVE",
"651 0 CURVE",
"659 136 OFFCURVE",
"671 256 OFFCURVE",
"679 328 CURVE",
"715 417 LINE",
"711 469 OFFCURVE",
"671 525 OFFCURVE",
"588 540 CURVE",
"528 508 OFFCURVE",
"483 469 OFFCURVE",
"431 408 CURVE",
"422 414 LINE",
"448 459 LINE",
"432 494 OFFCURVE",
"390 530 OFFCURVE",
"328 540 CURVE",
"246 498 OFFCURVE",
"201 437 OFFCURVE",
"156 381 CURVE",
"147 388 LINE",
"174 437 LINE",
"187 505 OFFCURVE",
"189 528 OFFCURVE",
"185 546 CURVE",
"143 552 OFFCURVE",
"117 544 OFFCURVE",
"86 515 CURVE",
"107 372 LINE",
"86 267 OFFCURVE",
"54 141 OFFCURVE",
"19 24 CURVE",
"35 2 OFFCURVE",
"59 -4 OFFCURVE",
"105 0 CURVE",
"124 99 OFFCURVE",
"140 199 OFFCURVE",
"157 310 CURVE",
"219 388 OFFCURVE",
"264 442 OFFCURVE",
"325 474 CURVE",
"347 465 OFFCURVE",
"365 450 OFFCURVE",
"378 418 CURVE",
"345 284 OFFCURVE",
"324 174 OFFCURVE",
"299 25 CURVE"
);
}
);
width = 742;
},
{
layerId = "A99E0968-31B7-4C8F-B576-AD2EC1F95564";
name = "Bold Italic";
paths = (
{
closed = 1;
nodes = (
"430 12 OFFCURVE",
"547 -30 OFFCURVE",
"652 31 CURVE",
"634 145 OFFCURVE",
"632 207 OFFCURVE",
"651 306 CURVE",
"696 344 OFFCURVE",
"733 378 OFFCURVE",
"790 411 CURVE",
"813 398 OFFCURVE",
"818 384 OFFCURVE",
"828 360 CURVE",
"808 308 OFFCURVE",
"774 159 OFFCURVE",
"766 59 CURVE",
"848 -7 OFFCURVE",
"987 -19 OFFCURVE",
"1030 31 CURVE",
"1011 105 OFFCURVE",
"1000 196 OFFCURVE",
"1002 256 CURVE",
"1049 412 LINE",
"1027 478 OFFCURVE",
"946 558 OFFCURVE",
"826 562 CURVE",
"758 521 OFFCURVE",
"674 444 OFFCURVE",
"624 397 CURVE",
"613 404 LINE",
"674 485 LINE",
"613 537 OFFCURVE",
"565 564 OFFCURVE",
"487 562 CURVE",
"395 502 OFFCURVE",
"340 454 OFFCURVE",
"297 407 CURVE",
"284 428 LINE",
"321 473 LINE",
"321 501 OFFCURVE",
"319 518 OFFCURVE",
"306 548 CURVE",
"250 568 OFFCURVE",
"161 565 OFFCURVE",
"89 499 CURVE",
"127 341 LINE",
"101 250 OFFCURVE",
"70 160 OFFCURVE",
"27 57 CURVE",
"58 3 OFFCURVE",
"225 -22 OFFCURVE",
"293 31 CURVE",
"304 135 OFFCURVE",
"311 222 OFFCURVE",
"310 305 CURVE",
"352 351 OFFCURVE",
"394 384 OFFCURVE",
"437 410 CURVE",
"468 400 OFFCURVE",
"478 387 OFFCURVE",
"493 367 CURVE",
"456 285 OFFCURVE",
"432 173 OFFCURVE",
"413 50 CURVE"
);
}
);
width = 1094;
}
);
unicode = 006D;
},
{
glyphname = n;
lastChange = "2014-11-06 13:25:25 +0000";
layers = (
{
anchors = (
{
name = bottom;
position = "{243, 0}";
},
{
name = top;
position = "{297, 594}";
}
);
layerId = "5A85B07D-1A67-4978-877A-FA33898BA300";
name = "Light Italic";
paths = (
{
closed = 1;
nodes = (
"337 6 OFFCURVE",
"363 -5 OFFCURVE",
"409 0 CURVE",
"417 136 OFFCURVE",
"429 256 OFFCURVE",
"437 328 CURVE",
"473 417 LINE",
"464 467 OFFCURVE",
"424 532 OFFCURVE",
"346 540 CURVE",
"258 504 OFFCURVE",
"178 423 OFFCURVE",
"125 336 CURVE",
"151 302 LINE",
"215 384 OFFCURVE",
"283 441 OFFCURVE",
"347 469 CURVE",
"366 461 OFFCURVE",
"384 445 OFFCURVE",
"389 413 CURVE",
"363 276 OFFCURVE",
"342 166 OFFCURVE",
"321 25 CURVE"
);
},
{
closed = 1;
nodes = (
"107 372 LINE",
"86 267 OFFCURVE",
"54 141 OFFCURVE",
"19 24 CURVE",
"35 2 OFFCURVE",
"59 -4 OFFCURVE",
"105 0 CURVE",
"127 119 OFFCURVE",
"147 237 OFFCURVE",
"166 375 CURVE",
"147 388 LINE",
"174 437 LINE",
"187 505 OFFCURVE",
"189 528 OFFCURVE",
"185 546 CURVE",
"143 552 OFFCURVE",
"117 544 OFFCURVE",
"86 515 CURVE"
);
}
);
width = 500;
},
{
anchors = (
{
name = bottom;
position = "{397, 0}";
},
{
name = top;
position = "{394, 563}";
}
);
layerId = "A99E0968-31B7-4C8F-B576-AD2EC1F95564";
name = "Bold Italic";
paths = (
{
closed = 1;
nodes = (
"505 -8 OFFCURVE",
"646 -19 OFFCURVE",
"690 31 CURVE",
"669 105 OFFCURVE",
"661 198 OFFCURVE",
"661 256 CURVE",
"709 414 LINE",
"685 477 OFFCURVE",
"614 554 OFFCURVE",
"485 562 CURVE",
"367 483 OFFCURVE",
"304 418 OFFCURVE",
"227 337 CURVE",
"280 277 LINE",
"346 338 OFFCURVE",
"388 376 OFFCURVE",
"449 411 CURVE",
"473 396 OFFCURVE",
"479 381 OFFCURVE",
"486 359 CURVE",
"465 296 OFFCURVE",
"431 155 OFFCURVE",
"425 58 CURVE"
);
},
{
closed = 1;
nodes = (
"127 341 LINE",
"101 250 OFFCURVE",
"70 160 OFFCURVE",
"27 57 CURVE",
"58 3 OFFCURVE",
"225 -22 OFFCURVE",
"293 31 CURVE",
"308 169 OFFCURVE",
"314 275 OFFCURVE",
"308 386 CURVE",
"284 428 LINE",
"321 473 LINE",
"321 501 OFFCURVE",
"319 518 OFFCURVE",
"306 557 CURVE",
"251 566 OFFCURVE",
"163 561 OFFCURVE",
"89 499 CURVE"
);
}
);
width = 754;
}
);
unicode = 006E;
},
{
glyphname = ncommaaccent;
lastChange = "2014-11-06 13:25:25 +0000";
layers = (
{
components = (
{
name = n;
transform = "{1, 0, 0, 1, 0, 0}";
}
);
layerId = "5A85B07D-1A67-4978-877A-FA33898BA300";
name = "Light Italic";
paths = (
{
closed = 1;
nodes = (
"149 -242 OFFCURVE",
"163 -246 OFFCURVE",
"174 -245 CURVE",
"216 -207 OFFCURVE",
"271 -136 OFFCURVE",
"278 -70 CURVE",
"262 -26 OFFCURVE",
"215 -2 OFFCURVE",
"173 -36 CURVE",
"196 -148 LINE",
"142 -231 LINE"
);
}
);
width = 500;
},
{
components = (
{
name = n;
transform = "{1, 0, 0, 1, 0, 0}";
}
);
layerId = "A99E0968-31B7-4C8F-B576-AD2EC1F95564";
name = "Bold Italic";
paths = (
{
closed = 1;
nodes = (
"233 -340 OFFCURVE",
"255 -354 OFFCURVE",
"295 -355 CURVE",
"411 -269 OFFCURVE",
"459 -177 OFFCURVE",
"465 -86 CURVE",
"448 -38 OFFCURVE",
"364 20 OFFCURVE",
"270 -51 CURVE",
"287 -220 LINE",
"224 -313 LINE"
);
}
);
width = 754;
}
);
unicode = 0146;
},
{
glyphname = o;
lastChange = "2014-11-06 13:25:25 +0000";
layers = (
{
anchors = (
{
name = top;
position = "{297, 594}";
}
);
layerId = "5A85B07D-1A67-4978-877A-FA33898BA300";
name = "Light Italic";
paths = (
{
closed = 1;
nodes = (
"131 0 OFFCURVE",
"28 100 OFFCURVE",
"28 230 CURVE SMOOTH",
"28 365 OFFCURVE",
"180 553 OFFCURVE",
"284 553 CURVE SMOOTH",
"351 553 OFFCURVE",
"449 388 OFFCURVE",
"451 296 CURVE SMOOTH",
"454 173 OFFCURVE",
"292 0 OFFCURVE",
"190 0 CURVE"
);
},
{
closed = 1;
nodes = (
"377 359 OFFCURVE",
"335 443 OFFCURVE",
"275 497 CURVE",
"162 433 OFFCURVE",
"117 351 OFFCURVE",
"95 249 CURVE",
"100 158 OFFCURVE",
"129 100 OFFCURVE",
"189 49 CURVE",
"309 100 OFFCURVE",
"366 175 OFFCURVE",
"388 291 CURVE"
);
}
);
width = 484;
},
{
anchors = (
{
name = top;
position = "{374, 563}";
}
);
layerId = "A99E0968-31B7-4C8F-B576-AD2EC1F95564";
name = "Bold Italic";
paths = (
{
closed = 1;
nodes = (
"157 0 OFFCURVE",
"27 129 OFFCURVE",
"27 250 CURVE SMOOTH",
"27 359 OFFCURVE",
"167 571 OFFCURVE",
"398 571 CURVE SMOOTH",
"515 571 OFFCURVE",
"641 417 OFFCURVE",
"643 310 CURVE SMOOTH",
"643 162 OFFCURVE",
"466 0 OFFCURVE",
"278 0 CURVE"
);
},
{
closed = 1;
nodes = (
"431 369 OFFCURVE",
"415 417 OFFCURVE",
"372 475 CURVE",
"308 414 OFFCURVE",
"247 316 OFFCURVE",
"245 233 CURVE",
"244 191 OFFCURVE",
"269 135 OFFCURVE",
"300 103 CURVE",
"371 154 OFFCURVE",
"414 209 OFFCURVE",
"435 277 CURVE"
);
}
);
width = 656;
}
);
unicode = 006F;
},
{
glyphname = oslash;
lastChange = "2014-11-06 13:25:25 +0000";
layers = (
{
layerId = "5A85B07D-1A67-4978-877A-FA33898BA300";
name = "Light Italic";
paths = (
{
closed = 1;
nodes = (
"154 144 LINE",
"62 0 LINE",
"23 6 OFFCURVE",
"4 23 OFFCURVE",
"-4 64 CURVE",
"406 407 LINE",
"504 549 LINE",
"539 544 OFFCURVE",
"561 523 OFFCURVE",
"564 489 CURVE"
);
},
{
closed = 1;
nodes = (
"179 0 OFFCURVE",
"77 100 OFFCURVE",
"77 230 CURVE SMOOTH",
"77 365 OFFCURVE",
"229 553 OFFCURVE",
"333 553 CURVE SMOOTH",
"400 553 OFFCURVE",
"498 388 OFFCURVE",
"500 296 CURVE SMOOTH",
"502 173 OFFCURVE",
"340 0 OFFCURVE",
"239 0 CURVE"
);
},
{
closed = 1;
nodes = (
"426 359 OFFCURVE",
"383 443 OFFCURVE",
"324 497 CURVE",
"211 433 OFFCURVE",
"165 351 OFFCURVE",
"144 249 CURVE",
"149 158 OFFCURVE",
"177 100 OFFCURVE",
"238 49 CURVE",
"357 100 OFFCURVE",
"415 175 OFFCURVE",
"436 291 CURVE"
);
}
);
width = 559;
},
{
layerId = "A99E0968-31B7-4C8F-B576-AD2EC1F95564";
name = "Bold Italic";
paths = (
{
closed = 1;
nodes = (
"246 156 LINE",
"80 0 LINE",
"19 8 OFFCURVE",
"0 37 OFFCURVE",
"-4 86 CURVE",
"521 392 LINE",
"695 600 LINE",
"738 590 OFFCURVE",
"771 554 OFFCURVE",
"762 516 CURVE"
);
},
{
closed = 1;
nodes = (
"201 0 OFFCURVE",
"71 129 OFFCURVE",
"71 250 CURVE SMOOTH",
"71 359 OFFCURVE",
"211 571 OFFCURVE",
"442 571 CURVE SMOOTH",
"559 571 OFFCURVE",
"685 417 OFFCURVE",
"687 310 CURVE SMOOTH",
"687 162 OFFCURVE",
"510 0 OFFCURVE",
"322 0 CURVE"
);
},
{
closed = 1;
nodes = (
"475 369 OFFCURVE",
"459 417 OFFCURVE",
"416 475 CURVE",
"352 414 OFFCURVE",
"291 316 OFFCURVE",
"289 233 CURVE",
"288 191 OFFCURVE",
"313 135 OFFCURVE",
"344 103 CURVE",
"415 154 OFFCURVE",
"458 209 OFFCURVE",
"479 277 CURVE"
);
}
);
width = 730;
}
);
unicode = 00F8;
},
{
glyphname = oe;
lastChange = "2014-11-06 13:25:25 +0000";
layers = (
{
components = (
{
name = o;
transform = "{1, 0, 0, 1, 0, 0}";
}
);
layerId = "5A85B07D-1A67-4978-877A-FA33898BA300";
name = "Light Italic";
paths = (
{
closed = 1;
nodes = (
"529 279 OFFCURVE",
"618 307 OFFCURVE",
"704 348 CURVE",
"703 414 OFFCURVE",
"693 458 OFFCURVE",
"632 494 CURVE",
"618 491 LINE",
"529 447 OFFCURVE",
"453 347 OFFCURVE",
"450 267 CURVE SMOOTH",
"446 167 OFFCURVE",
"471 97 OFFCURVE",
"569 58 CURVE",
"637 82 OFFCURVE",
"706 112 OFFCURVE",
"742 151 CURVE",
"770 151 OFFCURVE",
"774 139 OFFCURVE",
"772 109 CURVE",
"737 69 OFFCURVE",
"632 11 OFFCURVE",
"564 0 CURVE",
"437 53 OFFCURVE",
"384 146 OFFCURVE",
"384 246 CURVE SMOOTH",
"384 292 OFFCURVE",
"395 339 OFFCURVE",
"416 384 CURVE",
"453 434 OFFCURVE",
"532 522 OFFCURVE",
"634 548 CURVE",
"748 516 OFFCURVE",
"784 423 OFFCURVE",
"778 321 CURVE",
"659 264 OFFCURVE",
"550 229 OFFCURVE",
"435 206 CURVE",
"426 254 LINE"
);
}
);
width = 823;
},
{
components = (
{
name = o;
transform = "{1, 0, 0, 1, 0, 0}";
}
);
layerId = "A99E0968-31B7-4C8F-B576-AD2EC1F95564";
name = "Bold Italic";
paths = (
{
closed = 1;
nodes = (
"682 284 OFFCURVE",
"745 312 OFFCURVE",
"785 334 CURVE",
"804 403 OFFCURVE",
"776 439 OFFCURVE",
"753 458 CURVE",
"732 448 LINE",
"678 391 OFFCURVE",
"655 329 OFFCURVE",
"653 270 CURVE SMOOTH",
"650 202 OFFCURVE",
"666 163 OFFCURVE",
"697 123 CURVE",
"779 133 OFFCURVE",
"850 160 OFFCURVE",
"915 201 CURVE",
"962 203 OFFCURVE",
"994 181 OFFCURVE",
"980 113 CURVE",
"914 48 OFFCURVE",
"763 8 OFFCURVE",
"660 0 CURVE",
"502 37 OFFCURVE",
"445 145 OFFCURVE",
"445 250 CURVE SMOOTH",
"445 324 OFFCURVE",
"473 395 OFFCURVE",
"513 441 CURVE",
"600 499 OFFCURVE",
"703 556 OFFCURVE",
"835 573 CURVE",
"994 561 OFFCURVE",
"1036 446 OFFCURVE",
"980 315 CURVE",
"896 273 OFFCURVE",
"734 215 OFFCURVE",
"632 199 CURVE",
"619 264 LINE"
);
}
);
width = 1029;
}
);
unicode = 0153;
},
{
glyphname = p;
lastChange = "2014-11-06 13:25:25 +0000";
layers = (
{
layerId = "5A85B07D-1A67-4978-877A-FA33898BA300";
name = "Light Italic";
paths = (
{
closed = 1;
nodes = (
"72 87 LINE",
"92 59 OFFCURVE",
"144 15 OFFCURVE",
"213 0 CURVE",
"362 83 OFFCURVE",
"451 174 OFFCURVE",
"481 309 CURVE",
"469 419 OFFCURVE",
"427 501 OFFCURVE",
"301 540 CURVE",
"244 487 OFFCURVE",
"178 416 OFFCURVE",
"124 336 CURVE",
"150 302 LINE",
"203 374 OFFCURVE",
"257 427 OFFCURVE",
"301 469 CURVE",
"369 442 OFFCURVE",
"403 383 OFFCURVE",
"409 311 CURVE",
"375 194 OFFCURVE",
"307 117 OFFCURVE",
"207 58 CURVE",
"168 70 OFFCURVE",
"129 95 OFFCURVE",
"109 125 CURVE"
);
},
{
closed = 1;
nodes = (
"73 163 OFFCURVE",
"41 -2 OFFCURVE",
"-22 -245 CURVE",
"-6 -267 OFFCURVE",
"18 -273 OFFCURVE",
"64 -269 CURVE",
"111 -67 OFFCURVE",
"129 150 OFFCURVE",
"166 375 CURVE",
"147 388 LINE",
"174 437 LINE",
"187 505 OFFCURVE",
"189 528 OFFCURVE",
"185 546 CURVE",
"143 552 OFFCURVE",
"117 544 OFFCURVE",
"86 515 CURVE",
"107 372 LINE"
);
}
);
width = 491;
},
{
layerId = "A99E0968-31B7-4C8F-B576-AD2EC1F95564";
name = "Bold Italic";
paths = (
{
closed = 1;
nodes = (
"201 80 LINE",
"241 42 OFFCURVE",
"295 15 OFFCURVE",
"392 0 CURVE",
"541 51 OFFCURVE",
"677 138 OFFCURVE",
"729 300 CURVE",
"699 465 OFFCURVE",
"623 558 OFFCURVE",
"413 562 CURVE",
"338 492 OFFCURVE",
"306 425 OFFCURVE",
"225 337 CURVE",
"278 277 LINE",
"333 339 OFFCURVE",
"367 383 OFFCURVE",
"425 422 CURVE",
"465 405 OFFCURVE",
"505 365 OFFCURVE",
"507 312 CURVE",
"497 219 OFFCURVE",
"459 172 OFFCURVE",
"387 113 CURVE",
"323 123 OFFCURVE",
"283 143 OFFCURVE",
"250 160 CURVE"
);
},
{
closed = 1;
nodes = (
"116 185 OFFCURVE",
"47 -112 OFFCURVE",
"-17 -234 CURVE",
"26 -289 OFFCURVE",
"178 -311 OFFCURVE",
"250 -258 CURVE",
"265 -174 OFFCURVE",
"312 260 OFFCURVE",
"299 386 CURVE",
"274 428 LINE",
"311 473 LINE",
"312 501 OFFCURVE",
"310 518 OFFCURVE",
"294 556 CURVE",
"237 565 OFFCURVE",
"150 561 OFFCURVE",
"79 499 CURVE",
"124 312 LINE"
);
}
);
width = 740;
}
);
unicode = 0070;
},
{
glyphname = thorn;
lastChange = "2014-11-06 13:25:25 +0000";
layers = (
{
layerId = "5A85B07D-1A67-4978-877A-FA33898BA300";
name = "Light Italic";
paths = (
{
closed = 1;
nodes = (
"145 393 LINE",
"174 447 LINE",
"198 576 LINE",
"255 804 LINE",
"221 822 OFFCURVE",
"194 814 OFFCURVE",
"150 787 CURVE",
"132 540 LINE",
"82 219 OFFCURVE",
"51 59 OFFCURVE",
"-23 -245 CURVE",
"-8 -267 OFFCURVE",
"17 -273 OFFCURVE",
"63 -269 CURVE",
"110 -67 OFFCURVE",
"127 150 OFFCURVE",
"165 372 CURVE SMOOTH"
);
},
{
closed = 1;
nodes = (
"94 0 LINE",
"305 24 OFFCURVE",
"431 150 OFFCURVE",
"473 326 CURVE",
"449 432 OFFCURVE",
"418 498 OFFCURVE",
"302 540 CURVE",
"245 487 OFFCURVE",
"179 416 OFFCURVE",
"125 336 CURVE",
"151 302 LINE",
"204 374 OFFCURVE",
"258 427 OFFCURVE",
"302 469 CURVE",
"364 442 OFFCURVE",
"390 401 OFFCURVE",
"402 328 CURVE",
"378 202 OFFCURVE",
"274 83 OFFCURVE",
"91 56 CURVE"
);
}
);
width = 491;
},
{
layerId = "A99E0968-31B7-4C8F-B576-AD2EC1F95564";
name = "Bold Italic";
paths = (
{
closed = 1;
nodes = (
"286 422 LINE",
"330 500 LINE",
"326 590 LINE",
"396 837 LINE",
"324 861 OFFCURVE",
"252 862 OFFCURVE",
"141 797 CURVE",
"152 538 LINE",
"130 263 OFFCURVE",
"66 -36 OFFCURVE",
"-24 -234 CURVE",
"40 -292 OFFCURVE",
"162 -308 OFFCURVE",
"247 -257 CURVE",
"249 -205 OFFCURVE",
"314 294 OFFCURVE",
"317 394 CURVE"
);
},
{
closed = 1;
nodes = (
"271 0 LINE",
"430 22 OFFCURVE",
"677 94 OFFCURVE",
"743 320 CURVE",
"720 487 OFFCURVE",
"648 559 OFFCURVE",
"430 562 CURVE",
"358 492 OFFCURVE",
"325 425 OFFCURVE",
"243 337 CURVE",
"296 277 LINE",
"350 339 OFFCURVE",
"384 383 OFFCURVE",
"444 422 CURVE",
"488 404 OFFCURVE",
"510 382 OFFCURVE",
"519 333 CURVE",
"507 213 OFFCURVE",
"412 127 OFFCURVE",
"240 91 CURVE"
);
}
);
width = 746;
}
);
unicode = 00FE;
},
{
glyphname = q;
lastChange = "2014-11-06 13:25:25 +0000";
layers = (
{
layerId = "5A85B07D-1A67-4978-877A-FA33898BA300";
name = "Light Italic";
paths = (
{
closed = 1;
nodes = (
"323 -158 LINE",
"360 19 OFFCURVE",
"377 148 OFFCURVE",
"420 367 CURVE",
"496 514 LINE",
"477 538 OFFCURVE",
"450 546 OFFCURVE",
"401 546 CURVE",
"393 528 OFFCURVE",
"387 495 OFFCURVE",
"384 446 CURVE",
"337 248 LINE",
"319 116 OFFCURVE",
"259 -108 OFFCURVE",
"233 -213 CURVE",
"233 -239 OFFCURVE",
"258 -262 OFFCURVE",
"318 -270 CURVE",
"367 -202 OFFCURVE",
"428 -132 OFFCURVE",
"472 -71 CURVE",
"470 -52 OFFCURVE",
"460 -45 OFFCURVE",
"444 -48 CURVE",
"410 -80 OFFCURVE",
"356 -135 OFFCURVE",
"328 -163 CURVE"
);
},
{
closed = 1;
nodes = (
"337 242 LINE",
"281 189 OFFCURVE",
"224 134 OFFCURVE",
"161 72 CURVE",
"117 98 OFFCURVE",
"105 132 OFFCURVE",
"105 181 CURVE SMOOTH",
"105 319 OFFCURVE",
"174 445 OFFCURVE",
"291 492 CURVE",
"335 462 OFFCURVE",
"350 432 OFFCURVE",
"370 389 CURVE",
"404 411 LINE",
"382 467 OFFCURVE",
"352 540 OFFCURVE",
"289 540 CURVE SMOOTH",
"158 540 OFFCURVE",
"26 346 OFFCURVE",
"29 175 CURVE SMOOTH",
"30 80 OFFCURVE",
"84 15 OFFCURVE",
"189 13 CURVE",
"247 82 OFFCURVE",
"316 154 OFFCURVE",
"357 212 CURVE"
);
}
);
width = 483;
},
{
layerId = "A99E0968-31B7-4C8F-B576-AD2EC1F95564";
name = "Bold Italic";
paths = (
{
closed = 1;
nodes = (
"580 -112 LINE",
"619 30 OFFCURVE",
"655 201 OFFCURVE",
"680 326 CURVE",
"769 499 LINE",
"742 568 OFFCURVE",
"676 579 OFFCURVE",
"539 552 CURVE",
"520 520 OFFCURVE",
"518 485 OFFCURVE",
"524 437 CURVE",
"485 147 LINE",
"446 32 OFFCURVE",
"412 -57 OFFCURVE",
"364 -177 CURVE",
"364 -224 OFFCURVE",
"410 -278 OFFCURVE",
"531 -303 CURVE",
"622 -223 OFFCURVE",
"723 -123 OFFCURVE",
"758 -75 CURVE",
"758 -42 OFFCURVE",
"747 -24 OFFCURVE",
"717 -23 CURVE",
"695 -40 OFFCURVE",
"634 -94 OFFCURVE",
"592 -122 CURVE"
);
},
{
closed = 1;
nodes = (
"532 305 LINE",
"481 265 OFFCURVE",
"398 197 OFFCURVE",
"342 158 CURVE",
"305 171 OFFCURVE",
"283 203 OFFCURVE",
"283 239 CURVE SMOOTH",
"283 309 OFFCURVE",
"331 392 OFFCURVE",
"415 437 CURVE",
"451 417 OFFCURVE",
"480 385 OFFCURVE",
"517 322 CURVE",
"567 369 LINE",
"528 436 OFFCURVE",
"476 517 OFFCURVE",
"426 562 CURVE",
"188 551 OFFCURVE",
"36 380 OFFCURVE",
"36 235 CURVE SMOOTH",
"36 106 OFFCURVE",
"133 17 OFFCURVE",
"334 15 CURVE",
"409 92 OFFCURVE",
"530 208 OFFCURVE",
"576 249 CURVE"
);
}
);
width = 770;
}
);
unicode = 0071;
},
{
glyphname = r;
lastChange = "2014-11-06 13:25:25 +0000";
layers = (
{
anchors = (
{
name = bottom;
position = "{95, 0}";
},
{
name = top;
position = "{227, 594}";
}
);
layerId = "5A85B07D-1A67-4978-877A-FA33898BA300";
name = "Light Italic";
paths = (
{
closed = 1;
nodes = (
"326 390 OFFCURVE",
"353 396 OFFCURVE",
"388 422 CURVE",
"388 482 OFFCURVE",
"350 532 OFFCURVE",
"295 540 CURVE",
"247 484 OFFCURVE",
"178 401 OFFCURVE",
"131 338 CURVE",
"157 310 LINE",
"213 381 OFFCURVE",
"238 413 OFFCURVE",
"279 460 CURVE",
"292 455 OFFCURVE",
"300 434 OFFCURVE",
"298 405 CURVE"
);
},
{
closed = 1;
nodes = (
"112 372 LINE",
"92 267 OFFCURVE",
"59 141 OFFCURVE",
"25 24 CURVE",
"40 2 OFFCURVE",
"65 -4 OFFCURVE",
"110 0 CURVE",
"133 119 OFFCURVE",
"152 237 OFFCURVE",
"172 375 CURVE",
"152 388 LINE",
"179 437 LINE",
"192 505 OFFCURVE",
"194 528 OFFCURVE",
"190 546 CURVE",
"148 552 OFFCURVE",
"122 544 OFFCURVE",
"92 515 CURVE"
);
}
);
width = 382;
},
{
anchors = (
{
name = bottom;
position = "{214, 0}";
},
{
name = top;
position = "{344, 563}";
}
);
layerId = "A99E0968-31B7-4C8F-B576-AD2EC1F95564";
name = "Bold Italic";
paths = (
{
closed = 1;
nodes = (
"491 287 OFFCURVE",
"578 293 OFFCURVE",
"633 347 CURVE",
"628 472 OFFCURVE",
"557 540 OFFCURVE",
"464 562 CURVE",
"368 473 OFFCURVE",
"302 413 OFFCURVE",
"222 337 CURVE",
"274 287 LINE",
"326 331 OFFCURVE",
"377 372 OFFCURVE",
"408 397 CURVE",
"414 377 OFFCURVE",
"425 350 OFFCURVE",
"425 322 CURVE"
);
},
{
closed = 1;
nodes = (
"127 341 LINE",
"101 250 OFFCURVE",
"70 160 OFFCURVE",
"27 57 CURVE",
"58 3 OFFCURVE",
"224 -22 OFFCURVE",
"293 31 CURVE",
"308 169 OFFCURVE",
"314 275 OFFCURVE",
"308 386 CURVE",
"284 428 LINE",
"321 473 LINE",
"321 504 OFFCURVE",
"319 521 OFFCURVE",
"306 557 CURVE",
"250 568 OFFCURVE",
"156 556 OFFCURVE",
"89 499 CURVE"
);
}
);
width = 621;
}
);
unicode = 0072;
},
{
glyphname = rcommaaccent;
lastChange = "2014-11-06 13:25:25 +0000";
layers = (
{
components = (
{
name = r;
transform = "{1, 0, 0, 1, 0, 0}";
}
);
layerId = "5A85B07D-1A67-4978-877A-FA33898BA300";
name = "Light Italic";
paths = (
{
closed = 1;
nodes = (
"-12 -242 OFFCURVE",
"2 -246 OFFCURVE",
"13 -245 CURVE",
"55 -207 OFFCURVE",
"110 -136 OFFCURVE",
"117 -70 CURVE",
"101 -26 OFFCURVE",
"54 -2 OFFCURVE",
"12 -36 CURVE",
"35 -148 LINE",
"-19 -231 LINE"
);
}
);
width = 382;
},
{
components = (
{
name = r;
transform = "{1, 0, 0, 1, 0, 0}";
}
);
layerId = "A99E0968-31B7-4C8F-B576-AD2EC1F95564";
name = "Bold Italic";
paths = (
{
closed = 1;
nodes = (
"32 -340 OFFCURVE",
"54 -354 OFFCURVE",
"94 -355 CURVE",
"210 -269 OFFCURVE",
"258 -177 OFFCURVE",
"264 -86 CURVE",
"247 -38 OFFCURVE",
"163 20 OFFCURVE",
"69 -51 CURVE",
"86 -220 LINE",
"23 -313 LINE"
);
}
);
width = 621;
}
);
unicode = 0157;
},
{
glyphname = s;
lastChange = "2014-11-06 13:25:25 +0000";
layers = (
{
anchors = (
{
name = bottom;
position = "{211, 0}";
},
{
name = top;
position = "{292, 594}";
}
);
layerId = "5A85B07D-1A67-4978-877A-FA33898BA300";
name = "Light Italic";
paths = (
{
closed = 1;
nodes = (
"301 5 OFFCURVE",
"386 69 OFFCURVE",
"409 172 CURVE",
"379 293 OFFCURVE",
"146 337 OFFCURVE",
"146 390 CURVE SMOOTH",
"146 424 OFFCURVE",
"219 487 OFFCURVE",
"292 507 CURVE",
"323 467 OFFCURVE",
"337 435 OFFCURVE",
"339 390 CURVE",
"390 380 OFFCURVE",
"415 395 OFFCURVE",
"419 414 CURVE",
"403 494 OFFCURVE",
"355 529 OFFCURVE",
"299 553 CURVE",
"192 545 OFFCURVE",
"84 475 OFFCURVE",
"67 375 CURVE",
"96 269 OFFCURVE",
"332 227 OFFCURVE",
"332 171 CURVE SMOOTH",
"332 125 OFFCURVE",
"282 65 OFFCURVE",
"176 44 CURVE",
"129 82 OFFCURVE",
"107 127 OFFCURVE",
"95 189 CURVE",
"63 195 OFFCURVE",
"44 187 OFFCURVE",
"19 150 CURVE",
"28 93 OFFCURVE",
"93 22 OFFCURVE",
"168 0 CURVE"
);
}
);
width = 464;
},
{
anchors = (
{
name = bottom;
position = "{307, 0}";
},
{
name = top;
position = "{330, 563}";
}
);
layerId = "A99E0968-31B7-4C8F-B576-AD2EC1F95564";
name = "Bold Italic";
paths = (
{
closed = 1;
nodes = (
"395 5 OFFCURVE",
"520 74 OFFCURVE",
"554 197 CURVE",
"518 318 OFFCURVE",
"249 385 OFFCURVE",
"249 435 CURVE SMOOTH",
"249 457 OFFCURVE",
"289 485 OFFCURVE",
"329 500 CURVE",
"360 472 OFFCURVE",
"372 438 OFFCURVE",
"384 392 CURVE",
"495 375 OFFCURVE",
"552 411 OFFCURVE",
"556 475 CURVE",
"517 534 OFFCURVE",
"468 575 OFFCURVE",
"361 587 CURVE",
"225 580 OFFCURVE",
"119 510 OFFCURVE",
"60 393 CURVE",
"104 262 OFFCURVE",
"346 197 OFFCURVE",
"347 154 CURVE SMOOTH",
"347 124 OFFCURVE",
"298 92 OFFCURVE",
"255 80 CURVE",
"220 126 OFFCURVE",
"210 147 OFFCURVE",
"200 211 CURVE",
"99 246 OFFCURVE",
"46 178 OFFCURVE",
"21 108 CURVE",
"63 43 OFFCURVE",
"143 9 OFFCURVE",
"249 0 CURVE"
);
}
);
width = 598;
}
);
unicode = 0073;
},
{
glyphname = scommaaccent;
lastChange = "2014-11-06 13:25:25 +0000";
layers = (
{
components = (
{
name = s;
transform = "{1, 0, 0, 1, 0, 0}";
}
);
layerId = "5A85B07D-1A67-4978-877A-FA33898BA300";
name = "Light Italic";
paths = (
{
closed = 1;
nodes = (
"106 -242 OFFCURVE",
"120 -246 OFFCURVE",
"131 -245 CURVE",
"173 -207 OFFCURVE",
"228 -136 OFFCURVE",
"235 -70 CURVE",
"219 -26 OFFCURVE",
"172 -2 OFFCURVE",
"130 -36 CURVE",
"153 -148 LINE",
"99 -231 LINE"
);
}
);
width = 464;
},
{
components = (
{
name = s;
transform = "{1, 0, 0, 1, 0, 0}";
}
);
layerId = "A99E0968-31B7-4C8F-B576-AD2EC1F95564";
name = "Bold Italic";
paths = (
{
closed = 1;
nodes = (
"111 -340 OFFCURVE",
"133 -354 OFFCURVE",
"173 -355 CURVE",
"289 -269 OFFCURVE",
"337 -177 OFFCURVE",
"343 -86 CURVE",
"326 -38 OFFCURVE",
"242 20 OFFCURVE",
"148 -51 CURVE",
"165 -220 LINE",
"102 -313 LINE"
);
}
);
width = 598;
}
);
unicode = 0219;
},
{
glyphname = germandbls;
lastChange = "2014-11-06 13:25:25 +0000";
layers = (
{
layerId = "5A85B07D-1A67-4978-877A-FA33898BA300";
name = "Light Italic";
paths = (
{
closed = 1;
nodes = (
"184 774 OFFCURVE",
"148 717 OFFCURVE",
"127 638 CURVE",
"114 457 OFFCURVE",
"79 282 OFFCURVE",
"15 24 CURVE",
"30 2 OFFCURVE",
"56 -4 OFFCURVE",
"100 0 CURVE",
"143 268 OFFCURVE",
"168 459 OFFCURVE",
"195 656 CURVE",
"258 761 LINE",
"235 742 LINE",
"365 764 OFFCURVE",
"434 694 OFFCURVE",
"434 619 CURVE SMOOTH",
"434 556 OFFCURVE",
"405 501 OFFCURVE",
"332 470 CURVE",
"275 487 LINE",
"237 464 OFFCURVE",
"215 418 OFFCURVE",
"264 361 CURVE",
"337 387 LINE",
"417 367 OFFCURVE",
"449 307 OFFCURVE",
"449 245 CURVE SMOOTH",
"449 163 OFFCURVE",
"389 75 OFFCURVE",
"284 58 CURVE",
"244 129 LINE",
"200 131 OFFCURVE",
"161 90 OFFCURVE",
"150 50 CURVE",
"165 26 OFFCURVE",
"200 2 OFFCURVE",
"267 0 CURVE",
"436 23 OFFCURVE",
"524 133 OFFCURVE",
"524 238 CURVE SMOOTH",
"524 318 OFFCURVE",
"477 395 OFFCURVE",
"361 428 CURVE",
"362 435 LINE",
"465 475 OFFCURVE",
"503 545 OFFCURVE",
"504 622 CURVE SMOOTH",
"503 719 OFFCURVE",
"411 812 OFFCURVE",
"256 804 CURVE"
);
}
);
width = 565;
},
{
layerId = "A99E0968-31B7-4C8F-B576-AD2EC1F95564";
name = "Bold Italic";
paths = (
{
closed = 1;
nodes = (
"217 788 OFFCURVE",
"175 741 OFFCURVE",
"131 628 CURVE",
"122 434 OFFCURVE",
"80 248 OFFCURVE",
"11 57 CURVE",
"34 3 OFFCURVE",
"184 -22 OFFCURVE",
"255 25 CURVE",
"277 235 OFFCURVE",
"286 402 OFFCURVE",
"300 588 CURVE",
"381 757 LINE",
"329 716 LINE",
"486 737 OFFCURVE",
"536 677 OFFCURVE",
"534 616 CURVE SMOOTH",
"534 577 OFFCURVE",
"512 537 OFFCURVE",
"484 517 CURVE",
"409 540 LINE",
"346 499 OFFCURVE",
"322 394 OFFCURVE",
"399 331 CURVE",
"498 372 LINE",
"543 357 OFFCURVE",
"569 308 OFFCURVE",
"568 261 CURVE SMOOTH",
"566 201 OFFCURVE",
"528 160 OFFCURVE",
"484 137 CURVE",
"420 217 LINE",
"327 192 OFFCURVE",
"288 137 OFFCURVE",
"295 55 CURVE",
"350 13 OFFCURVE",
"391 5 OFFCURVE",
"479 0 CURVE",
"630 34 OFFCURVE",
"753 123 OFFCURVE",
"757 260 CURVE SMOOTH",
"759 339 OFFCURVE",
"704 427 OFFCURVE",
"577 461 CURVE",
"578 467 LINE",
"659 500 OFFCURVE",
"708 572 OFFCURVE",
"710 644 CURVE SMOOTH",
"711 754 OFFCURVE",
"580 865 OFFCURVE",
"325 837 CURVE"
);
}
);
width = 773;
}
);
unicode = 00DF;
},
{
glyphname = t;
lastChange = "2014-11-06 13:25:25 +0000";
layers = (
{
anchors = (
{
name = bottom;
position = "{171, 0}";
}
);
layerId = "5A85B07D-1A67-4978-877A-FA33898BA300";
name = "Light Italic";
paths = (
{
closed = 1;
nodes = (
"191 525 LINE",
"42 524 LINE",
"24 502 OFFCURVE",
"23 475 OFFCURVE",
"40 454 CURVE",
"215 487 LINE",
"382 492 LINE",
"403 522 OFFCURVE",
"402 552 OFFCURVE",
"384 563 CURVE"
);
},
{
closed = 1;
nodes = (
"167 36 LINE",
"189 230 OFFCURVE",
"208 376 OFFCURVE",
"222 521 CURVE",
"271 679 LINE",
"239 703 OFFCURVE",
"210 696 OFFCURVE",
"171 669 CURVE",
"172 510 LINE",
"141 333 OFFCURVE",
"117 235 OFFCURVE",
"76 52 CURVE",
"81 31 OFFCURVE",
"98 10 OFFCURVE",
"146 0 CURVE",
"206 13 OFFCURVE",
"289 48 OFFCURVE",
"333 87 CURVE",
"335 110 OFFCURVE",
"334 127 OFFCURVE",
"300 125 CURVE",
"253 92 OFFCURVE",
"201 73 OFFCURVE",
"132 57 CURVE"
);
}
);
width = 372;
},
{
anchors = (
{
name = bottom;
position = "{317, 0}";
}
);
layerId = "A99E0968-31B7-4C8F-B576-AD2EC1F95564";
name = "Bold Italic";
paths = (
{
closed = 1;
nodes = (
"237 554 LINE",
"84 560 LINE",
"51 509 OFFCURVE",
"52 479 OFFCURVE",
"86 442 CURVE",
"384 492 LINE",
"581 502 LINE",
"608 556 OFFCURVE",
"607 590 OFFCURVE",
"579 617 CURVE"
);
},
{
closed = 1;
nodes = (
"345 84 LINE",
"355 226 OFFCURVE",
"375 350 OFFCURVE",
"383 521 CURVE",
"458 753 LINE",
"415 800 OFFCURVE",
"323 799 OFFCURVE",
"210 739 CURVE",
"232 515 LINE",
"203 396 OFFCURVE",
"172 281 OFFCURVE",
"108 122 CURVE",
"129 65 OFFCURVE",
"176 11 OFFCURVE",
"308 0 CURVE",
"428 25 OFFCURVE",
"514 90 OFFCURVE",
"575 141 CURVE",
"581 206 OFFCURVE",
"564 225 OFFCURVE",
"508 229 CURVE",
"449 180 OFFCURVE",
"380 135 OFFCURVE",
"296 106 CURVE"
);
}
);
width = 609;
}
);
unicode = 0074;
},
{
glyphname = tcaron;
lastChange = "2014-11-06 13:25:25 +0000";
layers = (
{
background = {
paths = (
{
closed = 1;
nodes = (
"337 552 CURVE",
"379 590 OFFCURVE",
"434 661 OFFCURVE",
"441 727 CURVE",
"425 771 OFFCURVE",
"378 795 OFFCURVE",
"336 761 CURVE",
"359 649 LINE",
"305 566 LINE",
"312 555 OFFCURVE",
"326 551 OFFCURVE"
);
},
{
closed = 1;
nodes = (
"191 525 LINE",
"42 524 LINE",
"24 502 OFFCURVE",
"23 475 OFFCURVE",
"40 454 CURVE",
"215 487 LINE",
"382 492 LINE",
"403 522 OFFCURVE",
"402 552 OFFCURVE",
"384 563 CURVE"
);
},
{
closed = 1;
nodes = (
"167 36 LINE",
"189 230 OFFCURVE",
"208 376 OFFCURVE",
"222 521 CURVE",
"271 679 LINE",
"239 703 OFFCURVE",
"210 696 OFFCURVE",
"171 669 CURVE",
"172 510 LINE",
"141 333 OFFCURVE",
"117 235 OFFCURVE",
"76 52 CURVE",
"81 31 OFFCURVE",
"98 10 OFFCURVE",
"146 0 CURVE",
"206 13 OFFCURVE",
"289 48 OFFCURVE",
"333 87 CURVE",
"335 110 OFFCURVE",
"334 127 OFFCURVE",
"300 125 CURVE",
"253 92 OFFCURVE",
"201 73 OFFCURVE",
"132 57 CURVE"
);
}
);
};
layerId = "5A85B07D-1A67-4978-877A-FA33898BA300";
name = "Light Italic";
paths = (
{
closed = 1;
nodes = (
"302 555 OFFCURVE",
"316 551 OFFCURVE",
"327 552 CURVE",
"369 590 OFFCURVE",
"424 661 OFFCURVE",
"431 727 CURVE",
"415 771 OFFCURVE",
"368 795 OFFCURVE",
"326 761 CURVE",
"349 649 LINE",
"295 566 LINE"
);
},
{
closed = 1;
nodes = (
"191 485 LINE",
"42 484 LINE",
"24 462 OFFCURVE",
"23 435 OFFCURVE",
"40 414 CURVE",
"215 447 LINE",
"382 452 LINE",
"403 482 OFFCURVE",
"402 512 OFFCURVE",
"384 523 CURVE"
);
},
{
closed = 1;
nodes = (
"167 36 LINE",
"189 230 OFFCURVE",
"208 376 OFFCURVE",
"222 521 CURVE",
"271 679 LINE",
"239 703 OFFCURVE",
"210 696 OFFCURVE",
"171 669 CURVE",
"172 510 LINE",
"141 333 OFFCURVE",
"117 235 OFFCURVE",
"76 52 CURVE",
"81 31 OFFCURVE",
"98 10 OFFCURVE",
"146 0 CURVE",
"206 13 OFFCURVE",
"289 48 OFFCURVE",
"333 87 CURVE",
"335 110 OFFCURVE",
"334 127 OFFCURVE",
"300 125 CURVE",
"253 92 OFFCURVE",
"201 73 OFFCURVE",
"132 57 CURVE"
);
}
);
width = 372;
},
{
background = {
paths = (
{
closed = 1;
nodes = (
"495 636 OFFCURVE",
"517 622 OFFCURVE",
"557 621 CURVE",
"673 707 OFFCURVE",
"721 799 OFFCURVE",
"727 890 CURVE",
"710 938 OFFCURVE",
"626 996 OFFCURVE",
"532 925 CURVE",
"549 756 LINE",
"486 663 LINE"
);
},
{
closed = 1;
nodes = (
"237 554 LINE",
"84 560 LINE",
"51 509 OFFCURVE",
"52 479 OFFCURVE",
"86 442 CURVE",
"384 492 LINE",
"581 502 LINE",
"608 556 OFFCURVE",
"607 590 OFFCURVE",
"579 617 CURVE"
);
},
{
closed = 1;
nodes = (
"345 84 LINE",
"355 226 OFFCURVE",
"375 350 OFFCURVE",
"383 521 CURVE",
"458 753 LINE",
"415 800 OFFCURVE",
"323 799 OFFCURVE",
"210 739 CURVE",
"232 515 LINE",
"203 396 OFFCURVE",
"172 281 OFFCURVE",
"108 122 CURVE",
"129 65 OFFCURVE",
"176 11 OFFCURVE",
"308 0 CURVE",
"428 25 OFFCURVE",
"514 90 OFFCURVE",
"575 141 CURVE",
"581 206 OFFCURVE",
"564 225 OFFCURVE",
"508 229 CURVE",
"449 180 OFFCURVE",
"380 135 OFFCURVE",
"296 106 CURVE"
);
}
);
};
layerId = "A99E0968-31B7-4C8F-B576-AD2EC1F95564";
name = "Bold Italic";
paths = (
{
closed = 1;
nodes = (
"495 636 OFFCURVE",
"517 622 OFFCURVE",
"557 621 CURVE",
"673 707 OFFCURVE",
"721 799 OFFCURVE",
"727 890 CURVE",
"710 938 OFFCURVE",
"626 996 OFFCURVE",
"532 925 CURVE",
"549 756 LINE",
"486 663 LINE"
);
},
{
closed = 1;
nodes = (
"237 524 LINE",
"84 530 LINE",
"51 479 OFFCURVE",
"52 449 OFFCURVE",
"86 412 CURVE",
"384 462 LINE",
"581 472 LINE",
"608 526 OFFCURVE",
"607 560 OFFCURVE",
"579 587 CURVE"
);
},
{
closed = 1;
nodes = (
"345 84 LINE",
"355 226 OFFCURVE",
"375 350 OFFCURVE",
"383 521 CURVE",
"458 753 LINE",
"415 800 OFFCURVE",
"323 799 OFFCURVE",
"210 739 CURVE",
"232 515 LINE",
"203 396 OFFCURVE",
"172 281 OFFCURVE",
"108 122 CURVE",
"129 65 OFFCURVE",
"176 11 OFFCURVE",
"308 0 CURVE",
"428 25 OFFCURVE",
"514 90 OFFCURVE",
"575 141 CURVE",
"581 206 OFFCURVE",
"564 225 OFFCURVE",
"508 229 CURVE",
"449 180 OFFCURVE",
"380 135 OFFCURVE",
"296 106 CURVE"
);
}
);
width = 609;
}
);
unicode = 0165;
},
{
glyphname = tcommaaccent;
lastChange = "2014-11-06 13:25:25 +0000";
layers = (
{
components = (
{
name = t;
transform = "{1, 0, 0, 1, 0, 0}";
}
);
layerId = "5A85B07D-1A67-4978-877A-FA33898BA300";
name = "Light Italic";
paths = (
{
closed = 1;
nodes = (
"76 -242 OFFCURVE",
"90 -246 OFFCURVE",
"101 -245 CURVE",
"143 -207 OFFCURVE",
"198 -136 OFFCURVE",
"205 -70 CURVE",
"189 -26 OFFCURVE",
"142 -2 OFFCURVE",
"100 -36 CURVE",
"123 -148 LINE",
"69 -231 LINE"
);
}
);
width = 372;
},
{
components = (
{
name = t;
transform = "{1, 0, 0, 1, 0, 0}";
}
);
layerId = "A99E0968-31B7-4C8F-B576-AD2EC1F95564";
name = "Bold Italic";
paths = (
{
closed = 1;
nodes = (
"151 -340 OFFCURVE",
"173 -354 OFFCURVE",
"213 -355 CURVE",
"329 -269 OFFCURVE",
"377 -177 OFFCURVE",
"383 -86 CURVE",
"366 -38 OFFCURVE",
"282 20 OFFCURVE",
"188 -51 CURVE",
"205 -220 LINE",
"142 -313 LINE"
);
}
);
width = 609;
}
);
unicode = 021B;
},
{
glyphname = u;
lastChange = "2014-11-06 13:25:25 +0000";
layers = (
{
anchors = (
{
name = ogonek;
position = "{387, 0}";
},
{
name = top;
position = "{301, 594}";
}
);
layerId = "5A85B07D-1A67-4978-877A-FA33898BA300";
name = "Light Italic";
paths = (
{
closed = 1;
nodes = (
"483 538 OFFCURVE",
"456 546 OFFCURVE",
"406 546 CURVE",
"383 457 OFFCURVE",
"363 366 OFFCURVE",
"339 238 CURVE",
"328 175 LINE",
"351 156 LINE",
"302 25 LINE",
"319 6 OFFCURVE",
"345 -5 OFFCURVE",
"391 0 CURVE",
"399 136 OFFCURVE",
"410 262 OFFCURVE",
"426 367 CURVE",
"501 514 LINE"
);
},
{
closed = 1;
nodes = (
"153 545 OFFCURVE",
"133 551 OFFCURVE",
"92 546 CURVE",
"94 434 OFFCURVE",
"84 324 OFFCURVE",
"79 267 CURVE",
"28 94 LINE",
"42 53 OFFCURVE",
"83 15 OFFCURVE",
"191 0 CURVE",
"259 68 OFFCURVE",
"327 145 OFFCURVE",
"366 204 CURVE",
"340 238 LINE",
"287 163 OFFCURVE",
"232 110 OFFCURVE",
"180 63 CURVE",
"136 76 OFFCURVE",
"118 92 OFFCURVE",
"110 111 CURVE",
"157 320 OFFCURVE",
"175 427 OFFCURVE",
"185 515 CURVE"
);
}
);
width = 501;
},
{
anchors = (
{
name = ogonek;
position = "{577, 0}";
},
{
name = top;
position = "{396, 563}";
}
);
layerId = "A99E0968-31B7-4C8F-B576-AD2EC1F95564";
name = "Bold Italic";
paths = (
{
closed = 1;
nodes = (
"697 561 OFFCURVE",
"630 572 OFFCURVE",
"489 549 CURVE",
"462 476 OFFCURVE",
"444 384 OFFCURVE",
"427 284 CURVE",
"409 173 LINE",
"437 149 LINE",
"394 58 LINE",
"475 -8 OFFCURVE",
"621 -19 OFFCURVE",
"662 31 CURVE",
"644 139 OFFCURVE",
"634 235 OFFCURVE",
"632 326 CURVE",
"724 499 LINE"
);
},
{
closed = 1;
nodes = (
"287 564 OFFCURVE",
"163 576 OFFCURVE",
"77 546 CURVE",
"85 477 OFFCURVE",
"91 389 OFFCURVE",
"100 313 CURVE",
"22 162 LINE",
"37 95 OFFCURVE",
"90 22 OFFCURVE",
"288 0 CURVE",
"377 100 OFFCURVE",
"426 154 OFFCURVE",
"482 240 CURVE",
"429 288 LINE",
"400 244 OFFCURVE",
"360 205 OFFCURVE",
"310 156 CURVE",
"265 169 OFFCURVE",
"245 183 OFFCURVE",
"239 207 CURVE",
"286 291 OFFCURVE",
"332 429 OFFCURVE",
"332 498 CURVE"
);
}
);
width = 746;
}
);
unicode = 0075;
},
{
glyphname = uogonek;
lastChange = "2014-11-06 13:25:25 +0000";
layers = (
{
background = {
paths = (
{
closed = 1;
nodes = (
"394 -14 CURVE",
"398 1 OFFCURVE",
"386 9 OFFCURVE",
"358 9 CURVE",
"277 -8 OFFCURVE",
"232 -40 OFFCURVE",
"223 -95 CURVE SMOOTH",
"213 -154 OFFCURVE",
"277 -198 OFFCURVE",
"354 -198 CURVE SMOOTH",
"408 -198 OFFCURVE",
"453 -171 OFFCURVE",
"485 -137 CURVE",
"481 -119 OFFCURVE",
"472 -113 OFFCURVE",
"458 -112 CURVE",
"431 -135 OFFCURVE",
"395 -147 OFFCURVE",
"360 -147 CURVE SMOOTH",
"327 -147 OFFCURVE",
"300 -138 OFFCURVE",
"286 -113 CURVE",
"293 -62 OFFCURVE",
"331 -26 OFFCURVE"
);
}
);
};
components = (
{
name = u;
transform = "{1, 0, 0, 1, 0, 0}";
}
);
layerId = "5A85B07D-1A67-4978-877A-FA33898BA300";
name = "Light Italic";
paths = (
{
closed = 1;
nodes = (
"391 0 CURVE",
"392 15 OFFCURVE",
"380 32 OFFCURVE",
"366 32 CURVE",
"275 11 OFFCURVE",
"206 -59 OFFCURVE",
"206 -117 CURVE SMOOTH",
"206 -162 OFFCURVE",
"250 -198 OFFCURVE",
"319 -198 CURVE SMOOTH",
"367 -198 OFFCURVE",
"411 -180 OFFCURVE",
"445 -137 CURVE",
"441 -119 OFFCURVE",
"432 -113 OFFCURVE",
"418 -112 CURVE",
"377 -156 OFFCURVE",
"301 -160 OFFCURVE",
"258 -128 CURVE",
"274 -58 OFFCURVE",
"322 -18 OFFCURVE"
);
}
);
width = 501;
},
{
background = {
paths = (
{
closed = 1;
nodes = (
"652 -7 CURVE",
"651 21 OFFCURVE",
"626 41 OFFCURVE",
"586 50 CURVE",
"458 40 OFFCURVE",
"342 -7 OFFCURVE",
"328 -108 CURVE SMOOTH",
"312 -212 OFFCURVE",
"415 -268 OFFCURVE",
"537 -268 CURVE SMOOTH",
"635 -268 OFFCURVE",
"704 -235 OFFCURVE",
"760 -175 CURVE",
"762 -145 OFFCURVE",
"747 -120 OFFCURVE",
"728 -119 CURVE",
"698 -145 OFFCURVE",
"655 -163 OFFCURVE",
"613 -163 CURVE SMOOTH",
"573 -163 OFFCURVE",
"539 -153 OFFCURVE",
"524 -122 CURVE",
"531 -61 OFFCURVE",
"597 -18 OFFCURVE"
);
}
);
};
components = (
{
name = u;
transform = "{1, 0, 0, 1, 0, 0}";
}
);
layerId = "A99E0968-31B7-4C8F-B576-AD2EC1F95564";
name = "Bold Italic";
paths = (
{
closed = 1;
nodes = (
"606 3 CURVE",
"611 50 OFFCURVE",
"602 70 OFFCURVE",
"532 75 CURVE",
"394 33 OFFCURVE",
"318 -57 OFFCURVE",
"318 -136 CURVE SMOOTH",
"318 -207 OFFCURVE",
"382 -268 OFFCURVE",
"503 -268 CURVE SMOOTH",
"585 -268 OFFCURVE",
"659 -230 OFFCURVE",
"705 -175 CURVE",
"705 -135 OFFCURVE",
"694 -111 OFFCURVE",
"646 -115 CURVE",
"588 -151 OFFCURVE",
"529 -170 OFFCURVE",
"456 -147 CURVE",
"460 -85 OFFCURVE",
"525 -21 OFFCURVE"
);
}
);
width = 746;
}
);
unicode = 0173;
},
{
glyphname = v;
lastChange = "2014-11-06 13:25:25 +0000";
layers = (
{
layerId = "5A85B07D-1A67-4978-877A-FA33898BA300";
name = "Light Italic";
paths = (
{
closed = 1;
nodes = (
"434 548 OFFCURVE",
"402 544 OFFCURVE",
"355 517 CURVE",
"379 406 LINE",
"346 272 OFFCURVE",
"260 150 OFFCURVE",
"194 67 CURVE",
"186 72 LINE",
"203 275 OFFCURVE",
"178 447 OFFCURVE",
"109 540 CURVE",
"65 543 OFFCURVE",
"30 521 OFFCURVE",
"22 485 CURVE",
"105 382 LINE",
"134 281 OFFCURVE",
"130 205 OFFCURVE",
"107 48 CURVE",
"116 16 OFFCURVE",
"164 0 OFFCURVE",
"207 0 CURVE",
"342 148 OFFCURVE",
"423 329 OFFCURVE",
"459 519 CURVE"
);
}
);
width = 440;
},
{
layerId = "A99E0968-31B7-4C8F-B576-AD2EC1F95564";
name = "Bold Italic";
paths = (
{
closed = 1;
nodes = (
"617 596 OFFCURVE",
"511 587 OFFCURVE",
"439 519 CURVE",
"495 391 LINE",
"478 294 OFFCURVE",
"435 219 OFFCURVE",
"358 135 CURVE",
"344 142 LINE",
"353 295 OFFCURVE",
"343 454 OFFCURVE",
"272 562 CURVE",
"171 568 OFFCURVE",
"93 538 OFFCURVE",
"44 444 CURVE",
"135 338 LINE",
"154 276 OFFCURVE",
"150 199 OFFCURVE",
"132 100 CURVE",
"190 16 OFFCURVE",
"313 -16 OFFCURVE",
"422 6 CURVE",
"579 178 OFFCURVE",
"656 361 OFFCURVE",
"670 549 CURVE"
);
}
);
width = 657;
}
);
unicode = 0076;
},
{
glyphname = w;
lastChange = "2014-11-06 13:25:25 +0000";
layers = (
{
layerId = "5A85B07D-1A67-4978-877A-FA33898BA300";
name = "Light Italic";
paths = (
{
closed = 1;
nodes = (
"441 70 LINE",
"467 260 OFFCURVE",
"455 376 OFFCURVE",
"388 538 CURVE",
"345 545 OFFCURVE",
"308 526 OFFCURVE",
"296 491 CURVE",
"357 397 LINE",
"311 276 OFFCURVE",
"261 177 OFFCURVE",
"181 70 CURVE",
"173 72 LINE",
"194 261 OFFCURVE",
"181 432 OFFCURVE",
"109 540 CURVE",
"65 543 OFFCURVE",
"30 521 OFFCURVE",
"22 485 CURVE",
"105 382 LINE",
"122 276 OFFCURVE",
"119 201 OFFCURVE",
"94 48 CURVE",
"103 16 OFFCURVE",
"151 0 OFFCURVE",
"194 0 CURVE",
"293 127 OFFCURVE",
"347 221 OFFCURVE",
"378 313 CURVE",
"384 311 LINE",
"392 222 OFFCURVE",
"387 153 OFFCURVE",
"366 48 CURVE",
"374 18 OFFCURVE",
"421 -2 OFFCURVE",
"467 0 CURVE",
"605 163 OFFCURVE",
"675 348 OFFCURVE",
"698 527 CURVE",
"672 555 OFFCURVE",
"639 550 OFFCURVE",
"594 522 CURVE",
"621 411 LINE",
"581 259 OFFCURVE",
"515 145 OFFCURVE",
"448 67 CURVE"
);
}
);
width = 677;
},
{
layerId = "A99E0968-31B7-4C8F-B576-AD2EC1F95564";
name = "Bold Italic";
paths = (
{
closed = 1;
nodes = (
"705 142 LINE",
"713 302 OFFCURVE",
"700 464 OFFCURVE",
"636 547 CURVE",
"529 557 OFFCURVE",
"475 529 OFFCURVE",
"424 455 CURVE",
"494 365 LINE",
"462 279 OFFCURVE",
"421 200 OFFCURVE",
"358 136 CURVE",
"344 141 LINE",
"356 300 OFFCURVE",
"338 453 OFFCURVE",
"273 562 CURVE",
"156 568 OFFCURVE",
"90 528 OFFCURVE",
"44 444 CURVE",
"136 337 LINE",
"156 257 OFFCURVE",
"147 188 OFFCURVE",
"132 100 CURVE",
"178 28 OFFCURVE",
"287 -20 OFFCURVE",
"405 6 CURVE",
"466 87 OFFCURVE",
"502 147 OFFCURVE",
"543 233 CURVE",
"555 226 LINE",
"544 185 OFFCURVE",
"536 156 OFFCURVE",
"517 108 CURVE",
"562 18 OFFCURVE",
"680 -18 OFFCURVE",
"783 4 CURVE",
"940 181 OFFCURVE",
"1009 370 OFFCURVE",
"1018 552 CURVE",
"966 597 OFFCURVE",
"863 587 OFFCURVE",
"788 516 CURVE",
"847 390 LINE",
"836 293 OFFCURVE",
"786 211 OFFCURVE",
"717 130 CURVE"
);
}
);
width = 1006;
}
);
unicode = 0077;
},
{
glyphname = x;
lastChange = "2014-11-06 13:25:25 +0000";
layers = (
{
layerId = "5A85B07D-1A67-4978-877A-FA33898BA300";
name = "Light Italic";
paths = (
{
closed = 1;
nodes = (
"360 130 OFFCURVE",
"307 200 OFFCURVE",
"273 296 CURVE",
"261 393 OFFCURVE",
"228 475 OFFCURVE",
"147 540 CURVE",
"106 525 OFFCURVE",
"82 495 OFFCURVE",
"84 453 CURVE",
"152 419 OFFCURVE",
"199 364 OFFCURVE",
"245 267 CURVE",
"258 141 OFFCURVE",
"303 63 OFFCURVE",
"377 0 CURVE",
"421 14 OFFCURVE",
"447 45 OFFCURVE",
"438 83 CURVE"
);
},
{
closed = 1;
nodes = (
"486 526 OFFCURVE",
"467 542 OFFCURVE",
"428 540 CURVE",
"246 286 LINE",
"174 212 OFFCURVE",
"100 136 OFFCURVE",
"6 64 CURVE",
"10 32 OFFCURVE",
"27 9 OFFCURVE",
"76 0 CURVE",
"269 256 LINE",
"345 342 OFFCURVE",
"411 419 OFFCURVE",
"499 482 CURVE"
);
}
);
width = 519;
},
{
layerId = "A99E0968-31B7-4C8F-B576-AD2EC1F95564";
name = "Bold Italic";
paths = (
{
closed = 1;
nodes = (
"488 224 OFFCURVE",
"407 252 OFFCURVE",
"359 296 CURVE",
"355 435 OFFCURVE",
"303 517 OFFCURVE",
"222 562 CURVE",
"126 551 OFFCURVE",
"49 473 OFFCURVE",
"74 358 CURVE",
"164 344 OFFCURVE",
"247 319 OFFCURVE",
"306 241 CURVE",
"306 144 OFFCURVE",
"362 58 OFFCURVE",
"449 0 CURVE",
"583 28 OFFCURVE",
"633 148 OFFCURVE",
"577 217 CURVE"
);
},
{
closed = 1;
nodes = (
"661 497 OFFCURVE",
"620 571 OFFCURVE",
"506 562 CURVE",
"331 308 LINE",
"234 228 OFFCURVE",
"120 182 OFFCURVE",
"32 159 CURVE",
"0 88 OFFCURVE",
"40 7 OFFCURVE",
"169 0 CURVE",
"358 255 LINE",
"462 331 OFFCURVE",
"540 378 OFFCURVE",
"652 420 CURVE"
);
}
);
width = 652;
}
);
unicode = 0078;
},
{
glyphname = y;
lastChange = "2014-11-06 13:25:25 +0000";
layers = (
{
anchors = (
{
name = top;
position = "{309, 594}";
}
);
layerId = "5A85B07D-1A67-4978-877A-FA33898BA300";
name = "Light Italic";
paths = (
{
closed = 1;
nodes = (
"148 545 OFFCURVE",
"127 551 OFFCURVE",
"86 546 CURVE",
"90 496 OFFCURVE",
"86 363 OFFCURVE",
"78 296 CURVE",
"29 153 LINE",
"43 105 OFFCURVE",
"85 67 OFFCURVE",
"212 46 CURVE",
"281 109 OFFCURVE",
"312 135 OFFCURVE",
"360 204 CURVE",
"334 238 LINE",
"296 181 OFFCURVE",
"249 143 OFFCURVE",
"199 105 CURVE",
"141 122 OFFCURVE",
"123 138 OFFCURVE",
"109 171 CURVE",
"150 334 OFFCURVE",
"160 379 OFFCURVE",
"179 515 CURVE"
);
},
{
closed = 1;
nodes = (
"298 76 LINE",
"279 -44 OFFCURVE",
"270 -96 OFFCURVE",
"237 -203 CURVE",
"229 -210 OFFCURVE",
"212 -212 OFFCURVE",
"197 -210 CURVE",
"140 -167 OFFCURVE",
"110 -110 OFFCURVE",
"105 -46 CURVE",
"80 -30 OFFCURVE",
"46 -46 OFFCURVE",
"24 -81 CURVE",
"32 -141 OFFCURVE",
"83 -221 OFFCURVE",
"180 -270 CURVE",
"230 -273 OFFCURVE",
"294 -257 OFFCURVE",
"318 -224 CURVE",
"343 -75 OFFCURVE",
"381 188 OFFCURVE",
"414 347 CURVE",
"497 514 LINE",
"480 538 OFFCURVE",
"453 546 OFFCURVE",
"403 546 CURVE",
"380 482 OFFCURVE",
"362 395 OFFCURVE",
"334 237 CURVE",
"324 159 LINE",
"337 147 LINE"
);
}
);
width = 470;
},
{
anchors = (
{
name = top;
position = "{386, 563}";
}
);
layerId = "A99E0968-31B7-4C8F-B576-AD2EC1F95564";
name = "Bold Italic";
paths = (
{
closed = 1;
nodes = (
"279 565 OFFCURVE",
"150 577 OFFCURVE",
"77 546 CURVE",
"85 453 OFFCURVE",
"94 403 OFFCURVE",
"99 314 CURVE",
"47 184 LINE",
"64 100 OFFCURVE",
"165 40 OFFCURVE",
"302 26 CURVE",
"371 91 OFFCURVE",
"423 148 OFFCURVE",
"490 240 CURVE",
"436 288 LINE",
"399 244 OFFCURVE",
"370 214 OFFCURVE",
"317 174 CURVE",
"283 188 OFFCURVE",
"269 204 OFFCURVE",
"262 222 CURVE",
"298 305 OFFCURVE",
"332 409 OFFCURVE",
"340 496 CURVE"
);
},
{
closed = 1;
nodes = (
"382 39 LINE",
"369 -18 OFFCURVE",
"359 -89 OFFCURVE",
"352 -160 CURVE",
"341 -178 OFFCURVE",
"314 -188 OFFCURVE",
"284 -186 CURVE",
"251 -142 OFFCURVE",
"238 -111 OFFCURVE",
"220 -45 CURVE",
"150 -4 OFFCURVE",
"63 -33 OFFCURVE",
"-1 -121 CURVE",
"23 -204 OFFCURVE",
"99 -272 OFFCURVE",
"201 -316 CURVE",
"372 -319 OFFCURVE",
"480 -287 OFFCURVE",
"551 -194 CURVE",
"552 -63 OFFCURVE",
"588 198 OFFCURVE",
"605 317 CURVE",
"714 499 LINE",
"682 564 OFFCURVE",
"620 577 OFFCURVE",
"477 549 CURVE",
"465 496 OFFCURVE",
"450 395 OFFCURVE",
"436 289 CURVE",
"396 166 LINE",
"432 134 LINE"
);
}
);
width = 695;
}
);
unicode = 0079;
},
{
glyphname = z;
lastChange = "2014-11-06 13:25:25 +0000";
layers = (
{
anchors = (
{
name = top;
position = "{290, 594}";
}
);
layerId = "5A85B07D-1A67-4978-877A-FA33898BA300";
name = "Light Italic";
paths = (
{
closed = 1;
nodes = (
"75 374 OFFCURVE",
"98 365 OFFCURVE",
"141 375 CURVE",
"141 409 OFFCURVE",
"149 445 OFFCURVE",
"170 476 CURVE",
"237 461 OFFCURVE",
"292 451 OFFCURVE",
"375 453 CURVE",
"381 445 LINE",
"259 240 OFFCURVE",
"11 143 OFFCURVE",
"12 54 CURVE SMOOTH",
"12 37 OFFCURVE",
"14 19 OFFCURVE",
"24 0 CURVE",
"70 -4 OFFCURVE",
"89 3 OFFCURVE",
"98 19 CURVE",
"91 36 LINE",
"95 41 LINE",
"158 45 OFFCURVE",
"282 38 OFFCURVE",
"356 0 CURVE",
"404 31 OFFCURVE",
"438 78 OFFCURVE",
"448 123 CURVE",
"445 153 OFFCURVE",
"420 162 OFFCURVE",
"373 152 CURVE",
"370 125 OFFCURVE",
"364 106 OFFCURVE",
"348 75 CURVE",
"261 90 OFFCURVE",
"180 85 OFFCURVE",
"114 87 CURVE",
"109 96 LINE",
"230 197 OFFCURVE",
"476 395 OFFCURVE",
"484 504 CURVE",
"471 527 OFFCURVE",
"458 537 OFFCURVE",
"409 540 CURVE",
"392 498 LINE",
"308 496 OFFCURVE",
"231 517 OFFCURVE",
"157 540 CURVE",
"96 513 OFFCURVE",
"72 448 OFFCURVE",
"63 397 CURVE"
);
}
);
width = 504;
},
{
anchors = (
{
name = top;
position = "{399, 563}";
}
);
layerId = "A99E0968-31B7-4C8F-B576-AD2EC1F95564";
name = "Bold Italic";
paths = (
{
closed = 1;
nodes = (
"95 348 OFFCURVE",
"149 324 OFFCURVE",
"265 335 CURVE",
"277 369 OFFCURVE",
"295 408 OFFCURVE",
"319 432 CURVE",
"355 425 OFFCURVE",
"415 412 OFFCURVE",
"446 404 CURVE",
"447 393 LINE",
"338 301 OFFCURVE",
"47 234 OFFCURVE",
"40 94 CURVE SMOOTH",
"37 58 OFFCURVE",
"48 24 OFFCURVE",
"73 0 CURVE",
"155 -6 OFFCURVE",
"203 1 OFFCURVE",
"235 32 CURVE",
"222 77 LINE",
"230 80 LINE",
"289 55 OFFCURVE",
"363 31 OFFCURVE",
"479 0 CURVE",
"578 25 OFFCURVE",
"630 69 OFFCURVE",
"661 131 CURVE",
"647 204 OFFCURVE",
"586 239 OFFCURVE",
"477 211 CURVE",
"466 183 OFFCURVE",
"457 153 OFFCURVE",
"443 125 CURVE",
"394 130 OFFCURVE",
"319 138 OFFCURVE",
"268 147 CURVE",
"271 159 LINE",
"431 217 OFFCURVE",
"664 327 OFFCURVE",
"707 477 CURVE",
"693 554 OFFCURVE",
"624 573 OFFCURVE",
"523 562 CURVE",
"495 488 LINE",
"403 514 OFFCURVE",
"339 538 OFFCURVE",
"249 563 CURVE",
"157 544 OFFCURVE",
"107 487 OFFCURVE",
"75 416 CURVE"
);
}
);
width = 697;
}
);
unicode = 007A;
},
{
color = 5;
glyphname = f_f;
lastChange = "2014-11-06 13:25:02 +0000";
layers = (
{
background = {
paths = (
{
closed = 1;
nodes = (
"631 761 CURVE",
"668 732 OFFCURVE",
"685 708 OFFCURVE",
"690 648 CURVE",
"711 635 OFFCURVE",
"748 642 OFFCURVE",
"773 662 CURVE",
"768 730 OFFCURVE",
"712 802 OFFCURVE",
"635 814 CURVE",
"563 806 OFFCURVE",
"521 769 OFFCURVE",
"474 714 CURVE",
"476 467 LINE",
"450 292 OFFCURVE",
"424 168 OFFCURVE",
"379 24 CURVE",
"394 2 OFFCURVE",
"419 -4 OFFCURVE",
"464 0 CURVE",
"500 207 OFFCURVE",
"550 573 OFFCURVE",
"547 718 CURVE",
"576 741 OFFCURVE",
"602 754 OFFCURVE"
);
},
{
closed = 1;
nodes = (
"492 460 LINE",
"343 459 LINE",
"325 437 OFFCURVE",
"324 410 OFFCURVE",
"341 389 CURVE",
"516 422 LINE",
"705 433 LINE",
"725 462 OFFCURVE",
"724 492 OFFCURVE",
"707 503 CURVE"
);
},
{
closed = 1;
nodes = (
"285 761 CURVE",
"322 732 OFFCURVE",
"339 708 OFFCURVE",
"344 648 CURVE",
"365 635 OFFCURVE",
"402 642 OFFCURVE",
"427 662 CURVE",
"422 730 OFFCURVE",
"366 802 OFFCURVE",
"289 814 CURVE",
"217 806 OFFCURVE",
"175 769 OFFCURVE",
"128 714 CURVE",
"130 467 LINE",
"104 292 OFFCURVE",
"78 168 OFFCURVE",
"33 24 CURVE",
"48 2 OFFCURVE",
"73 -4 OFFCURVE",
"118 0 CURVE",
"154 207 OFFCURVE",
"204 573 OFFCURVE",
"201 718 CURVE",
"230 741 OFFCURVE",
"256 754 OFFCURVE"
);
},
{
closed = 1;
nodes = (
"146 460 LINE",
"-3 459 LINE",
"-21 437 OFFCURVE",
"-22 410 OFFCURVE",
"-5 389 CURVE",
"170 422 LINE",
"359 433 LINE",
"379 462 OFFCURVE",
"378 492 OFFCURVE",
"361 503 CURVE"
);
}
);
};
layerId = "5A85B07D-1A67-4978-877A-FA33898BA300";
name = "Light Italic";
paths = (
{
closed = 1;
nodes = (
"467 741 OFFCURVE",
"493 754 OFFCURVE",
"522 761 CURVE",
"559 732 OFFCURVE",
"576 708 OFFCURVE",
"581 648 CURVE",
"602 635 OFFCURVE",
"639 642 OFFCURVE",
"664 662 CURVE",
"659 730 OFFCURVE",
"603 802 OFFCURVE",
"526 814 CURVE",
"454 806 OFFCURVE",
"412 769 OFFCURVE",
"365 714 CURVE",
"367 467 LINE",
"341 292 OFFCURVE",
"315 168 OFFCURVE",
"270 24 CURVE",
"285 2 OFFCURVE",
"310 -4 OFFCURVE",
"355 0 CURVE",
"391 207 OFFCURVE",
"441 573 OFFCURVE",
"438 718 CURVE"
);
},
{
closed = 1;
nodes = (
"230 742 OFFCURVE",
"261 756 OFFCURVE",
"285 761 CURVE",
"331 753 OFFCURVE",
"360 728 OFFCURVE",
"366 680 CURVE",
"393 682 OFFCURVE",
"411 687 OFFCURVE",
"419 713 CURVE",
"396 768 OFFCURVE",
"356 800 OFFCURVE",
"289 814 CURVE",
"221 806 OFFCURVE",
"166 768 OFFCURVE",
"128 714 CURVE",
"130 467 LINE",
"104 292 OFFCURVE",
"78 168 OFFCURVE",
"33 24 CURVE",
"48 2 OFFCURVE",
"73 -4 OFFCURVE",
"118 0 CURVE",
"154 207 OFFCURVE",
"204 573 OFFCURVE",
"201 718 CURVE"
);
},
{
closed = 1;
nodes = (
"326 442 LINE",
"-3 439 LINE",
"-21 417 OFFCURVE",
"-22 390 OFFCURVE",
"-5 369 CURVE",
"252 398 LINE",
"602 415 LINE",
"622 444 OFFCURVE",
"621 474 OFFCURVE",
"604 485 CURVE"
);
}
);
width = 579;
},
{
background = {
paths = (
{
closed = 1;
nodes = (
"1002 766 OFFCURVE",
"1018 776 OFFCURVE",
"1041 781 CURVE",
"1079 743 OFFCURVE",
"1088 709 OFFCURVE",
"1091 641 CURVE",
"1197 627 OFFCURVE",
"1285 659 OFFCURVE",
"1302 732 CURVE",
"1267 823 OFFCURVE",
"1237 869 OFFCURVE",
"1104 898 CURVE",
"997 888 OFFCURVE",
"868 812 OFFCURVE",
"802 713 CURVE",
"843 481 LINE",
"811 366 OFFCURVE",
"750 193 OFFCURVE",
"692 57 CURVE",
"722 3 OFFCURVE",
"889 -22 OFFCURVE",
"957 31 CURVE",
"981 213 OFFCURVE",
"1015 559 OFFCURVE",
"998 752 CURVE"
);
},
{
closed = 1;
nodes = (
"851 472 LINE",
"687 476 LINE",
"654 425 OFFCURVE",
"655 395 OFFCURVE",
"688 359 CURVE",
"965 409 LINE",
"1177 418 LINE",
"1205 472 OFFCURVE",
"1205 505 OFFCURVE",
"1177 531 CURVE"
);
},
{
closed = 1;
nodes = (
"393 766 OFFCURVE",
"409 776 OFFCURVE",
"432 781 CURVE",
"470 743 OFFCURVE",
"479 709 OFFCURVE",
"482 641 CURVE",
"588 627 OFFCURVE",
"676 659 OFFCURVE",
"693 732 CURVE",
"658 823 OFFCURVE",
"628 869 OFFCURVE",
"495 898 CURVE",
"388 888 OFFCURVE",
"259 812 OFFCURVE",
"193 713 CURVE",
"234 481 LINE",
"202 366 OFFCURVE",
"141 193 OFFCURVE",
"83 57 CURVE",
"113 3 OFFCURVE",
"280 -22 OFFCURVE",
"348 31 CURVE",
"372 213 OFFCURVE",
"406 559 OFFCURVE",
"389 752 CURVE"
);
},
{
closed = 1;
nodes = (
"242 472 LINE",
"78 476 LINE",
"45 425 OFFCURVE",
"46 395 OFFCURVE",
"79 359 CURVE",
"356 409 LINE",
"568 418 LINE",
"596 472 OFFCURVE",
"596 505 OFFCURVE",
"568 531 CURVE"
);
}
);
};
layerId = "A99E0968-31B7-4C8F-B576-AD2EC1F95564";
name = "Bold Italic";
paths = (
{
closed = 1;
nodes = (
"726 766 OFFCURVE",
"742 776 OFFCURVE",
"765 781 CURVE",
"804 743 OFFCURVE",
"813 709 OFFCURVE",
"816 641 CURVE",
"923 627 OFFCURVE",
"1010 659 OFFCURVE",
"1027 732 CURVE",
"991 823 OFFCURVE",
"960 869 OFFCURVE",
"827 898 CURVE",
"720 888 OFFCURVE",
"592 812 OFFCURVE",
"527 713 CURVE",
"570 481 LINE",
"539 366 OFFCURVE",
"479 193 OFFCURVE",
"423 57 CURVE",
"453 3 OFFCURVE",
"620 -22 OFFCURVE",
"688 31 CURVE",
"710 213 OFFCURVE",
"741 559 OFFCURVE",
"723 752 CURVE"
);
},
{
closed = 1;
nodes = (
"397 766 OFFCURVE",
"405 776 OFFCURVE",
"425 781 CURVE",
"469 770 OFFCURVE",
"496 749 OFFCURVE",
"527 712 CURVE",
"608 718 OFFCURVE",
"638 722 OFFCURVE",
"658 797 CURVE",
"584 873 OFFCURVE",
"540 884 OFFCURVE",
"452 898 CURVE",
"344 877 OFFCURVE",
"251 805 OFFCURVE",
"187 713 CURVE",
"234 481 LINE",
"198 358 OFFCURVE",
"138 184 OFFCURVE",
"82 57 CURVE",
"113 3 OFFCURVE",
"280 -22 OFFCURVE",
"348 31 CURVE",
"370 213 OFFCURVE",
"408 559 OFFCURVE",
"389 752 CURVE"
);
},
{
closed = 1;
nodes = (
"448 454 LINE",
"67 464 LINE",
"34 413 OFFCURVE",
"35 383 OFFCURVE",
"68 347 CURVE",
"562 391 LINE",
"950 394 LINE",
"978 448 OFFCURVE",
"978 481 OFFCURVE",
"950 507 CURVE"
);
}
);
width = 952;
}
);
leftMetricsKey = f;
rightMetricsKey = f;
},
{
color = 5;
glyphname = f_t;
lastChange = "2014-11-06 13:25:02 +0000";
layers = (
{
background = {
paths = (
{
closed = 1;
nodes = (
"149 438 LINE",
"0 437 LINE",
"-19 416 OFFCURVE",
"-20 389 OFFCURVE",
"-2 367 CURVE",
"173 401 LINE",
"317 408 LINE",
"338 437 OFFCURVE",
"337 468 OFFCURVE",
"319 478 CURVE"
);
},
{
closed = 1;
nodes = (
"514 720 LINE",
"489 759 OFFCURVE",
"445 800 OFFCURVE",
"364 813 CURVE",
"269 806 OFFCURVE",
"195 773 OFFCURVE",
"134 713 CURVE",
"130 440 LINE",
"105 262 OFFCURVE",
"82 166 OFFCURVE",
"38 24 CURVE",
"53 2 OFFCURVE",
"78 -4 OFFCURVE",
"123 0 CURVE",
"161 211 OFFCURVE",
"207 568 OFFCURVE",
"206 697 CURVE",
"260 732 OFFCURVE",
"326 765 OFFCURVE",
"417 738 CURVE",
"418 540 LINE",
"397 395 OFFCURVE",
"370 254 OFFCURVE",
"314 31 CURVE",
"331 2 OFFCURVE",
"368 -4 OFFCURVE",
"409 0 CURVE",
"434 212 OFFCURVE",
"453 374 OFFCURVE",
"476 580 CURVE"
);
}
);
};
layerId = "5A85B07D-1A67-4978-877A-FA33898BA300";
name = "Light Italic";
paths = (
{
closed = 1;
nodes = (
"297 448 LINE",
"0 447 LINE",
"-19 426 OFFCURVE",
"-20 399 OFFCURVE",
"-2 377 CURVE",
"241 407 LINE",
"559 424 LINE",
"580 453 OFFCURVE",
"579 484 OFFCURVE",
"561 494 CURVE"
);
},
{
closed = 1;
nodes = (
"430 257 OFFCURVE",
"447 402 OFFCURVE",
"476 580 CURVE",
"514 720 LINE",
"489 759 OFFCURVE",
"445 800 OFFCURVE",
"364 813 CURVE",
"269 806 OFFCURVE",
"195 773 OFFCURVE",
"134 713 CURVE",
"130 440 LINE",
"105 262 OFFCURVE",
"82 166 OFFCURVE",
"38 24 CURVE",
"53 2 OFFCURVE",
"78 -4 OFFCURVE",
"123 0 CURVE",
"161 211 OFFCURVE",
"207 568 OFFCURVE",
"206 697 CURVE",
"260 732 OFFCURVE",
"326 765 OFFCURVE",
"417 738 CURVE",
"418 540 LINE",
"396 405 OFFCURVE",
"374 284 OFFCURVE",
"315 52 CURVE",
"320 31 OFFCURVE",
"337 10 OFFCURVE",
"385 0 CURVE",
"445 13 OFFCURVE",
"528 48 OFFCURVE",
"572 87 CURVE",
"574 110 OFFCURVE",
"573 127 OFFCURVE",
"539 125 CURVE",
"492 92 OFFCURVE",
"440 73 OFFCURVE",
"371 57 CURVE",
"407 47 LINE"
);
}
);
width = 608;
},
{
background = {
paths = (
{
closed = 1;
nodes = (
"412 486 LINE",
"69 476 LINE",
"36 425 OFFCURVE",
"37 395 OFFCURVE",
"70 359 CURVE",
"526 423 LINE",
"897 463 LINE",
"925 517 OFFCURVE",
"925 550 OFFCURVE",
"897 576 CURVE"
);
},
{
closed = 1;
nodes = (
"743 193 OFFCURVE",
"757 414 OFFCURVE",
"773 593 CURVE",
"808 726 LINE",
"740 855 OFFCURVE",
"720 889 OFFCURVE",
"519 925 CURVE",
"372 884 OFFCURVE",
"266 822 OFFCURVE",
"185 705 CURVE",
"221 472 LINE",
"191 350 OFFCURVE",
"130 179 OFFCURVE",
"75 57 CURVE",
"105 3 OFFCURVE",
"272 -22 OFFCURVE",
"340 31 CURVE",
"368 220 OFFCURVE",
"388 578 OFFCURVE",
"381 707 CURVE",
"432 784 OFFCURVE",
"518 800 OFFCURVE",
"580 771 CURVE",
"602 538 LINE",
"583 413 OFFCURVE",
"554 286 OFFCURVE",
"497 122 CURVE",
"518 65 OFFCURVE",
"565 11 OFFCURVE",
"697 0 CURVE",
"817 25 OFFCURVE",
"903 90 OFFCURVE",
"964 141 CURVE",
"970 206 OFFCURVE",
"953 225 OFFCURVE",
"897 229 CURVE",
"838 180 OFFCURVE",
"769 135 OFFCURVE",
"685 106 CURVE",
"734 84 LINE"
);
}
);
};
layerId = "A99E0968-31B7-4C8F-B576-AD2EC1F95564";
name = "Bold Italic";
paths = (
{
closed = 1;
nodes = (
"412 486 LINE",
"69 476 LINE",
"36 425 OFFCURVE",
"37 395 OFFCURVE",
"70 359 CURVE",
"526 423 LINE",
"897 463 LINE",
"925 517 OFFCURVE",
"925 550 OFFCURVE",
"897 576 CURVE"
);
},
{
closed = 1;
nodes = (
"725 189 OFFCURVE",
"752 410 OFFCURVE",
"761 547 CURVE",
"808 726 LINE",
"740 855 OFFCURVE",
"720 889 OFFCURVE",
"519 925 CURVE",
"372 884 OFFCURVE",
"266 822 OFFCURVE",
"185 705 CURVE",
"221 472 LINE",
"191 350 OFFCURVE",
"130 179 OFFCURVE",
"75 57 CURVE",
"105 3 OFFCURVE",
"272 -22 OFFCURVE",
"340 31 CURVE",
"368 220 OFFCURVE",
"388 578 OFFCURVE",
"381 707 CURVE",
"432 784 OFFCURVE",
"518 800 OFFCURVE",
"580 771 CURVE",
"602 538 LINE",
"583 413 OFFCURVE",
"541 286 OFFCURVE",
"484 122 CURVE",
"505 65 OFFCURVE",
"552 11 OFFCURVE",
"684 0 CURVE",
"804 25 OFFCURVE",
"890 90 OFFCURVE",
"951 141 CURVE",
"956 205 OFFCURVE",
"939 224 OFFCURVE",
"884 229 CURVE",
"825 180 OFFCURVE",
"756 135 OFFCURVE",
"672 106 CURVE",
"721 84 LINE"
);
}
);
width = 980;
}
);
leftMetricsKey = f;
},
{
glyphname = fi;
lastChange = "2014-11-06 13:25:25 +0000";
layers = (
{
background = {
paths = (
{
closed = 1;
nodes = (
"340 368 LINE",
"318 256 OFFCURVE",
"294 137 OFFCURVE",
"262 31 CURVE",
"280 2 OFFCURVE",
"316 -4 OFFCURVE",
"357 0 CURVE",
"372 151 OFFCURVE",
"383 274 OFFCURVE",
"397 394 CURVE",
"428 499 LINE",
"407 522 OFFCURVE",
"381 517 OFFCURVE",
"337 497 CURVE"
);
},
{
closed = 1;
nodes = (
"234 741 OFFCURVE",
"260 754 OFFCURVE",
"289 761 CURVE",
"332 741 OFFCURVE",
"346 692 OFFCURVE",
"342 620 CURVE",
"393 604 OFFCURVE",
"424 611 OFFCURVE",
"436 634 CURVE",
"436 706 OFFCURVE",
"378 806 OFFCURVE",
"293 814 CURVE",
"221 806 OFFCURVE",
"179 769 OFFCURVE",
"132 714 CURVE",
"134 467 LINE",
"108 292 OFFCURVE",
"82 168 OFFCURVE",
"37 24 CURVE",
"52 2 OFFCURVE",
"77 -4 OFFCURVE",
"122 0 CURVE",
"158 207 OFFCURVE",
"208 573 OFFCURVE",
"205 718 CURVE"
);
},
{
closed = 1;
nodes = (
"150 460 LINE",
"1 459 LINE",
"-17 437 OFFCURVE",
"-18 410 OFFCURVE",
"-1 389 CURVE",
"174 422 LINE",
"363 433 LINE",
"383 462 OFFCURVE",
"382 492 OFFCURVE",
"365 503 CURVE"
);
}
);
};
layerId = "5A85B07D-1A67-4978-877A-FA33898BA300";
name = "Light Italic";
paths = (
{
closed = 1;
nodes = (
"370 368 LINE",
"348 256 OFFCURVE",
"324 137 OFFCURVE",
"292 31 CURVE",
"310 2 OFFCURVE",
"346 -4 OFFCURVE",
"387 0 CURVE",
"402 151 OFFCURVE",
"413 274 OFFCURVE",
"427 394 CURVE",
"458 499 LINE",
"437 522 OFFCURVE",
"411 517 OFFCURVE",
"367 497 CURVE"
);
},
{
closed = 1;
nodes = (
"234 741 OFFCURVE",
"260 754 OFFCURVE",
"289 761 CURVE",
"332 741 OFFCURVE",
"346 692 OFFCURVE",
"342 620 CURVE",
"393 604 OFFCURVE",
"424 611 OFFCURVE",
"436 634 CURVE",
"436 706 OFFCURVE",
"378 806 OFFCURVE",
"293 814 CURVE",
"221 806 OFFCURVE",
"179 769 OFFCURVE",
"132 714 CURVE",
"134 467 LINE",
"108 292 OFFCURVE",
"82 168 OFFCURVE",
"37 24 CURVE",
"52 2 OFFCURVE",
"77 -4 OFFCURVE",
"122 0 CURVE",
"158 207 OFFCURVE",
"208 573 OFFCURVE",
"205 718 CURVE"
);
},
{
closed = 1;
nodes = (
"150 460 LINE",
"1 459 LINE",
"-17 437 OFFCURVE",
"-18 410 OFFCURVE",
"-1 389 CURVE",
"174 422 LINE",
"393 440 LINE",
"413 469 OFFCURVE",
"412 492 OFFCURVE",
"395 503 CURVE"
);
}
);
width = 483;
},
{
layerId = "A99E0968-31B7-4C8F-B576-AD2EC1F95564";
name = "Bold Italic";
paths = (
{
closed = 1;
nodes = (
"559 323 LINE",
"538 227 OFFCURVE",
"507 157 OFFCURVE",
"461 56 CURVE",
"510 3 OFFCURVE",
"658 -22 OFFCURVE",
"721 31 CURVE",
"724 150 OFFCURVE",
"724 246 OFFCURVE",
"734 353 CURVE",
"788 535 LINE",
"730 572 OFFCURVE",
"658 572 OFFCURVE",
"550 523 CURVE"
);
},
{
closed = 1;
nodes = (
"414 763 OFFCURVE",
"469 788 OFFCURVE",
"511 793 CURVE",
"541 748 OFFCURVE",
"556 696 OFFCURVE",
"559 623 CURVE",
"659 600 OFFCURVE",
"747 632 OFFCURVE",
"783 699 CURVE",
"727 825 OFFCURVE",
"693 873 OFFCURVE",
"548 903 CURVE",
"407 889 OFFCURVE",
"275 827 OFFCURVE",
"184 705 CURVE",
"220 472 LINE",
"190 350 OFFCURVE",
"129 179 OFFCURVE",
"74 57 CURVE",
"104 3 OFFCURVE",
"271 -22 OFFCURVE",
"339 31 CURVE",
"363 213 OFFCURVE",
"397 559 OFFCURVE",
"380 726 CURVE"
);
},
{
closed = 1;
nodes = (
"233 472 LINE",
"69 476 LINE",
"36 425 OFFCURVE",
"37 395 OFFCURVE",
"70 359 CURVE",
"347 409 LINE",
"569 418 LINE",
"597 472 OFFCURVE",
"597 505 OFFCURVE",
"569 531 CURVE"
);
}
);
width = 805;
}
);
unicode = FB01;
},
{
glyphname = fl;
lastChange = "2014-11-06 13:25:25 +0000";
layers = (
{
background = {
paths = (
{
closed = 1;
nodes = (
"146 438 LINE",
"-3 437 LINE",
"-22 416 OFFCURVE",
"-23 389 OFFCURVE",
"-5 367 CURVE",
"170 401 LINE",
"314 408 LINE",
"335 437 OFFCURVE",
"334 468 OFFCURVE",
"316 478 CURVE"
);
},
{
closed = 1;
nodes = (
"511 720 LINE",
"486 759 OFFCURVE",
"442 800 OFFCURVE",
"361 813 CURVE",
"266 806 OFFCURVE",
"192 773 OFFCURVE",
"131 713 CURVE",
"127 440 LINE",
"102 262 OFFCURVE",
"79 166 OFFCURVE",
"35 24 CURVE",
"50 2 OFFCURVE",
"75 -4 OFFCURVE",
"120 0 CURVE",
"158 211 OFFCURVE",
"204 568 OFFCURVE",
"203 697 CURVE",
"257 732 OFFCURVE",
"323 765 OFFCURVE",
"414 738 CURVE",
"415 540 LINE",
"394 395 OFFCURVE",
"367 254 OFFCURVE",
"311 31 CURVE",
"328 2 OFFCURVE",
"365 -4 OFFCURVE",
"406 0 CURVE",
"431 212 OFFCURVE",
"450 374 OFFCURVE",
"473 580 CURVE"
);
}
);
};
layerId = "5A85B07D-1A67-4978-877A-FA33898BA300";
name = "Light Italic";
paths = (
{
closed = 1;
nodes = (
"146 438 LINE",
"-3 437 LINE",
"-22 416 OFFCURVE",
"-23 389 OFFCURVE",
"-5 367 CURVE",
"170 401 LINE",
"314 408 LINE",
"335 437 OFFCURVE",
"334 468 OFFCURVE",
"316 478 CURVE"
);
},
{
closed = 1;
nodes = (
"531 720 LINE",
"506 763 OFFCURVE",
"442 803 OFFCURVE",
"348 813 CURVE",
"262 803 OFFCURVE",
"190 771 OFFCURVE",
"131 713 CURVE",
"127 440 LINE",
"102 262 OFFCURVE",
"79 166 OFFCURVE",
"35 24 CURVE",
"50 2 OFFCURVE",
"75 -4 OFFCURVE",
"120 0 CURVE",
"158 211 OFFCURVE",
"204 568 OFFCURVE",
"203 697 CURVE",
"256 735 OFFCURVE",
"342 769 OFFCURVE",
"434 738 CURVE",
"435 540 LINE",
"414 395 OFFCURVE",
"387 254 OFFCURVE",
"331 31 CURVE",
"348 2 OFFCURVE",
"385 -4 OFFCURVE",
"426 0 CURVE",
"451 212 OFFCURVE",
"470 374 OFFCURVE",
"493 580 CURVE"
);
}
);
width = 536;
},
{
layerId = "A99E0968-31B7-4C8F-B576-AD2EC1F95564";
name = "Bold Italic";
paths = (
{
closed = 1;
nodes = (
"233 472 LINE",
"69 476 LINE",
"36 425 OFFCURVE",
"37 395 OFFCURVE",
"70 359 CURVE",
"347 409 LINE",
"559 418 LINE",
"587 472 OFFCURVE",
"587 505 OFFCURVE",
"559 531 CURVE"
);
},
{
closed = 1;
nodes = (
"868 726 LINE",
"800 855 OFFCURVE",
"720 889 OFFCURVE",
"519 925 CURVE",
"372 884 OFFCURVE",
"266 822 OFFCURVE",
"185 705 CURVE",
"221 472 LINE",
"191 350 OFFCURVE",
"130 179 OFFCURVE",
"75 57 CURVE",
"105 3 OFFCURVE",
"272 -22 OFFCURVE",
"340 31 CURVE",
"368 220 OFFCURVE",
"388 578 OFFCURVE",
"381 707 CURVE",
"444 780 OFFCURVE",
"539 827 OFFCURVE",
"640 771 CURVE",
"662 538 LINE",
"637 370 OFFCURVE",
"593 199 OFFCURVE",
"530 56 CURVE",
"555 3 OFFCURVE",
"739 -22 OFFCURVE",
"800 34 CURVE",
"814 206 OFFCURVE",
"823 421 OFFCURVE",
"833 593 CURVE"
);
}
);
width = 883;
}
);
unicode = FB02;
},
{
color = 5;
glyphname = t_t;
lastChange = "2014-11-06 13:25:02 +0000";
layers = (
{
background = {
paths = (
{
closed = 1;
nodes = (
"191 525 LINE",
"42 524 LINE",
"24 502 OFFCURVE",
"23 475 OFFCURVE",
"40 454 CURVE",
"215 487 LINE",
"382 492 LINE",
"403 522 OFFCURVE",
"402 552 OFFCURVE",
"384 563 CURVE"
);
},
{
closed = 1;
nodes = (
"167 36 LINE",
"189 230 OFFCURVE",
"208 376 OFFCURVE",
"222 521 CURVE",
"271 679 LINE",
"239 703 OFFCURVE",
"210 696 OFFCURVE",
"171 669 CURVE",
"172 510 LINE",
"141 333 OFFCURVE",
"117 235 OFFCURVE",
"76 52 CURVE",
"81 31 OFFCURVE",
"98 10 OFFCURVE",
"146 0 CURVE",
"206 13 OFFCURVE",
"289 48 OFFCURVE",
"333 87 CURVE",
"335 110 OFFCURVE",
"334 127 OFFCURVE",
"300 125 CURVE",
"253 92 OFFCURVE",
"201 73 OFFCURVE",
"132 57 CURVE"
);
},
{
closed = 1;
nodes = (
"443 525 LINE",
"294 524 LINE",
"276 502 OFFCURVE",
"275 475 OFFCURVE",
"292 454 CURVE",
"467 487 LINE",
"634 492 LINE",
"655 522 OFFCURVE",
"654 552 OFFCURVE",
"636 563 CURVE"
);
},
{
closed = 1;
nodes = (
"419 36 LINE",
"441 230 OFFCURVE",
"460 376 OFFCURVE",
"474 521 CURVE",
"523 679 LINE",
"491 703 OFFCURVE",
"462 696 OFFCURVE",
"423 669 CURVE",
"424 510 LINE",
"393 333 OFFCURVE",
"369 235 OFFCURVE",
"328 52 CURVE",
"333 31 OFFCURVE",
"350 10 OFFCURVE",
"398 0 CURVE",
"458 13 OFFCURVE",
"541 48 OFFCURVE",
"585 87 CURVE",
"587 110 OFFCURVE",
"586 127 OFFCURVE",
"552 125 CURVE",
"505 92 OFFCURVE",
"453 73 OFFCURVE",
"384 57 CURVE"
);
}
);
};
layerId = "5A85B07D-1A67-4978-877A-FA33898BA300";
name = "Light Italic";
paths = (
{
closed = 1;
nodes = (
"310 504 LINE",
"38 500 LINE",
"20 478 OFFCURVE",
"19 451 OFFCURVE",
"36 430 CURVE",
"334 466 LINE",
"620 480 LINE",
"641 510 OFFCURVE",
"640 540 OFFCURVE",
"622 551 CURVE"
);
},
{
closed = 1;
nodes = (
"167 36 LINE",
"189 230 OFFCURVE",
"207 361 OFFCURVE",
"221 506 CURVE",
"271 679 LINE",
"239 703 OFFCURVE",
"210 696 OFFCURVE",
"171 669 CURVE",
"171 495 LINE",
"140 318 OFFCURVE",
"117 235 OFFCURVE",
"76 52 CURVE",
"81 31 OFFCURVE",
"98 10 OFFCURVE",
"146 0 CURVE",
"206 14 OFFCURVE",
"254 35 OFFCURVE",
"291 55 CURVE",
"301 82 OFFCURVE",
"292 99 OFFCURVE",
"263 100 CURVE",
"208 74 OFFCURVE",
"187 68 OFFCURVE",
"132 57 CURVE"
);
},
{
closed = 1;
nodes = (
"419 36 LINE",
"441 230 OFFCURVE",
"460 376 OFFCURVE",
"474 521 CURVE",
"523 679 LINE",
"491 703 OFFCURVE",
"462 696 OFFCURVE",
"423 669 CURVE",
"424 510 LINE",
"393 333 OFFCURVE",
"374 235 OFFCURVE",
"332 42 CURVE",
"343 24 OFFCURVE",
"357 8 OFFCURVE",
"398 0 CURVE",
"458 13 OFFCURVE",
"541 48 OFFCURVE",
"585 87 CURVE",
"587 110 OFFCURVE",
"586 127 OFFCURVE",
"552 125 CURVE",
"505 92 OFFCURVE",
"453 73 OFFCURVE",
"384 57 CURVE"
);
}
);
width = 624;
},
{
background = {
paths = (
{
closed = 1;
nodes = (
"234 554 LINE",
"81 560 LINE",
"48 509 OFFCURVE",
"49 479 OFFCURVE",
"83 442 CURVE",
"381 492 LINE",
"578 502 LINE",
"605 556 OFFCURVE",
"604 590 OFFCURVE",
"576 617 CURVE"
);
},
{
closed = 1;
nodes = (
"342 84 LINE",
"352 226 OFFCURVE",
"372 350 OFFCURVE",
"380 521 CURVE",
"455 753 LINE",
"412 800 OFFCURVE",
"320 799 OFFCURVE",
"207 739 CURVE",
"229 515 LINE",
"200 396 OFFCURVE",
"169 281 OFFCURVE",
"105 122 CURVE",
"126 65 OFFCURVE",
"173 11 OFFCURVE",
"305 0 CURVE",
"425 25 OFFCURVE",
"511 90 OFFCURVE",
"572 141 CURVE",
"578 206 OFFCURVE",
"561 225 OFFCURVE",
"505 229 CURVE",
"446 180 OFFCURVE",
"377 135 OFFCURVE",
"293 106 CURVE"
);
},
{
closed = 1;
nodes = (
"646 554 LINE",
"493 560 LINE",
"460 509 OFFCURVE",
"461 479 OFFCURVE",
"495 442 CURVE",
"793 492 LINE",
"990 502 LINE",
"1017 556 OFFCURVE",
"1016 590 OFFCURVE",
"988 617 CURVE"
);
},
{
closed = 1;
nodes = (
"754 84 LINE",
"764 226 OFFCURVE",
"784 350 OFFCURVE",
"792 521 CURVE",
"867 753 LINE",
"824 800 OFFCURVE",
"732 799 OFFCURVE",
"619 739 CURVE",
"641 515 LINE",
"612 396 OFFCURVE",
"581 281 OFFCURVE",
"517 122 CURVE",
"538 65 OFFCURVE",
"585 11 OFFCURVE",
"717 0 CURVE",
"837 25 OFFCURVE",
"923 90 OFFCURVE",
"984 141 CURVE",
"990 206 OFFCURVE",
"973 225 OFFCURVE",
"917 229 CURVE",
"858 180 OFFCURVE",
"789 135 OFFCURVE",
"705 106 CURVE"
);
}
);
};
layerId = "A99E0968-31B7-4C8F-B576-AD2EC1F95564";
name = "Bold Italic";
paths = (
{
closed = 1;
nodes = (
"521 555 LINE",
"81 545 LINE",
"48 494 OFFCURVE",
"49 464 OFFCURVE",
"83 427 CURVE",
"461 479 LINE",
"983 503 LINE",
"1010 557 OFFCURVE",
"1009 591 OFFCURVE",
"981 618 CURVE"
);
},
{
closed = 1;
nodes = (
"342 84 LINE",
"352 226 OFFCURVE",
"372 350 OFFCURVE",
"380 521 CURVE",
"455 753 LINE",
"412 800 OFFCURVE",
"320 799 OFFCURVE",
"207 739 CURVE",
"229 515 LINE",
"200 396 OFFCURVE",
"169 281 OFFCURVE",
"105 122 CURVE",
"126 65 OFFCURVE",
"173 11 OFFCURVE",
"305 0 CURVE",
"381 13 OFFCURVE",
"459 58 OFFCURVE",
"505 89 CURVE",
"523 148 OFFCURVE",
"505 180 OFFCURVE",
"452 184 CURVE",
"415 161 OFFCURVE",
"346 124 OFFCURVE",
"293 106 CURVE"
);
},
{
closed = 1;
nodes = (
"754 84 LINE",
"764 226 OFFCURVE",
"784 350 OFFCURVE",
"792 521 CURVE",
"867 753 LINE",
"824 800 OFFCURVE",
"732 799 OFFCURVE",
"619 739 CURVE",
"641 515 LINE",
"621 379 OFFCURVE",
"598 282 OFFCURVE",
"533 87 CURVE",
"574 39 OFFCURVE",
"617 6 OFFCURVE",
"717 0 CURVE",
"837 25 OFFCURVE",
"923 90 OFFCURVE",
"984 141 CURVE",
"990 206 OFFCURVE",
"973 225 OFFCURVE",
"917 229 CURVE",
"858 180 OFFCURVE",
"789 135 OFFCURVE",
"705 106 CURVE"
);
}
);
width = 1018;
}
);
leftMetricsKey = t;
rightMetricsKey = t;
},
{
glyphname = ordfeminine;
lastChange = "2014-11-06 13:25:25 +0000";
layers = (
{
layerId = "5A85B07D-1A67-4978-877A-FA33898BA300";
name = "Light Italic";
paths = (
{
closed = 1;
nodes = (
"311 521 LINE",
"261 471 OFFCURVE",
"221 433 OFFCURVE",
"176 389 CURVE",
"146 405 OFFCURVE",
"135 423 OFFCURVE",
"135 465 CURVE SMOOTH",
"135 552 OFFCURVE",
"181 649 OFFCURVE",
"269 692 CURVE",
"298 674 OFFCURVE",
"318 649 OFFCURVE",
"334 616 CURVE",
"356 646 LINE",
"339 689 OFFCURVE",
"305 730 OFFCURVE",
"267 746 CURVE",
"163 746 OFFCURVE",
"60 594 OFFCURVE",
"63 460 CURVE SMOOTH",
"64 387 OFFCURVE",
"117 336 OFFCURVE",
"199 334 CURVE",
"244 388 OFFCURVE",
"294 451 OFFCURVE",
"330 496 CURVE"
);
},
{
closed = 1;
nodes = (
"428 745 OFFCURVE",
"396 752 OFFCURVE",
"357 752 CURVE",
"352 738 OFFCURVE",
"347 711 OFFCURVE",
"346 673 CURVE",
"330 629 LINE",
"303 513 LINE",
"288 453 LINE",
"299 445 LINE",
"264 347 LINE",
"280 328 OFFCURVE",
"320 320 OFFCURVE",
"353 324 CURVE",
"362 430 OFFCURVE",
"372 529 OFFCURVE",
"383 611 CURVE",
"442 726 LINE"
);
}
);
width = 387;
},
{
layerId = "A99E0968-31B7-4C8F-B576-AD2EC1F95564";
name = "Bold Italic";
paths = (
{
closed = 1;
nodes = (
"381 543 LINE",
"345 507 OFFCURVE",
"311 474 OFFCURVE",
"276 437 CURVE",
"263 451 OFFCURVE",
"251 476 OFFCURVE",
"251 505 CURVE SMOOTH",
"251 558 OFFCURVE",
"282 620 OFFCURVE",
"341 657 CURVE",
"356 641 OFFCURVE",
"372 617 OFFCURVE",
"384 593 CURVE",
"421 620 LINE",
"404 664 OFFCURVE",
"371 735 OFFCURVE",
"336 767 CURVE",
"168 765 OFFCURVE",
"73 619 OFFCURVE",
"72 502 CURVE SMOOTH",
"72 411 OFFCURVE",
"125 330 OFFCURVE",
"256 325 CURVE",
"307 387 OFFCURVE",
"380 464 OFFCURVE",
"409 498 CURVE"
);
},
{
closed = 1;
nodes = (
"580 765 OFFCURVE",
"528 774 OFFCURVE",
"414 759 CURVE",
"397 734 OFFCURVE",
"396 705 OFFCURVE",
"398 666 CURVE",
"382 590 LINE",
"378 545 LINE",
"340 432 LINE",
"361 413 LINE",
"333 358 LINE",
"397 304 OFFCURVE",
"514 295 OFFCURVE",
"546 336 CURVE",
"530 424 OFFCURVE",
"523 502 OFFCURVE",
"521 575 CURVE",
"596 717 LINE"
);
}
);
width = 567;
}
);
unicode = 00AA;
},
{
glyphname = ordmasculine;
lastChange = "2014-11-06 13:25:25 +0000";
layers = (
{
layerId = "5A85B07D-1A67-4978-877A-FA33898BA300";
name = "Light Italic";
paths = (
{
closed = 1;
nodes = (
"148 329 OFFCURVE",
"71 407 OFFCURVE",
"71 504 CURVE SMOOTH",
"71 605 OFFCURVE",
"174 745 OFFCURVE",
"273 745 CURVE SMOOTH",
"334 745 OFFCURVE",
"407 622 OFFCURVE",
"409 553 CURVE SMOOTH",
"410 461 OFFCURVE",
"289 329 OFFCURVE",
"203 329 CURVE"
);
},
{
closed = 1;
nodes = (
"329 600 OFFCURVE",
"299 662 OFFCURVE",
"262 702 CURVE",
"193 654 OFFCURVE",
"157 594 OFFCURVE",
"144 518 CURVE",
"147 450 OFFCURVE",
"172 410 OFFCURVE",
"208 373 CURVE",
"283 410 OFFCURVE",
"324 463 OFFCURVE",
"337 550 CURVE"
);
}
);
width = 389;
},
{
layerId = "A99E0968-31B7-4C8F-B576-AD2EC1F95564";
name = "Bold Italic";
paths = (
{
closed = 1;
nodes = (
"196 304 OFFCURVE",
"85 407 OFFCURVE",
"81 483 CURVE SMOOTH",
"79 615 OFFCURVE",
"205 765 OFFCURVE",
"386 765 CURVE SMOOTH",
"484 765 OFFCURVE",
"605 646 OFFCURVE",
"607 554 CURVE SMOOTH",
"609 432 OFFCURVE",
"455 304 OFFCURVE",
"298 304 CURVE"
);
},
{
closed = 1;
nodes = (
"428 598 OFFCURVE",
"406 637 OFFCURVE",
"378 689 CURVE",
"317 639 OFFCURVE",
"265 559 OFFCURVE",
"267 491 CURVE",
"267 458 OFFCURVE",
"289 411 OFFCURVE",
"309 385 CURVE",
"380 426 OFFCURVE",
"417 472 OFFCURVE",
"436 527 CURVE"
);
}
);
width = 601;
}
);
unicode = 00BA;
},
